<?xml version="1.0" encoding="UTF-8" standalone="no"?>
<!DOCTYPE svg PUBLIC "-//W3C//DTD SVG 1.1//EN" "http://www.w3.org/Graphics/SVG/1.1/DTD/svg11.dtd">
<svg width="100%" height="100%" viewBox="0 0 2436 1125" version="1.1" xmlns="http://www.w3.org/2000/svg" xmlns:xlink="http://www.w3.org/1999/xlink" xml:space="preserve" xmlns:serif="http://www.serif.com/" style="fill-rule:evenodd;clip-rule:evenodd;stroke-linejoin:round;stroke-miterlimit:2;">
    <rect id="Artboard1" x="0" y="0" width="2436" height="1125" style="fill:none;"/>
    <g id="Artboard11" serif:id="Artboard1">
        <path d="M126.569,991.383C125.12,990.459 125.071,990.381 124.699,988.703C124.464,987.642 124.829,986.49 125.257,985.492C125.87,984.063 126.931,982.872 127.764,981.559C160.531,929.949 177.726,901.52 200.266,886.768C217.092,875.756 236.896,872.016 265.489,867.256C277.624,865.236 309.477,848.522 336.112,818.179C344.254,808.904 368.836,780.181 376.246,737.173C378.064,726.619 378.049,717.986 382.084,697.804C388.299,666.714 407.946,588.293 488.268,512.752C576.983,429.317 700.405,388.758 765.517,406.717C767.239,407.192 767.994,408.529 768.125,408.76C768.133,408.774 768.533,412.041 768.528,412.048C767.851,412.912 767.447,414.095 766.492,414.635C764.481,415.771 764.335,415.33 762.099,414.745C692.053,396.411 541.58,450.636 454.525,566.844C400.176,639.394 392.955,706.707 390.485,729.632C386.315,768.338 369.53,795.531 359.351,809.725C356.41,813.826 338.443,839.522 305.429,861.012C291.923,869.803 276.941,876.793 267.214,878.206C199.75,888.011 195.436,891.992 138.194,981.13C136.348,984.004 136.039,984.475 132.469,990.077C131.545,991.526 131.467,991.575 129.789,991.947C128.11,992.318 128.019,992.307 126.569,991.383Z" style="fill:rgb(0,3,60);"/>
        <path d="M135.357,978.533C133.976,977.529 133.932,977.449 133.664,975.762C133.319,973.592 133.746,973.604 134.994,971.794C143.458,959.517 146.896,950.472 150.095,942.424C151.111,939.866 151.124,939.874 152.905,935.517C165.518,904.669 169.675,872.371 172.244,848.678C175.313,820.368 176.644,796.673 183.325,778.459C183.415,778.213 183.932,776.802 185.54,776.058C185.555,776.051 188.797,775.917 188.803,775.923C189.599,776.657 190.729,777.148 191.184,778.13C192.113,780.136 191.707,780.243 190.988,782.335C178.924,817.441 186.415,881.101 164.462,938.159C162.555,943.113 160.361,948.9 150.716,963.971C147.309,969.293 143.671,974.318 143.032,975.199C142.893,975.392 141.302,977.588 141.286,977.598C138.737,979.16 138.775,979.245 138.519,979.286C138.262,979.327 136.774,979.563 135.357,978.533Z" style="fill:rgb(0,3,60);"/>
        <path d="M145.075,980.438C144.949,981.386 145.003,982.413 144.472,983.189C142.875,985.526 139.973,985.091 139.558,985.028C135.852,984.472 133.09,979.914 137.739,975.411C146.001,967.408 177.999,957.141 188.707,953.731C206.453,948.081 215.721,950.358 225.258,950.605C231.393,950.764 241.109,950.861 259.901,942.843C261.394,942.207 261.714,942.046 261.724,942.045C262.818,942.012 263.981,941.563 265.005,941.948C265.021,941.954 267.413,944.191 267.414,944.2C267.449,945.293 267.898,946.456 267.513,947.48C266.786,949.414 266.527,949.307 264.649,950.165C248.34,957.615 236.928,961.342 222.485,961.33C213.169,961.322 205.446,960.439 192.807,963.663C189.972,964.386 172.315,968.65 158.555,973.961C152.302,976.375 147.665,978.668 145.075,980.438Z" style="fill:rgb(0,3,60);"/>
        <path d="M894.06,383.762C898.686,385.337 922.163,394.355 958.611,359.759C969.493,349.431 977.615,338.83 977.71,338.778C978.672,338.249 979.507,337.316 980.598,337.193C980.614,337.191 983.774,338.098 983.778,338.106C984.308,339.067 985.241,339.901 985.364,340.991C985.487,342.082 984.872,343.14 984.462,344.158C984.389,344.338 981.042,348.385 980.741,348.75C932.275,407.356 893.488,402.223 872.058,382.029C859.978,370.646 854.239,355.307 851.868,345.689C843.968,313.651 871.792,263.172 907.78,236.658C929.604,220.58 946.947,218.666 953.509,218.167C955.246,218.034 956.389,219.016 956.586,219.185C956.599,219.196 958.057,222.069 958.055,222.077C957.719,223.099 957.741,224.323 957.041,225.139C955.534,226.894 955.234,226.488 952.933,226.719C907.495,231.286 865.935,287.957 861.352,326.681C860.135,336.969 861.785,342.86 863.891,348.924C873.801,377.458 892.131,383.048 894.041,383.755L894.06,383.762Z" style="fill:rgb(0,3,60);"/>
        <path d="M959.178,225.55C959.709,233.012 966.879,258.911 977.044,326.688C977.27,328.193 977.802,336.057 984.304,346.421C990.919,356.964 1003.23,368.537 1014.56,363.139C1016.14,362.386 1017.56,362.881 1017.81,362.966C1017.82,362.972 1020.24,365.125 1020.24,365.134C1020.31,366.215 1020.78,367.355 1020.42,368.378C1019.76,370.276 1019.55,370.236 1017.72,371.066C995.708,381.021 972.209,351.511 969.039,330.582C964.817,302.705 961.446,280.941 953.92,243.814C950.696,227.909 949.426,222.702 952.374,219.318C954.283,217.127 957.046,217.099 958.35,217.116C960.175,217.14 960.295,217.112 961.554,218.434C961.566,218.446 962.727,221.448 962.723,221.456C962.288,222.437 962.187,223.654 961.411,224.394C960.401,225.356 960.025,225.518 959.178,225.55Z" style="fill:rgb(0,3,60);"/>
        <path d="M1058.79,374.74C1058.73,355.713 1059.2,327.702 1058.29,284.752C1058.09,275.271 1057.54,251.614 1057.54,251.608C1057.93,250.605 1057.97,249.38 1058.71,248.602C1058.73,248.59 1061.67,247.285 1061.68,247.288C1062.68,247.676 1063.9,247.717 1064.68,248.459C1065.46,249.201 1065.71,250.37 1066,251.405C1066.04,251.564 1066.77,281.906 1066.84,284.559C1066.89,286.964 1066.95,289.251 1067,291.455C1070.72,275.871 1076.15,262.164 1084.05,254.422C1086.62,251.904 1095.77,243.247 1110.65,249.104C1126.46,255.328 1126.3,280.216 1127.42,302.33C1128.05,314.591 1129.02,327.316 1132.7,336.786C1137.08,348.067 1143.74,350.592 1147.84,351.755L1147.85,351.757C1148.37,351.884 1148.38,351.906 1149.47,352.122C1151.15,352.456 1151.23,352.504 1152.19,353.923C1152.2,353.937 1152.87,357.123 1152.86,357.131C1152.26,358.039 1151.96,359.241 1151.06,359.852C1149.29,361.057 1149.13,360.805 1147.04,360.353C1118.56,354.193 1119.42,317.173 1117.48,289.919C1116.77,279.919 1115.86,272.758 1114.08,267.34C1111.69,260.069 1108.54,258.718 1107.11,258.116L1107.09,258.11C1102.44,256.366 1091.55,252.482 1081.84,275.656C1067.49,309.895 1067.73,374.811 1067.68,375.228C1067.6,375.993 1067.65,376.008 1067.36,376.722C1066.69,378.39 1064.95,379.544 1063.15,379.511C1060.82,379.467 1058.8,377.503 1058.79,375.065C1058.79,374.999 1058.79,374.932 1058.79,374.865L1058.79,374.865C1058.79,374.823 1058.79,374.782 1058.79,374.74Z" style="fill:rgb(0,3,60);"/>
        <path d="M1199.73,362.015C1201.9,361.459 1202.31,362.514 1204.48,364.687C1204.48,364.693 1204.47,368.021 1204.46,368.036C1203.37,370.649 1200.06,371.031 1199.6,371.084C1196.45,371.447 1193.01,369.78 1191.42,364.637C1189.79,359.4 1190.12,354.012 1189.89,341.581C1189.05,296.9 1185.47,293.153 1183.98,241.81C1183.98,241.635 1183.93,239.987 1183.99,239.623C1184.59,236.084 1189.07,234.365 1191.9,237.864C1192.22,238.266 1192.51,238.7 1192.9,239.255C1193.07,239.349 1193.23,239.461 1193.37,239.597C1195.03,241.164 1194.7,243.095 1194.65,243.413C1194.42,244.777 1193.64,245.836 1192.61,246.457C1193.91,282.162 1195.58,288.161 1197.23,311.21C1198.33,326.707 1198.59,341.114 1198.72,352.515C1198.73,353.117 1198.75,359.031 1199.73,362.015Z" style="fill:rgb(0,3,60);"/>
        <path d="M1312.6,346.236C1313.63,347.628 1313.65,347.72 1313.39,349.431C1313.1,351.397 1312.88,351.384 1311.28,352.563C1293.68,365.502 1275.06,373.34 1260.68,363.151C1236.49,346.012 1241.63,285.309 1239.61,265.809C1237.57,246.178 1229.6,245.719 1228.44,245.579C1217.82,244.283 1201.52,261.343 1200.83,274.577C1200.74,276.311 1199.63,277.316 1199.44,277.49C1199.43,277.502 1196.41,278.599 1196.4,278.596C1193.24,277.113 1192.19,277.34 1192.4,273.849C1193.58,253.646 1220.74,227.474 1237.65,240.511C1248.68,249.015 1248.53,269.315 1248.72,278.929C1249.16,301.508 1249.09,346.768 1267.14,357.125C1279.31,364.112 1297.52,352.034 1306.59,345.332C1307.98,344.303 1308.07,344.285 1309.78,344.543C1311.49,344.8 1311.57,344.844 1312.6,346.236Z" style="fill:rgb(0,3,60);"/>
        <path d="M1390.85,258.698C1390.68,257.007 1390.71,256.921 1391.79,255.605C1393.12,253.977 1393.35,254.182 1395.44,253.995C1439.04,250.114 1449.13,290.23 1433.43,325.258C1422.43,349.789 1402.02,364.924 1381.79,366.088C1342.34,368.36 1326.32,314.001 1344.77,276.919C1349.44,267.534 1366.87,237.736 1414.24,245.872C1415.97,246.168 1416.84,247.403 1416.99,247.616C1417,247.63 1417.7,250.784 1417.7,250.792C1417.12,251.701 1416.84,252.897 1415.96,253.516C1414.12,254.805 1413.94,254.413 1411.73,254.053C1356.82,245.103 1340.11,292.819 1347.13,325.125C1351.89,347.038 1367.13,363.895 1391.86,355.483C1424.92,344.231 1442.75,293.358 1424.89,271.743C1414.59,259.261 1395.96,262.629 1395.47,262.481C1392.63,261.615 1392.59,261.703 1392.39,261.54C1391.07,260.465 1391.03,260.387 1390.85,258.698Z" style="fill:rgb(0,3,60);"/>
        <path d="M1535.17,259.488C1536.44,258.317 1536.54,258.305 1538.26,258.392C1540.33,258.496 1540.33,258.737 1541.68,260.305C1563.36,285.51 1526.19,347.219 1511.34,363.076C1508.17,366.461 1506.03,367.997 1502.22,369.103C1491.42,372.234 1484.94,362.753 1484.35,361.963C1469.5,342.112 1467.22,285.865 1464.51,262.538C1464.31,260.847 1464.34,260.761 1465.39,259.424C1465.4,259.411 1468.22,257.833 1468.23,257.836C1469.26,258.128 1470.49,258.054 1471.33,258.72C1472.93,259.983 1472.77,260.192 1473,262.217C1475.29,282.134 1478.28,342.714 1492.23,358.168C1494.96,361.184 1497.82,362.185 1501.95,360.089C1504.78,358.651 1515.62,345.567 1525.77,325.955C1537.6,303.094 1545.21,277.19 1534.98,265.671C1533.78,264.32 1533.68,264.258 1533.77,262.454C1533.86,260.732 1533.9,260.656 1535.17,259.488Z" style="fill:rgb(0,3,60);"/>
        <path d="M1446.02,412.428C1447.58,411.739 1447.68,411.742 1449.27,412.36C1451.33,413.159 1451.13,413.502 1452.03,415.524C1461.3,436.395 1482.5,476.658 1503.37,468.055C1524.56,459.321 1536.03,408.456 1536.03,408.447C1547.09,363.528 1548.39,308.94 1536.69,273.849C1536.15,272.239 1536.16,272.15 1536.91,270.627C1536.92,270.612 1539.34,268.489 1539.34,268.49C1540.42,268.561 1541.6,268.235 1542.56,268.71C1544.34,269.586 1544.25,269.798 1544.88,271.676C1558.08,310.846 1555.95,374.734 1543.21,420.331C1529.44,469.605 1508.03,484.088 1488.95,477.21C1467.95,469.636 1452.24,436.959 1443.85,418.033C1443.14,416.429 1443.69,415.023 1443.78,414.781C1444.42,413.135 1445.78,412.533 1446.02,412.428Z" style="fill:rgb(0,3,60);"/>
        <path d="M1608.84,267.781C1608.89,267.826 1608.9,267.837 1608.87,267.811C1608.85,267.793 1608.84,267.783 1608.84,267.781ZM1608.84,267.781C1608.6,267.551 1607.47,266.434 1607.29,264.97C1607.29,264.953 1608.15,261.854 1608.16,261.849C1609.1,261.322 1609.91,260.401 1610.99,260.273C1615.76,259.702 1618.76,267.905 1619.08,268.788C1625.75,286.982 1622.12,331.253 1623.8,340.253C1624.36,340.376 1624.4,340.398 1624.42,340.514C1624.57,341.583 1625.13,342.677 1624.87,343.723C1624.17,346.416 1621.69,346.854 1621.31,346.92C1619.52,347.236 1616.48,346.561 1615.55,342.303C1613.53,333.138 1616.8,294.275 1612.11,275.003C1610.66,269.069 1608.87,267.761 1608.84,267.781ZM1618.72,339.038C1618.7,339.013 1618.69,338.988 1618.68,338.963L1618.6,339.007C1618.64,339.017 1618.68,339.028 1618.72,339.038Z" style="fill:rgb(0,3,60);"/>
        <path d="M1599.78,243.275C1598.23,244.067 1598.14,244.073 1596.49,243.547C1595.45,243.217 1594.53,242.384 1593.99,241.44C1593.14,239.963 1584.53,225.029 1584.33,222.452C1584.24,221.366 1583.74,220.23 1584.08,219.194C1584.08,219.178 1586.19,216.695 1586.2,216.694C1587.29,216.608 1588.42,216.109 1589.46,216.444C1590.49,216.779 1591.41,217.612 1591.95,218.554C1592.81,220.028 1601.5,234.986 1601.69,237.503C1601.77,238.59 1602.27,239.729 1601.93,240.764C1601.39,242.414 1601.33,242.484 1599.78,243.275Z" style="fill:rgb(0,3,60);"/>
        <path d="M1661.56,308.161C1663.73,296.272 1666.93,282.608 1671.48,271.164C1676.16,259.413 1681.13,254.271 1682.3,253.057C1691.18,243.874 1702.34,244.53 1712.57,254.57C1730.14,271.818 1719.97,300.097 1728.98,319.973C1734.04,331.121 1746.4,343.265 1787.05,346.466C1788.53,346.582 1788.54,346.526 1788.65,346.584C1789.62,347.068 1790.83,347.223 1791.54,348.037C1791.55,348.05 1792.58,351.111 1792.58,351.119C1792.09,352.083 1791.94,353.302 1791.12,354.009C1790.31,354.717 1789.11,354.811 1788.06,355.044C1787.87,355.086 1783.18,354.659 1782.76,354.621C1727.34,349.567 1718.1,326.8 1715.88,302.407C1714.28,284.782 1716.18,267.525 1702.17,258.273C1697.03,254.881 1692.56,255.188 1687.5,261.79C1677.24,275.16 1670.42,307.778 1667.23,332.465C1666.47,338.314 1666.65,338.368 1666.15,339.407C1665.13,341.557 1662.51,342.569 1660.31,341.662C1659.98,341.527 1657.99,340.709 1657.55,338.215C1655.85,328.566 1648.99,284.206 1647.15,275.581C1646.11,270.676 1644.92,267.366 1644.93,267.26C1645.03,266.188 1644.73,264.998 1645.24,264.046C1645.24,264.031 1647.72,261.966 1647.73,261.967C1648.8,262.065 1649.99,261.769 1650.94,262.269C1651.89,262.769 1652.41,263.855 1653.02,264.743C1653.13,264.913 1654.09,268.262 1654.17,268.57C1656.11,275.357 1656.78,280.436 1661.56,308.161Z" style="fill:rgb(0,3,60);"/>
        <path d="M1848.67,306.842C1842.82,320.991 1833.16,327.331 1830.78,328.939C1803.7,347.186 1781.6,322.498 1781.83,292.157C1782.01,268.679 1796.76,244.028 1831.88,245.105C1832.73,243.453 1834.59,242.482 1836.38,242.687C1836.67,242.721 1838.39,242.918 1839.54,244.584C1839.54,244.585 1839.79,245.017 1840.21,245.797C1841.12,245.937 1841.45,246.169 1842.34,247.32C1842.35,247.334 1843.21,250.444 1843.2,250.451C1843.09,250.646 1842.99,250.852 1842.9,251.063C1844.22,253.782 1845.77,257.159 1847.22,260.805C1851.67,272.04 1852.97,279.912 1853.01,285.919C1864.81,330.031 1876.26,400.861 1846.48,450.179C1835.47,468.414 1822.02,468.429 1811.01,455.655C1800.35,443.289 1792.77,420.497 1790.06,411.782C1789.95,411.438 1789.71,410.646 1789.71,410.645C1789.81,409.569 1789.52,408.371 1790.03,407.417C1790.04,407.402 1792.54,405.344 1792.55,405.345C1793.63,405.452 1794.82,405.161 1795.78,405.67C1797.78,406.739 1797.5,407.086 1798.18,409.251C1803.3,425.668 1814.14,450.04 1824.33,454.005C1828.43,455.602 1833.54,453.99 1841.8,437.73C1861.79,398.379 1857.13,346.365 1848.67,306.842ZM1833.49,253.658C1789.78,251.173 1784.38,292.616 1795.22,313.7C1800.19,323.374 1810.18,332.018 1825.39,322.054C1828.13,320.26 1839.88,312.689 1843.41,293.697C1843.73,291.948 1844.03,290.086 1844.14,287.94C1840,272.313 1835.81,260.111 1833.49,253.658Z" style="fill:rgb(0,3,60);"/>
        <path d="M1890.04,342.575C1888.39,342.111 1888.33,342.05 1887.49,340.559C1886.96,339.616 1887.1,338.421 1887.1,337.34C1887.1,336.798 1895.57,309.876 1899.2,277.077C1907.57,201.66 1883.57,165.306 1886.35,129.382C1886.49,127.641 1887.63,126.666 1887.83,126.499C1887.85,126.488 1890.91,125.499 1890.92,125.503C1891.87,125.993 1893.08,126.163 1893.78,126.981C1895.18,128.629 1894.85,128.831 1894.71,130.988C1892.03,171.725 1928.51,220.287 1895.68,338.232C1895.67,338.244 1895.28,339.646 1895.28,339.646C1893.43,341.993 1893.49,342.061 1893.27,342.188C1891.73,343.051 1890.29,342.646 1890.04,342.575Z" style="fill:rgb(0,3,60);"/>
        <path d="M1997.24,292.727C1993.78,306.153 1988.33,320.097 1979.87,327.199C1975.62,330.766 1967.52,335.188 1956.24,329.094C1947.93,324.609 1943.68,307.86 1943.9,267.332C1943.9,266.531 1943.95,257.355 1943.97,257.317C1944.37,256.322 1944.43,255.098 1945.19,254.333C1945.2,254.321 1948.17,253.069 1948.18,253.072C1949.17,253.477 1950.39,253.54 1951.16,254.295C1952.58,255.694 1952.42,255.87 1952.42,257.864C1952.47,266.95 1951.39,309.183 1959.29,320.112L1959.31,320.132C1959.82,320.771 1959.99,321.118 1962.06,321.996C1966.03,323.683 1973.32,325.535 1980.86,310.858C1987.49,297.936 1991.13,278.177 1992.55,265.722C1992.56,265.602 1992.67,264.615 1992.79,264.23C1993.31,262.43 1994.97,261.027 1996.83,260.808C1998.69,260.589 2000.63,261.569 2001.55,263.199C2001.62,263.31 2001.92,263.84 2002.1,264.698C2002.17,265.013 2009.44,303.565 2013.7,344.276C2023.91,441.932 2009.25,459.7 2003,466.449C1988.32,482.296 1969.17,476.087 1951.82,453.342C1949.55,450.355 1948,447.954 1947.75,447.583C1946.78,446.11 1947.09,444.617 1947.14,444.36C1947.15,444.343 1948.99,441.648 1948.99,441.647C1950.06,441.447 1951.14,440.828 1952.2,441.05C1954.29,441.487 1954.18,441.811 1955.37,443.588C1957.58,446.897 1975.06,472.466 1990.35,465.304C1991.15,464.93 1994.8,463.222 1998.63,458.045C2004.44,450.208 2008.89,432.201 2008.12,396.687C2007.35,360.884 2001.45,318.833 1997.24,292.727Z" style="fill:rgb(0,3,60);"/>
        <path d="M1055.32,658.613C1055.65,658.431 1056.08,658.252 1056.68,657.972C1105.4,635.433 1119.02,669.796 1121.15,675.168C1136.47,713.792 1112.8,784.946 1067.61,787.918C1038.62,789.825 1014.81,759.63 1008.47,724.722C1004.58,703.323 1007.64,675.107 1029.5,663.493C1038,658.981 1047.32,658.135 1055.32,658.613ZM1071.36,661.424C1071.67,661.669 1071.9,662.041 1072.32,662.716C1072.33,662.73 1072.86,665.909 1072.85,665.916C1072.23,666.789 1071.88,667.964 1070.97,668.531C1069.08,669.701 1068.92,669.306 1066.76,668.836C1021.4,658.986 1012.8,693.152 1018.26,721.743C1022.71,745.103 1035.57,765.5 1050.35,773.572C1053.4,775.239 1064.05,780.89 1078.32,774.929C1112.34,760.718 1127.66,695.483 1108.04,669.537C1098.32,656.678 1083.15,657.861 1071.36,661.424Z" style="fill:rgb(0,3,60);"/>
        <path d="M1216.29,876.291C1216.79,876.186 1217.18,876.107 1217.18,876.108C1218.08,876.695 1219.27,876.989 1219.87,877.875C1220.48,878.762 1220.46,879.956 1220.55,881.027C1220.59,881.557 1220.35,882.07 1220.25,882.594C1218.6,892.074 1218.64,892.083 1218.46,892.586C1217.66,894.776 1215.15,895.973 1212.94,895.223C1210.67,894.456 1210.12,892.316 1210.04,891.979C1209.88,891.358 1209.94,891.343 1208.16,884.199C1208.01,883.596 1206.54,877.733 1206.33,876.648C1190.46,796.644 1188.99,757.679 1187.74,724.43C1186.76,698.122 1185.81,682.219 1175.08,653.472C1174.49,651.88 1174.49,651.789 1175.19,650.24C1175.2,650.225 1177.55,648.02 1177.56,648.021C1178.63,648.056 1179.8,647.69 1180.78,648.134C1182.7,649.003 1182.55,649.285 1183.29,651.262C1204.48,707.618 1188.81,720.341 1207.51,829.528C1212.33,857.619 1215.37,871.108 1216.03,874.685C1216.1,875.048 1216.12,875.239 1216.29,876.291Z" style="fill:rgb(0,3,60);"/>
        <path d="M1174.53,744.503C1175.36,743.004 1175.42,742.946 1177.07,742.461C1179.44,741.76 1179.42,742.483 1181.69,743.464C1193.15,748.415 1210.81,742.901 1224.57,729.693C1232.51,722.066 1239.84,710.091 1238.31,696.209C1233.81,655.299 1194.06,645.424 1182.81,688.507C1182.31,690.42 1182.43,690.627 1180.73,691.643C1180.72,691.652 1177.52,692.128 1177.51,692.123C1176.64,691.479 1175.47,691.112 1174.92,690.187C1173.88,688.462 1174.09,688.33 1174.59,686.381C1187.87,634.336 1241.32,643.984 1247.57,695.136C1250.15,716.277 1236.75,734.015 1223.42,743.255C1208.92,753.314 1190.25,757.67 1176.57,750.465C1174.88,749.579 1174.73,749.572 1174.19,747.749C1174.12,747.499 1173.68,746.037 1174.53,744.503Z" style="fill:rgb(0,3,60);"/>
        <path d="M1316.4,759.733C1317.28,759.035 1319.66,756.388 1322.99,746.574C1327.18,734.199 1330.44,717.517 1330.5,717.432C1331.11,716.544 1331.43,715.358 1332.33,714.769C1332.35,714.76 1335.52,714.165 1335.53,714.17C1336.42,714.779 1337.6,715.101 1338.19,716.004C1339.38,717.827 1339.05,717.988 1338.6,720.119C1330.27,759.456 1323.75,767.334 1317.5,768.279C1309.78,769.448 1305.79,759.054 1304.06,754.134C1289.73,713.314 1283.39,580.391 1284.3,573.243C1284.69,570.123 1287.38,568.989 1289.36,569.36C1290.1,569.5 1290.9,569.966 1290.93,570.002C1291.53,570.894 1292.51,571.628 1292.72,572.682C1292.72,572.692 1292.57,573.477 1292.42,574.265C1292.54,574.278 1292.63,574.287 1292.69,574.295C1292.07,587.613 1299.68,730.836 1314.73,757.483C1315.5,758.839 1316.06,759.447 1316.4,759.733ZM1286.88,576.916C1286.68,576.956 1286.47,576.999 1286.25,577.044L1286.7,577.272C1286.77,577.149 1286.83,577.031 1286.88,576.916Z" style="fill:rgb(0,3,60);"/>
        <path d="M1333.64,645.716C1334.29,647.329 1334.29,647.42 1333.63,649.028C1333.22,650.031 1332.33,650.905 1331.33,651.331C1326.98,653.193 1279.47,673.513 1276.45,673.483C1275.37,673.473 1274.2,673.869 1273.2,673.448C1273.19,673.441 1270.91,671.135 1270.91,671.126C1270.92,670.046 1270.53,668.88 1270.95,667.885C1271.37,666.889 1272.26,666.028 1273.25,665.6C1277.6,663.727 1325.18,643.243 1328.08,643.289C1329.16,643.305 1330.33,642.91 1331.33,643.343C1332.92,644.037 1332.98,644.103 1333.64,645.716Z" style="fill:rgb(0,3,60);"/>
        <path d="M1374.25,739.59C1374.5,740.029 1374.69,740.482 1374.71,740.976C1374.81,743.026 1374.55,743.04 1373.15,744.544C1370.91,746.957 1368.98,746.497 1367.65,745.966C1366.58,745.537 1365.93,744.55 1365.83,744.389C1364.9,742.964 1365.21,741.206 1365.26,740.929C1365.8,737.769 1373.61,714.027 1355.27,647.951C1354.68,645.825 1354.32,645.684 1355.4,643.761C1355.41,643.747 1357.96,641.747 1357.97,641.748C1359.05,641.879 1360.25,641.617 1361.19,642.148C1363.12,643.234 1362.88,643.542 1363.47,645.675C1379.53,703.501 1376.11,730.286 1374.25,739.59Z" style="fill:rgb(0,3,60);"/>
        <path d="M1372.41,600.443C1372.19,600.87 1370.74,603.586 1366.6,602.13C1366.14,601.969 1362.17,600.572 1361.16,599.369C1360.45,598.525 1359.37,597.887 1359.04,596.834C1359.04,596.819 1359.38,593.489 1359.38,593.483C1360.24,592.771 1360.9,591.677 1361.97,591.352C1363.02,591.031 1364.23,591.3 1365.25,591.696C1365.71,591.872 1369.47,593.323 1370.58,594.674C1371.28,595.529 1372.34,596.188 1372.67,597.241C1373.19,598.853 1373.21,598.949 1372.41,600.443Z" style="fill:rgb(0,3,60);"/>
        <path d="M1510.08,642.404C1506.53,643.179 1497.42,654.252 1484.24,684.692C1480.03,694.408 1479.9,695.881 1478.16,697.7C1475.88,700.068 1471.42,700.72 1468.83,695.363C1465.4,688.276 1462.28,664.188 1453.92,657.427C1453.79,657.32 1447.88,653.056 1442.91,651.494C1438.31,650.046 1435.34,650.82 1432.45,656.988C1426.64,669.407 1424.17,698.83 1419.49,741.611C1419.34,742.931 1419.21,744.253 1419.05,745.571C1418.66,748.746 1415.18,750.256 1412.66,748.742C1412.38,748.574 1410.7,747.566 1410.6,745.233C1410.5,742.732 1408.36,662.299 1406.09,650.341C1405.77,648.683 1405.77,648.683 1405.78,648.645C1406.02,647.597 1405.95,646.38 1406.6,645.522C1406.61,645.508 1409.4,643.878 1409.4,643.88C1410.44,644.153 1411.66,644.058 1412.52,644.707C1414.22,645.999 1413.92,646.273 1414.34,648.371C1414.81,650.766 1415.74,656.369 1417.07,687.275C1420.73,659.922 1424.96,645.803 1435.59,642.894C1441.57,641.256 1448.69,643.624 1458.13,650.006C1467.94,656.634 1471.75,675.294 1474.56,685.795C1475.92,682.517 1477.85,677.995 1480.49,672.316C1496.4,638.082 1504.64,634.573 1508.95,633.989C1516.5,632.964 1519.43,641.607 1519.49,641.743C1521.63,647.061 1522.36,654.22 1525.02,673.659C1528.66,700.224 1531.06,709.804 1556.26,720.214C1563.06,723.025 1570.15,725.27 1570.18,725.295C1571,726.001 1572.14,726.453 1572.63,727.417C1572.64,727.432 1572.88,730.656 1572.87,730.663C1572.17,731.481 1571.72,732.625 1570.75,733.111C1569.79,733.598 1568.6,733.395 1567.53,733.361C1567.52,733.361 1564.74,732.449 1561.93,731.456C1527.78,719.389 1521.66,708.176 1517.59,681.662C1515.94,670.848 1513.94,653.117 1512.49,647.615C1512.37,647.175 1511.95,645.578 1511.32,644.237C1510.74,642.987 1510.26,642.55 1510.08,642.404Z" style="fill:rgb(0,3,60);"/>
        <path d="M1579.68,633C1579.87,633.066 1580.09,633.133 1580.47,633.266C1579.05,640.255 1585.64,676.022 1593.25,710.302C1593.28,710.427 1593.57,711.766 1593.54,711.874C1593.22,712.918 1593.18,714.149 1592.46,714.966C1592.45,714.972 1589.52,716.405 1589.52,716.402C1588.28,713.552 1587.32,714.428 1584.99,712.364L1585.04,712.701C1584.32,709.559 1570.97,649.874 1571.87,634.079C1572.01,631.617 1572.5,628.957 1574.72,627.487C1576.24,626.478 1577.76,626.832 1578.02,626.893C1578.04,626.897 1580.44,628.613 1580.65,628.763C1580.86,628.912 1580.65,628.979 1579.68,633ZM1579.32,634.51C1579.31,634.538 1579.31,634.565 1579.3,634.593L1579.35,634.559L1579.32,634.51Z" style="fill:rgb(0,3,60);"/>
        <path d="M1589.14,590.68C1588.02,591.951 1587.93,591.985 1586.23,592.085C1584.29,592.199 1584.25,591.995 1582.8,590.698C1575.28,583.965 1575.86,581.472 1575.25,575.156C1575.02,572.747 1574.87,572.757 1574.92,572.553C1575.18,571.495 1575.07,570.259 1575.72,569.381C1575.73,569.368 1578.51,567.678 1578.52,567.68C1581.99,568.537 1582.95,568.154 1583.45,571.698C1584.41,578.5 1583.29,579.028 1585.96,581.962C1587.15,583.27 1588.8,584.708 1588.8,584.72C1590.09,587.399 1590.18,587.368 1590.2,587.626C1590.3,589.322 1590.27,589.409 1589.14,590.68Z" style="fill:rgb(0,3,60);"/>
        <path d="M1636.92,715.837C1641.34,717.147 1656.82,710.977 1668,701.749C1676.34,694.865 1676.24,691.178 1676.24,691.151C1677.69,679.579 1647.56,667.707 1635.61,661.442C1628.98,657.969 1626.99,656.055 1625.99,651.941C1625.04,648.015 1623.78,637.287 1647.7,616.312C1651.82,612.703 1655.19,610.127 1655.71,609.724C1657.07,608.678 1657.16,608.659 1658.86,608.879C1658.88,608.881 1661.69,610.498 1661.69,610.507C1662.62,613.942 1663.37,614.572 1660.55,616.752C1653.93,621.88 1644.79,629.901 1639.14,637.569C1632.71,646.301 1634.16,649.936 1634.57,650.765C1639.16,655.254 1667.62,664.802 1679.07,677.385C1689.6,688.958 1683.1,698.102 1680.24,701.641C1670.89,713.173 1646.14,726.898 1635.02,724.188C1631.33,723.291 1629.3,720.794 1628.67,718.015C1628.23,716.086 1629.11,714.781 1629.26,714.547C1629.27,714.533 1631.98,712.726 1631.99,712.728C1633.06,712.943 1634.28,712.777 1635.18,713.38C1636.23,714.084 1636.74,715.291 1636.92,715.837ZM1637.01,716.095C1637.01,716.127 1637.01,716.131 1637.01,716.098C1637.01,716.091 1637,716.074 1637,716.068C1637,716.079 1637.01,716.087 1637.01,716.095Z" style="fill:rgb(0,3,60);"/>
        <path d="M1760.73,692.58C1762.28,693.327 1762.34,693.401 1762.91,695.027C1763.62,697.074 1763.28,697.153 1762.33,699.105C1757.47,709.131 1748.46,726.161 1736.75,723.959C1732.24,723.112 1729.26,719.587 1728.07,717.071C1721.52,703.243 1718.44,691.55 1717.79,689.197C1716.2,683.441 1705.44,646.493 1711.64,596.97C1712.77,587.89 1714.12,581.516 1714.59,579.229C1714.93,577.561 1714.98,577.486 1716.4,576.546C1716.42,576.537 1719.58,575.92 1719.58,575.925C1720.48,576.526 1721.66,576.838 1722.26,577.735C1723.43,579.501 1723.12,579.657 1722.71,581.737C1716.62,612.512 1716.65,650.479 1727.93,687.837C1731.46,699.545 1736.69,712.62 1737.18,713.385C1738.3,715.117 1739.43,714.853 1740.72,714.172C1744.77,712.033 1750.08,704.717 1755.02,694.571C1755.77,693.024 1755.84,692.967 1757.46,692.4C1759.09,691.833 1759.18,691.834 1760.73,692.58Z" style="fill:rgb(0,3,60);"/>
        <path d="M1765.73,626.036C1766.38,627.617 1766.37,627.709 1765.72,629.289C1765.3,630.288 1764.3,630.956 1763.43,631.589C1763.15,631.789 1721.36,648.703 1705.31,657.255C1703.32,658.315 1703.26,658.714 1701.1,658.059C1701.08,658.054 1698.54,655.967 1698.54,655.958C1698.43,654.863 1697.9,653.726 1698.22,652.674C1698.88,650.502 1699.25,650.678 1701.26,649.617C1710.42,644.764 1727.5,637.197 1760.17,623.731C1761.75,623.079 1761.84,623.084 1763.42,623.739C1765,624.395 1765.07,624.456 1765.73,626.036Z" style="fill:rgb(0,3,60);"/>
        <path d="M1802.19,711.916C1802.78,711.777 1803.24,711.855 1804.32,712.319C1804.33,712.326 1806.59,714.659 1806.59,714.668C1806.58,715.75 1806.96,716.922 1806.53,717.916C1805.45,720.425 1802.13,720.828 1801.67,720.883C1800.22,721.06 1796.67,720.998 1794.73,716.418C1792.07,710.177 1791.53,694.011 1786.69,632.666C1786.56,630.965 1786.59,630.879 1787.7,629.58C1787.71,629.567 1790.59,628.098 1790.6,628.1C1791.62,628.434 1792.85,628.407 1793.67,629.107C1794.5,629.807 1794.87,630.944 1795.15,631.986C1795.32,632.619 1799.32,688.509 1800.67,701.653C1801.29,707.61 1801.79,710.423 1802.19,711.916Z" style="fill:rgb(0,3,60);"/>
        <path d="M1799.81,585.136C1798.44,586.159 1798.35,586.178 1796.66,585.936C1794.66,585.649 1794.71,585.379 1793.48,583.766C1789.36,578.376 1789.04,578.585 1785.76,572.655C1784.9,571.107 1785.33,569.632 1785.41,569.38C1785.41,569.363 1787.47,566.812 1787.48,566.811C1788.57,566.696 1789.69,566.165 1790.74,566.473C1792.95,567.124 1792.75,567.526 1793.86,569.549C1796.28,573.951 1796.59,573.748 1800.65,579.195C1801.68,580.564 1801.7,580.653 1801.46,582.344C1801.21,584.088 1800.02,584.98 1799.81,585.136Z" style="fill:rgb(0,3,60);"/>
        <path d="M1871.13,706.503C1873.11,707.508 1882.64,711.41 1911.83,699.152C1921.87,694.932 1929.65,690.69 1929.68,690.687C1930.81,690.584 1931.98,690.047 1933.06,690.382C1933.08,690.387 1935.69,692.555 1935.69,692.564C1935.79,693.69 1936.33,694.864 1935.99,695.945C1935.37,697.945 1935.13,697.88 1933.27,698.85C1918.5,706.579 1897.24,715.612 1881.85,716.581C1878.97,716.762 1872.26,717.039 1866.69,714.069C1866.6,714.019 1865.45,713.765 1862.35,709.581C1851.48,694.885 1834.69,654.546 1895.57,615.788C1897.46,614.589 1897.49,614.201 1899.67,614.696C1899.69,614.7 1902.36,616.591 1902.36,616.6C1902.55,617.677 1903.15,618.766 1902.9,619.83C1902.41,621.985 1902.06,621.848 1900.19,623.037C1850.8,654.566 1858.04,684.989 1866.4,699.752C1868.59,703.619 1870.42,705.731 1871.13,706.503Z" style="fill:rgb(0,3,60);"/>
    </g>
</svg>
