<?xml version="1.0" encoding="UTF-8" standalone="no"?>
<!DOCTYPE svg PUBLIC "-//W3C//DTD SVG 1.1//EN" "http://www.w3.org/Graphics/SVG/1.1/DTD/svg11.dtd">
<svg width="100%" height="100%" viewBox="0 0 3470 1838" version="1.1" xmlns="http://www.w3.org/2000/svg" xmlns:xlink="http://www.w3.org/1999/xlink" xml:space="preserve" xmlns:serif="http://www.serif.com/" style="fill-rule:evenodd;clip-rule:evenodd;stroke-linecap:round;stroke-linejoin:round;stroke-miterlimit:1.5;">
    <g id="Artboard1" transform="matrix(1.42436,0,0,1.63301,0,0)">
        <rect x="0" y="0" width="2436" height="1125" style="fill:none;"/>
        <g transform="matrix(0.702069,0,0,0.612365,0,0)">
            <path d="M688.599,603.297C688.599,603.297 695.528,537.385 719.787,474.051C734.741,435.011 760.191,405.425 783.002,367.597C823.946,299.698 885.615,261.137 920.763,248.729C957.297,235.831 1029.14,235.414 1082.62,272.719C1155.74,323.735 1207.58,420.077 1207.58,420.077C1207.58,420.077 1260.37,338.797 1345.38,279.401C1418.05,228.628 1519.37,198.652 1574.95,195.93C1628.76,193.293 1740.13,195.425 1808.59,237.539C1841.98,258.082 1877.83,275.165 1897.18,300.52C1927.04,339.663 1931.07,384.634 1931.07,384.634C1931.07,384.634 2033.49,308.379 2155.46,271.82C2245.26,244.903 2360.58,237.166 2403.83,243.495C2473.5,253.69 2555.9,253.09 2607.13,295.05C2628.92,312.899 2661.3,336.125 2678.85,376.256C2702.55,430.468 2708.14,501.654 2708.14,501.654C2708.14,501.654 2779.54,453.155 2857.32,440.614C2915.02,431.31 2972.05,443.378 3008.24,453.184C3046.76,463.62 3105.46,487.994 3143.96,525.323C3190.41,570.355 3213.36,628.497 3213.36,628.497C3213.36,628.497 3246.02,663.059 3259.89,714.204C3273.7,765.123 3268.76,832.543 3251.95,869.486C3236.09,904.366 3206.44,978.501 3154.52,1025.72C3083.18,1090.6 2987.37,1125.3 2987.37,1125.3C2987.37,1125.3 3128.4,1124.23 3210.87,1181.73C3271.58,1224.06 3279.17,1321.96 3284.66,1353.65C3290.98,1390.06 3250.6,1457.9 3195.66,1502.85C3137.83,1550.16 3065.11,1573.7 3065.11,1573.7C3065.11,1573.7 2932.99,1618.44 2825.1,1628.43C2746.19,1635.73 2691.65,1611.5 2654.41,1602.06C2589.48,1585.62 2536.04,1439.69 2536.04,1439.69C2536.04,1439.69 2510.11,1503.11 2457.96,1558C2421.36,1596.52 2362.66,1626.92 2330.49,1645.08C2252.5,1689.12 2068.05,1703.92 2068.05,1703.92C2068.05,1703.92 1965.23,1709.31 1865.68,1674.41C1803.07,1652.46 1739.92,1591.24 1710.2,1575.8C1665.01,1552.31 1606.15,1463.91 1606.15,1463.91C1606.15,1463.91 1593.09,1525.65 1549.07,1583.95C1510.6,1634.88 1443.64,1681.14 1404.76,1707.96C1366.51,1734.35 1296.23,1771.24 1235.92,1788.89C1164.8,1809.71 1105.91,1809.02 1105.91,1809.02C1105.91,1809.02 1035.8,1793.51 980.097,1747.26C943.799,1717.12 918.265,1659.85 906.268,1633.75C875.861,1567.58 923.469,1412.03 923.469,1412.03C923.469,1412.03 907.839,1445.28 873.547,1471.42C830.253,1504.43 763.301,1532.98 728.321,1545.8C671.666,1566.56 547.35,1549.85 547.35,1549.85C547.35,1549.85 497.829,1549.59 456.436,1522.19C424.353,1500.95 400.091,1455.14 388.918,1432.98C363.328,1382.23 393.811,1245.32 393.811,1245.32C393.811,1245.32 333.902,1245.65 286.841,1195.75C253.192,1160.07 231.144,1078.77 219.166,1044.75C190.436,963.161 221.431,755.779 221.431,755.779C221.431,755.779 242.754,678.277 287.228,617.624C316.326,577.94 364.042,549.245 391.907,541.06C419.946,532.824 475.9,523.601 520.731,541.829C588.549,569.403 644.157,631.603 644.157,631.603L688.599,603.297Z" style="fill:white;stroke:rgb(0,4,53);stroke-width:1px;"/>
        </g>
        <g transform="matrix(0.702069,0,0,0.612365,0,0)">
            <path d="M377.939,1261.5C349.064,1257.74 289.725,1241.54 243.625,1157.31C160.996,1006.33 173.938,730.076 291.648,597.177C291.724,597.091 300.43,587.412 312.939,576.75C364.655,532.67 425.886,517.514 493.097,529.164C588.447,545.691 606.38,607.15 638.057,623.225C639.393,622.712 641.518,622.6 643.172,624.899C643.316,625.1 643.453,625.301 643.582,625.501C645.303,626.048 647.074,626.462 648.907,626.73C649.779,626.858 652.449,626.831 653.75,629.248C654.211,630.104 655.057,632.538 652.63,634.976C651.549,636.062 646.992,639.403 644.232,639.921C642.164,640.31 638.606,639.709 637.836,634.876C637.661,633.773 637.583,632.988 637.447,632.299C625.793,627.58 616.414,618.064 604.714,605.324C580.982,579.484 549.87,543.306 471.417,538.382C403.188,534.1 348.578,561.252 307.816,609.208C301.153,617.047 271.944,648.015 247.095,711.499C177.345,889.7 208.423,1151.7 329.137,1224.59C355.261,1240.36 379.334,1242.94 390.46,1243.6C391.644,1243.67 391.651,1243.6 392.808,1243.86C396.943,1244.81 398.703,1247.97 399.004,1248.51C399.248,1248.95 400.617,1251.41 400.077,1254.68C399.878,1255.89 398.913,1258.31 397.07,1264.07C385.003,1301.76 360.359,1403.31 419.204,1475.02C434.576,1493.75 467.437,1525.33 538.569,1542.09C651.085,1568.61 832.321,1522.08 916.749,1414.7C917.504,1413.74 917.45,1413.69 918.355,1412.87C918.823,1412.45 921.563,1409.97 925.861,1410.48C926.487,1410.55 930.158,1410.98 932.603,1414.55C934.513,1417.34 934.278,1420.21 934.237,1420.71C933.844,1425.5 921.79,1460.36 914.398,1501.52C887.804,1649.58 949.157,1713.49 993.972,1743.67C1056.95,1786.09 1118.9,1807.29 1185.28,1798.04C1219.47,1793.28 1248.88,1781.63 1281.5,1767.44C1489.98,1676.71 1560.07,1567.98 1584.71,1514.54C1590.23,1502.57 1593.96,1491.15 1594.64,1489.07C1599.05,1475.54 1600.33,1467.27 1601,1465.7C1601.48,1464.59 1601.41,1464.55 1602.15,1463.6C1604.57,1460.52 1607.92,1460.77 1608.47,1460.81C1610.3,1460.95 1611.61,1461.78 1611.85,1461.93C1612.81,1462.54 1618.56,1467.69 1625.68,1474.91C1671.84,1521.71 1730.06,1606.38 1838.03,1655.7C1865.27,1668.14 1922.33,1692.11 2011.38,1694.57C2012.43,1694.6 2035.56,1695.59 2078.45,1692.93C2165.91,1687.51 2327.96,1666.82 2439.9,1564.77C2492.27,1517.03 2513.13,1469.92 2521.25,1450.52C2521.53,1449.86 2521.78,1449.18 2522.09,1448.52C2522.77,1447.02 2523.5,1446.21 2523.65,1446.03C2524.03,1445.6 2526.26,1443.1 2530.19,1443.07C2530.76,1443.07 2534.11,1443.04 2536.77,1445.92C2537.31,1446.5 2537.59,1446.81 2542.21,1454.15C2593.74,1536.09 2617.74,1625.42 2797.84,1624.95C2807.95,1624.92 2850.68,1624.88 2917.86,1614.3C3094.28,1586.51 3300.04,1456.09 3274.02,1308.01C3264.98,1256.53 3235.6,1176.55 3119.03,1148.86C3055.41,1133.74 2994.86,1141.4 2989.14,1140.61C2988.61,1140.54 2985.5,1140.11 2983.45,1137.04C2983.16,1136.6 2981.41,1133.98 2982.35,1130.42C2982.49,1129.9 2983.29,1126.86 2986.57,1125.2C2987.72,1124.62 2991.23,1123.76 2999.57,1120.84C3161.98,1064.1 3311.01,864.303 3248.38,696.117C3177.74,506.418 2958.93,363.725 2718.54,502.748C2718.06,503.023 2717.6,503.315 2717.12,503.574C2715.91,504.221 2715.04,504.402 2714.86,504.441C2714.3,504.556 2710.98,505.251 2708.1,502.539C2707.96,502.407 2707.21,501.699 2706.62,500.62C2705.03,497.665 2703.53,486.694 2697.79,463.672C2672.81,363.576 2633.88,320.516 2619.55,306.003C2597.09,283.265 2574.22,271.629 2553.99,265.691C2518.46,255.256 2141.13,190.33 1946.63,389.126C1946.52,389.241 1945.64,390.145 1945.16,390.49C1944.73,390.813 1942.03,392.786 1938.4,391.416C1936.09,390.548 1935,388.763 1934.81,388.445C1934.16,387.389 1932.37,382.305 1927.81,372.169C1873.93,252.44 1777.44,202.488 1598.25,202.929C1359.79,203.516 1233.82,388.906 1213.75,418.179C1214.6,419.716 1215.4,421.145 1216.42,422.928L1215.92,423.25C1216.3,423.518 1216.68,423.791 1217.05,424.07C1217.35,424.302 1217.34,424.785 1217.44,425.157C1217.58,425.67 1218.42,428.831 1215.82,431.602C1215.45,431.99 1213.21,434.374 1209.49,433.62C1207.13,433.144 1205.82,431.573 1205.59,431.294C1203.45,428.721 1190.78,403.31 1177.06,380.192C1130.76,302.197 1048.56,206.313 902.324,259.114C888.811,263.993 877.94,270.384 875.928,271.567C778.049,329.111 709.664,500.333 693.018,578.851C687.579,604.51 689.88,610.106 689.872,610.17C689.745,611.222 690.004,612.4 689.488,613.326C689.48,613.34 687.001,615.307 686.992,615.306C685.94,615.183 684.763,615.445 683.839,614.93C682.137,613.981 682.187,613.804 681.719,611.91C677.375,594.319 695.042,524.975 726.209,453.666C750.477,398.139 806.223,287.88 887.73,250.531C894.645,247.363 920.472,237.279 950.947,232.817C1100.18,210.97 1174.67,345.745 1206.45,404.7C1233.85,365.288 1362.62,189.714 1598.2,188.938C1697.83,188.61 1775.02,203.638 1833.88,239.619C1893.01,275.767 1924.15,327.617 1943.42,372.092C1985.45,331.219 2082.24,254.49 2281.52,236.352C2417.72,223.955 2537.34,245.161 2558.96,251.607C2675,286.208 2709.24,443.412 2718.36,485.402C2760.5,461.917 2866.23,409.899 2994.72,441.728C3120.73,472.942 3219.34,573.181 3263.19,690.596C3325.18,856.581 3194.11,1049.93 3037.53,1122.98C3102.2,1123.81 3210,1138.1 3263.55,1229.33C3268.42,1237.63 3283.52,1264.07 3290.69,1306.06C3318.06,1466.29 3103.25,1602.84 2919.48,1631.54C2693.46,1666.84 2619.78,1610.66 2570.1,1534.99C2555.83,1513.25 2545.73,1493.79 2531.68,1470.8C2503.21,1532 2400.92,1701.93 2043.9,1712.57C1950.03,1715.36 1881.3,1695.55 1831.45,1672.62C1814.75,1664.94 1799.31,1655.86 1796.59,1654.26C1765.58,1636.02 1739.22,1615.2 1716.46,1594.27C1670.82,1552.3 1639.59,1509.92 1611.89,1482.09C1609.49,1490.71 1605.4,1503.34 1598.1,1519.33C1585.45,1547.01 1549.07,1620.03 1441.56,1696.81C1409.4,1719.78 1353.11,1755.89 1266.19,1792.21C1196.9,1821.17 1108.49,1841.97 984.846,1760.38C858.302,1676.87 887.133,1525.11 904.999,1455.88C880.423,1479.4 838.923,1511.26 774.697,1536.1C695.606,1566.7 603.888,1577.6 532.11,1560.16C482.86,1548.2 403.641,1518.48 373.97,1432.09C350.454,1363.62 368.959,1290.48 377.939,1261.5Z" style="fill:rgb(0,4,53);"/>
        </g>
    </g>
</svg>
