<?xml version="1.0" encoding="UTF-8" standalone="no"?>
<!DOCTYPE svg PUBLIC "-//W3C//DTD SVG 1.1//EN" "http://www.w3.org/Graphics/SVG/1.1/DTD/svg11.dtd">
<svg width="100%" height="100%" viewBox="0 0 2436 1125" version="1.1" xmlns="http://www.w3.org/2000/svg" xmlns:xlink="http://www.w3.org/1999/xlink" xml:space="preserve" xmlns:serif="http://www.serif.com/" style="fill-rule:evenodd;clip-rule:evenodd;stroke-linejoin:round;stroke-miterlimit:2;">
    <rect id="Artboard1" x="0" y="0" width="2436" height="1125" style="fill:none;"/>
    <g id="Artboard11" serif:id="Artboard1">
        <path d="M153.213,56.175C153.038,58.046 152.67,62.942 154.815,95.272C156.882,126.429 159.858,158.663 162.266,198.495C162.663,205.073 163.199,212.7 164.191,237.342C164.225,238.178 164.884,258.63 164.949,277.026C164.978,285.162 165.183,315.43 163.479,351.533C159.949,426.297 150.737,459.658 137.058,469.587C134.125,471.717 129.398,469.829 130.115,464.84C130.214,464.15 130.318,463.79 130.469,463.007C130.336,462.575 130.258,462.14 130.322,461.697C130.614,459.699 132.092,458.808 132.342,458.657C133.571,457.916 134.949,457.824 136.136,458.245C143.207,447.918 154.844,416.099 152.791,309.411C152.56,297.428 152.446,289.206 151.771,270.3C151.697,268.244 151.517,259.783 150.736,240.116C150.722,239.765 150.482,230.109 149.946,214.852C149.58,204.448 148.227,150.38 145.78,95.774C144.428,65.614 144.093,56.061 145.303,53.084C146.484,50.176 149.809,49.279 152.2,51.098C153.655,52.205 153.805,53.789 153.831,54.059C153.832,54.071 153.503,55.152 153.233,56.034L153.215,56.163L153.213,56.175ZM147.087,57.698C147.039,57.703 146.989,57.708 146.94,57.713L147.026,57.778C147.046,57.751 147.067,57.725 147.087,57.698Z" style="fill:rgb(0,4,45);"/>
        <path d="M171.112,286.675C171.343,287.284 171.354,287.339 171.251,287.427C170.438,288.133 169.827,289.197 168.806,289.537C166.348,290.356 164.718,288.781 164.462,288.533C163.596,287.696 162.083,285.392 164.084,282.216C170.782,271.588 244.599,215.707 305.123,287.656C309.641,293.027 320.31,306.739 328.615,325.036C347.398,366.417 344.447,409.577 314.086,441.667C306.126,450.081 296.471,456.452 294.803,457.552C278.215,468.497 256.445,476.356 240.166,478.844C178.375,488.286 156.022,433.574 153.716,412.658C153.523,410.901 154.485,409.709 154.651,409.504C154.661,409.491 157.538,407.923 157.547,407.925C158.595,408.236 159.84,408.173 160.691,408.86C162.425,410.26 162.087,410.544 162.39,412.75C164.462,427.82 182.63,474.803 233.104,468.247C235.694,467.911 244.995,466.828 261.542,460.137C289.002,449.032 302.268,434.515 306.014,430.4C334.705,398.88 333.612,355.35 311.19,315.32C295.164,286.708 277.998,275.425 275.277,273.557C227.455,240.721 176.624,279.47 171.243,286.753C171.229,286.746 171.184,286.718 171.112,286.675ZM169.406,281.871L169.452,281.785L169.362,281.737C169.377,281.782 169.392,281.827 169.406,281.871Z" style="fill:rgb(0,4,45);"/>
        <path d="M66.63,562.11C66.375,563.818 66.319,563.893 64.929,564.917C63.332,566.093 63.19,565.962 61.233,565.625C23.607,559.141 5.041,470.281 5.188,372.947C5.299,299.788 16.22,243.975 19.729,226.765C27.549,188.416 51.674,85.062 112.973,22.708C114.365,21.293 114.373,21.06 116.356,21.042C116.373,21.041 119.357,22.243 119.361,22.251C119.78,23.239 120.602,24.145 120.612,25.218C120.63,27.196 120.396,27.208 119.017,28.623C67.98,80.999 38.411,168.678 24.572,260.451C2.626,405.978 21.823,532.998 55.656,554.366C59.784,556.974 62.923,557.16 63.042,557.227C65.664,558.694 65.683,558.72 65.838,558.931C66.859,560.318 66.884,560.406 66.63,562.11Z" style="fill:rgb(0,4,45);"/>
        <path d="M363.732,505.858C363.643,506.833 363.667,507.179 363.66,507.08C363.643,506.822 363.777,508.819 362.631,510.149C362.62,510.162 359.758,511.611 359.749,511.608C356.352,510.487 355.3,510.796 355.207,507.219C354.97,498.021 368.95,447.848 380.737,372.54C392.428,297.839 396.122,241.655 396.505,237.121C401.339,179.976 418.385,110.766 428.586,78.577C432.498,66.234 433.403,65.695 434.121,65.012C435.417,63.78 436.999,63.878 437.266,63.895C437.524,63.911 439.555,64.038 440.174,65.313C440.272,65.516 440.172,65.542 439.865,70.253C440.024,70.348 440.203,70.455 440.41,70.58C436.373,79.017 412.635,159.686 406.773,234.986C405.359,253.144 403.948,289.092 394.655,349.277C388.18,391.208 379.808,430.5 377.716,440.343C370.031,476.486 364.778,497.189 363.734,505.841L363.732,505.858ZM439.808,71.137C439.805,71.186 439.802,71.235 439.799,71.285L439.878,71.212L439.808,71.137Z" style="fill:rgb(0,4,45);"/>
        <path d="M589.576,359.003C583.695,380.955 575.237,401.16 563.408,418.49C527.381,471.269 459.973,445.447 457.866,385.524C457.249,368.004 462.611,348.054 471.62,331.956C498.666,283.625 556.514,269.191 582.063,271.237C576.217,187.648 573.81,104.96 576.982,76.957C577.262,74.491 579.289,72.81 581.389,72.634C581.768,72.602 584.116,72.406 585.715,74.627C586.421,75.608 586.571,76.731 586.597,76.926C586.81,78.517 586.687,78.529 589.638,103.404C597.165,166.866 608.106,255.019 595.766,329.997C601.827,398.896 609.915,457.342 618.54,474.824C619.603,476.978 620.375,477.861 620.731,478.193C621.547,477.992 622.368,477.737 623.153,477.957C623.168,477.961 625.748,479.998 625.749,480.006C625.878,481.088 626.423,482.204 626.129,483.253C625.288,486.25 621.832,486.712 621.362,486.775C614.004,487.761 609.874,477.872 606.989,468.486C600.504,447.394 594.532,406.694 589.576,359.003ZM582.671,279.759C571.819,278.576 548.921,281.27 525.54,293.028C490.566,310.616 472.61,339.171 467.604,369.406C457.288,431.719 521.71,463.51 555.807,413.751C574.788,386.052 582.811,352.566 586.667,328.97C585.214,312.882 583.876,296.339 582.671,279.759ZM591.734,273.484C592.984,232.857 589.73,190.828 585.627,152.315C586.032,168.644 586.732,188.356 587.861,212.083C588.818,232.219 590.004,252.859 591.383,273.312C591.494,273.365 591.611,273.422 591.734,273.484Z" style="fill:rgb(0,4,45);"/>
        <path d="M664.238,559.462C679.669,546.611 701.89,523.189 716.951,482.028C719.01,476.4 731.048,444.84 734.486,394.16C739.545,319.596 723.309,247.504 716.641,227.968C670.47,92.706 667.901,90.46 636.26,50.647C636.12,50.471 634.51,48.445 634.51,48.445C634.215,47.411 633.508,46.411 633.629,45.343C633.631,45.327 635.188,42.51 635.197,42.507C636.229,42.211 637.229,41.505 638.296,41.626C639.364,41.747 640.29,42.498 641.122,43.178C641.324,43.343 649.346,53.492 650.057,54.392C677.402,88.988 682.237,101.649 725.542,224.897C732.049,243.417 755.254,335.119 742.125,425.813C739.155,446.327 734.287,462.715 733.353,465.859C714.989,527.675 681.469,558.919 657.977,575.083C657.869,575.158 656.926,575.807 656.582,575.966C654.54,576.91 652.02,576.058 650.972,574.068C650.841,573.819 650.077,572.369 650.752,570.558C651.227,569.279 651.262,569.293 656.761,554.605C657.361,553.001 657.427,552.937 658.986,552.227C659.001,552.22 662.242,552.108 662.249,552.114C663.04,552.852 664.168,553.35 664.617,554.335C665.065,555.32 664.925,556.514 664.737,557.58C664.606,558.332 664.424,558.957 664.238,559.462Z" style="fill:rgb(0,4,45);"/>
        <path d="M933.287,361.491C932.331,364.366 931.3,367.207 930.189,370.006C899.131,448.244 828.322,434.499 815.825,424.392C785.257,399.67 812.466,316.234 860.379,279.774C889.324,257.749 913.899,261.535 922.916,263.404C924.628,263.758 925.451,265.017 925.592,265.234C925.602,265.248 926.199,268.414 926.194,268.422C924.204,271.331 924.213,272.289 920.754,271.594C853.229,258.043 799.174,365.303 814.83,407.012C816.738,412.096 820.01,416.234 823.108,417.873C837.996,425.748 915.95,437.909 931.337,322.055C931.126,312.174 931.061,301.252 931.174,289.176C931.434,261.25 932.554,239.863 932.563,239.671C932.573,239.47 932.663,237.602 932.762,237.16C933.374,234.423 935.641,233.602 936.011,233.468C938.649,232.513 940.56,233.985 940.872,234.225C941.085,234.389 942.28,235.31 942.712,237.035C942.938,237.936 943.662,248.207 944.028,255.292C945.091,275.823 945.281,302.875 940.9,329.833C941.538,358.359 943.76,386.696 949.339,402.94C951.092,408.044 953.001,411.225 953.863,411.873C958.522,415.374 975.577,411.605 987.567,410.902C990.804,410.712 992.814,410.773 993.233,410.782C995.002,410.821 996.052,411.926 996.233,412.117C996.245,412.129 997.417,415.173 997.413,415.181C996.971,416.174 996.868,417.409 996.08,418.158C994.471,419.687 994.237,419.327 992.017,419.328C975.055,419.336 953.784,427.189 946.012,416.125C942.566,411.22 936.513,399.336 933.287,361.491Z" style="fill:rgb(0,4,45);"/>
        <path d="M1207.2,379.152C1208.62,380.164 1208.66,380.246 1208.94,381.96C1209.12,383.043 1208.56,384.129 1208.2,385.17C1208.15,385.343 1204.69,389.996 1204.38,390.412C1130.66,489.582 1064.63,472.897 1041.45,421.117C1029.17,393.683 1029.22,357.828 1042.09,324.064C1055.14,289.848 1129.83,253.699 1173.19,262.61C1175.19,263.021 1176.71,263.452 1176.9,263.503C1178.6,263.966 1179.35,265.291 1179.48,265.518C1179.48,265.533 1179.88,268.757 1179.87,268.764C1179.21,269.616 1178.81,270.783 1177.86,271.315C1175.98,272.381 1175.84,272.023 1173.74,271.485C1134.96,261.554 1063.22,296.064 1050.5,326.108C1050.44,326.241 1047.61,333.146 1045.2,342.503C1028.05,409.133 1064.11,470.822 1122.66,449.609C1159.49,436.268 1189.68,396.14 1201.18,380.145C1202.19,378.735 1202.28,378.69 1203.99,378.408C1205.7,378.125 1205.79,378.141 1207.2,379.152Z" style="fill:rgb(0,4,45);"/>
        <path d="M1256.18,489.061C1254.64,489.817 1254.55,489.819 1252.92,489.265C1250.71,488.51 1251.01,488.052 1249.9,485.996C1242.6,472.506 1227.78,471.406 1207.85,404.277C1207.44,402.891 1199.25,375.522 1192.89,344.63C1184.49,303.805 1178.53,257.922 1176.18,186.359C1176.01,180.949 1174.4,132.319 1176.21,78.668C1176.22,78.347 1176.34,74.668 1176.35,74.656C1176.8,73.678 1176.91,72.458 1177.69,71.722C1177.7,71.71 1180.71,70.573 1180.72,70.577C1181.7,71.021 1182.92,71.131 1183.65,71.914C1184.39,72.699 1184.57,73.88 1184.8,74.929C1184.95,75.577 1181.43,147.605 1189.82,236.65C1190.04,239.029 1190.96,250.032 1193.52,271.989C1194.15,277.474 1198.07,310.604 1203.65,341.049C1209.93,375.368 1216.4,398.495 1217.77,403.423C1235.84,468.08 1249.78,466.676 1257.89,482.879C1258.78,484.646 1258.97,484.735 1258.33,486.607C1257.78,488.232 1257.72,488.304 1256.18,489.061Z" style="fill:rgb(0,4,45);"/>
        <path d="M996.262,611.817C996.382,611.895 996.512,611.979 996.652,612.068C1004.71,617.186 1005.49,627.621 994.839,638.293C990.22,642.919 981.686,648.242 975.259,645.231C969.767,642.658 970.156,636.236 970.221,634.364C970.728,619.784 984.429,599.048 1000.53,603.885C1002.27,604.409 1005.06,605.544 1008.15,608.29C1010.75,610.599 1009.85,611.175 1008.69,614.454C1008.69,614.462 1005.79,615.851 1005.77,615.852C1003.42,615.979 1003.57,615.345 1001.68,613.945C1000.98,613.424 999.037,611.913 996.262,611.817ZM989.966,614.034C989.233,614.576 988.477,615.236 987.701,616.032C982.351,621.527 979.281,630.429 979.816,636.302C982.132,635.895 985.381,633.901 987.543,632.133C992.385,628.175 993.439,624.953 993.642,624.428C994.508,621.852 994.063,620.581 991.883,619.072L991.873,619.066C989.2,617.438 989.531,616.705 989.966,614.034Z" style="fill:rgb(0,4,45);"/>
        <path d="M842.263,995.121C843.793,994.363 843.885,994.361 845.503,994.906C847.476,995.57 847.361,995.85 848.292,997.711C863.001,1027.13 882.397,1050.56 905.795,1056.24C942.541,1065.15 974.165,1028.94 982.646,1013.45C987.774,1004.09 991.142,990.259 991.65,988.173C1004.38,935.918 1000.24,846.984 987.946,760.567C983.673,730.521 980.23,712.581 980.259,712.441C980.481,711.392 980.317,710.176 980.928,709.296C980.938,709.283 983.673,707.536 983.682,707.538C984.732,707.767 985.947,707.62 986.829,708.233C987.712,708.846 988.149,709.956 988.581,710.941C988.692,711.194 990.852,723.665 991.044,724.773C1002.48,790.79 1006.41,839.898 1007.22,849.964C1010.9,895.884 1014.29,972.39 993.211,1015.61C981.638,1039.33 930.526,1091.49 879.965,1053.32C859.971,1038.23 846.911,1013.99 840.348,1000.82C839.566,999.249 840.047,997.82 840.13,997.573C840.693,995.9 842.03,995.237 842.263,995.121Z" style="fill:rgb(0,4,45);"/>
        <path d="M1116.54,720.324C1141.01,714.11 1155.7,727.194 1161.45,744.841C1174.3,784.288 1146.09,852.524 1086.1,832.905C1030.45,814.704 1039.96,741.257 1078.74,718.92C1095.43,709.308 1111.08,713.681 1113.99,714.439C1115.68,714.879 1116.43,716.181 1116.56,716.405C1116.57,716.419 1117.01,719.612 1117,719.619C1116.83,719.839 1116.68,720.079 1116.54,720.324ZM1110.33,722.246C1064.41,711.845 1035.74,785.486 1071.67,815.61C1072.29,816.124 1081.29,824.335 1098.16,827.177C1138.88,834.037 1158.77,790.269 1155.7,758.905C1153.52,736.578 1139.59,717.192 1106.53,733.059C1097.39,737.446 1089.85,743.15 1089.73,743.175C1086.82,743.839 1086.83,743.936 1086.57,743.893C1084.88,743.61 1084.81,743.566 1083.81,742.175C1082.82,740.783 1082.8,740.692 1083.09,739.006C1083.43,736.961 1083.71,737.018 1085.4,735.822C1094.54,729.375 1102.84,724.965 1110.33,722.246Z" style="fill:rgb(0,4,45);"/>
        <path d="M1236.79,859.887C1237.07,859.255 1237.37,858.638 1237.91,858.239C1237.93,858.229 1241.07,857.452 1241.08,857.457C1242,858.015 1243.2,858.269 1243.85,859.138C1245.13,860.888 1244.82,861.067 1244.49,863.216C1242.11,878.839 1240.68,885.903 1238.34,888.394C1236.04,890.843 1231.3,890.959 1229.66,885.519C1227.62,878.746 1227.21,854.249 1227.29,818.959C1227.3,816.712 1227.49,800.011 1227.56,796.939C1227.65,793.162 1228.79,772.415 1224.69,710.511C1220.72,650.653 1214.6,594.596 1216.12,585.475C1216.13,585.355 1216.45,582.229 1219.3,581.092C1220.25,580.714 1221.89,580.44 1223.73,581.481C1224.96,582.172 1225.99,583.322 1226.75,584.041C1227.57,584.209 1228.4,584.385 1228.41,584.389C1228.99,585.289 1229.96,586.037 1230.16,587.093C1230.21,587.384 1230.53,589.072 1229.19,590.664C1228.01,592.072 1226.2,592.672 1224.41,592.277C1225.07,615.828 1234.34,695.144 1237.49,748.976C1239.1,776.462 1238.56,789.016 1238.23,797.71C1236.86,833.877 1236.74,849.359 1236.78,858.785C1236.78,859.117 1236.78,859.486 1236.79,859.887ZM1223,584.979C1222.87,585.051 1222.71,585.211 1222.52,585.484C1222.46,585.576 1222.64,585.323 1223,584.979Z" style="fill:rgb(0,4,45);"/>
        <path d="M1363.94,679.015C1362.23,680.118 1360.14,681.501 1357.64,683.219C1356.6,683.941 1353.69,685.945 1344.8,692.612C1337.25,698.278 1337.13,698.114 1328.87,703.966C1311.02,716.616 1310.94,716.503 1275.63,742.784C1247.59,763.652 1237.32,771.052 1232.43,767.662C1230.78,766.521 1229.84,764.236 1231.01,761.736C1231.17,761.386 1231.18,761.396 1231.36,760.986C1231.36,760.986 1231.36,760.986 1231.36,760.986C1231.37,760.435 1231.48,759.078 1232.3,758.061C1232.31,758.048 1235.17,756.483 1235.18,756.486C1237.14,757.065 1238.37,757.25 1239.08,757.904C1250.62,751.221 1276.32,729.601 1297.59,712.305C1311.73,700.806 1318.81,695.251 1330.05,687.076C1330.46,686.783 1335.14,683.661 1335.36,683.52C1337.69,682.058 1342.71,678.911 1352.56,673.6C1355.05,672.261 1358.99,670.182 1366.25,666.837C1366.56,666.692 1367.9,665.995 1369.64,666.433C1371.84,666.987 1372.62,668.761 1372.76,669.059C1373.22,670.105 1373.14,671.203 1373.13,671.391C1372.96,673.962 1370.61,675.222 1368.35,677.044C1367.63,678.068 1366.68,678.503 1366.48,678.595C1365.6,678.993 1364.74,679.112 1363.94,679.015ZM1231.36,761.04C1231.35,761.08 1231.35,761.135 1231.36,761.211C1231.36,761.275 1231.36,761.204 1231.36,761.04ZM1231.38,760.99C1231.65,761.048 1231.74,761.078 1231.9,761.098C1231.63,761.035 1231.44,760.894 1231.38,760.99Z" style="fill:rgb(0,4,45);"/>
        <path d="M1321.12,871.943C1322.42,871.983 1324.07,872.492 1324.96,874.577C1325.65,876.201 1325.03,877.67 1324.93,877.916C1323.69,880.846 1320.43,880.727 1319.98,880.711C1315.02,880.53 1311.81,874.893 1307.61,866.631C1306.8,865.036 1303.17,857.108 1301.9,854.364C1301.42,853.333 1300.64,851.468 1299.37,848.645C1298.64,847.015 1296.44,841.704 1294.97,838.564C1285.33,818.004 1273.31,798.751 1254.66,782.4C1245.76,774.597 1241.92,773.026 1241.56,769.761C1241.26,767.029 1243.56,764.064 1247.62,765.065C1248.69,765.33 1249.55,765.654 1250.55,765.962C1250.86,765.881 1251.18,765.841 1251.5,765.878C1251.77,765.908 1253.32,766.084 1254.4,767.508C1255.39,768.826 1255.58,770.265 1255.22,771.505C1264.32,778.605 1280.94,792.321 1297.38,817.646C1298.48,819.343 1305.81,831.008 1309.06,839.295C1312.48,848.004 1313.42,852.972 1316.28,861.191C1318.01,866.145 1319.36,869.721 1321.12,871.943ZM1319.7,872.071C1319.61,872.064 1319.47,872.095 1319.28,872.172C1319.16,872.216 1319.34,872.146 1319.7,872.071ZM1320.27,874.862L1320.25,875.828C1320.27,875.392 1320.3,875.147 1320.27,874.862Z" style="fill:rgb(0,4,45);"/>
        <path d="M1378.46,788.902C1376.53,788.92 1374.56,788.894 1372.55,788.824C1370.58,788.754 1370.41,788.879 1369.07,787.436C1369.06,787.424 1367.91,784.366 1367.92,784.358C1368.37,783.367 1368.48,782.131 1369.28,781.388C1370.89,779.886 1371.11,780.2 1373.31,780.26C1375.37,780.316 1377.38,780.322 1379.35,780.28C1386.22,740.528 1430.08,705.329 1454.68,699.476C1454.72,699.467 1462.81,697.235 1468.61,699.831C1479.57,704.735 1474.39,729.925 1458.92,750.535C1445.4,768.536 1422.96,784.87 1390.06,788.264C1389.84,793.524 1390.49,798.774 1392.18,803.915C1392.54,805.013 1398.43,820.887 1404.78,834.304C1408.46,842.099 1422.46,872.123 1437.87,875.67C1442.59,876.755 1449.16,876.465 1460.27,870.733C1476.38,862.419 1491.99,847.646 1492.34,847.536C1493.43,847.191 1494.5,846.474 1495.64,846.606C1495.65,846.608 1498.64,848.273 1498.65,848.282C1498.96,849.377 1499.7,850.439 1499.57,851.57C1499.33,853.608 1499.07,853.565 1497.52,854.916C1489.4,862.024 1462.51,886.789 1441.72,886.468C1432.44,886.325 1412.63,883.953 1388.05,825.863C1385.39,819.578 1381.54,809.788 1380.37,805.449C1378.88,799.924 1378.29,794.387 1378.46,788.902ZM1391.2,779.417C1447.78,772.228 1466.89,723.595 1464.63,709.93C1464.53,709.327 1464.39,708.924 1464.29,708.679C1462.73,708.269 1461.42,708.377 1459.55,708.622C1459.54,708.623 1459.53,708.624 1459.53,708.625C1459.03,708.681 1449.38,709.818 1433.5,721.347C1415.32,734.551 1396.09,756.575 1391.2,779.417Z" style="fill:rgb(0,4,45);"/>
        <path d="M1598.83,835.11C1599.55,833.518 1599.62,833.457 1601.26,832.845C1603.49,832.012 1603.55,832.592 1605.75,833.466C1619.96,839.092 1632.97,832.589 1640.38,824.114C1646.97,816.574 1648.78,808.12 1648.92,807.585C1649.16,806.684 1650.35,802.155 1650.19,796.009C1649.69,776.158 1634.08,762.136 1630.12,758.61C1622.65,751.966 1585.3,736.434 1573.87,714.699C1562.25,692.612 1583.17,676.764 1590.84,671.359C1602.23,663.339 1616.23,657.161 1624.52,653.713C1626.13,653.044 1626.22,653.05 1627.83,653.706C1627.84,653.712 1630.18,656.02 1630.18,656.029C1630.19,657.125 1630.6,658.303 1630.19,659.319C1629.4,661.252 1629.14,661.136 1627.23,661.955C1574.93,684.305 1579.34,701.2 1581.11,706.322C1587.58,725.058 1625.94,740.424 1636.61,747.932C1636.83,748.084 1644.18,753.397 1650.96,762.094C1655.23,767.571 1664.6,780.961 1663.88,799.618C1663.81,801.394 1663.28,807.72 1660.95,813.853C1654.42,831.031 1640.69,839.958 1630.59,843.004C1615.42,847.582 1603.93,842.207 1600.98,840.872C1599.35,840.136 1598.81,838.685 1598.71,838.435C1598.1,836.796 1598.1,836.702 1598.83,835.11Z" style="fill:rgb(0,4,45);"/>
        <path d="M2157.45,1016.55L2157.61,1016.66C2157.03,1017.56 2152.66,1025.92 2143.51,1023.37C2139.12,1022.14 2136.34,1019.36 2132.23,1016.31C2120.03,1007.25 2100.73,995.556 2086.41,986.723C2060.06,970.478 2048.13,963.595 2033.81,954.71C2014.72,942.86 2013.12,941.767 2006.71,937.359C1997.03,930.694 1991.21,926.313 1983.17,919.757C1897.48,849.9 1880.61,778.322 1890.6,704.293C1903.1,611.621 1956.2,520.534 1935,434.736C1903.07,305.435 1602.78,256.4 1436.89,492.969C1435.66,494.725 1435.75,495.051 1433.64,495.425C1433.62,495.428 1430.44,494.729 1430.44,494.721C1429.86,493.805 1428.88,493.039 1428.69,491.969C1428.32,489.854 1428.65,489.827 1429.89,488.066C1599.49,245.254 1911.15,292.204 1947.12,431.674C1972.13,528.698 1908.39,629.477 1904.45,728.504C1902.18,785.365 1918.75,848.732 2004.47,913.456C2006.23,914.784 2013.54,920.555 2023.92,927.817C2026.14,929.366 2032.49,933.998 2046.92,944.063C2055.28,949.892 2055.16,950.05 2089.05,973.688C2102.38,982.988 2102.36,983 2115.57,992.485C2139.57,1009.73 2139.3,1010.31 2142.37,1012.71C2146.84,1016.2 2148.03,1014.73 2148.55,1014.2C2149.5,1013.21 2150.61,1011.12 2150.89,1010.98C2151.89,1010.48 2152.79,1009.58 2153.91,1009.52C2153.93,1009.52 2156.84,1010.52 2157.09,1010.61C2157.34,1010.7 2157.11,1010.83 2157.45,1016.55ZM2157.46,1016.75C2157.46,1016.77 2157.46,1016.8 2157.47,1016.83L2157.51,1016.79L2157.46,1016.75Z" style="fill:rgb(0,4,45);"/>
        <path d="M2075.82,814.871L2076.98,814.61C2077.05,814.872 2084.88,844.739 2107.08,893.669C2111.19,902.734 2120.02,921.597 2130.22,941.518C2131.72,944.433 2137.05,954.847 2149.43,977.68C2150.51,979.685 2151.68,981.843 2163.19,1002.64C2169.99,1014.93 2170.11,1014.85 2175.43,1024.52C2178.72,1030.52 2178.75,1030.5 2179.02,1031.03C2179.78,1032.53 2179.95,1033.58 2179.99,1033.82C2180.09,1034.38 2180.64,1037.72 2178.1,1040.76C2176.11,1043.13 2173.53,1043.61 2173.07,1043.7C2171.93,1043.91 2169.36,1043.8 2164.26,1044.03C2159.29,1044.24 2151.87,1044.82 2145.68,1045.89C2126.82,1049.15 2117.91,1056.48 2091.39,1059.43C2082.45,1060.43 2075.18,1060.44 2073.76,1060.44C2065.26,1060.46 2005.55,1060.32 1996.72,1060.11C1994.15,1060.05 1993.27,1060.1 1991.25,1058.97C1987.01,1056.61 1987.32,1052.95 1986.56,1048.53C1986.34,1047.25 1986.03,1046.08 1986.03,1046.04C1986.01,1045.4 1985.87,1044.75 1985.97,1044.12C1986.02,1043.83 1986.29,1042.16 1987.89,1040.99C1988.14,1040.82 1989.55,1039.79 1991.57,1040.12C1993.53,1040.44 1994.52,1041.81 1994.7,1042.04C1995.51,1043.16 1995.38,1043.23 1995.69,1044.58C1996.23,1046.98 1996.54,1048.74 1996.75,1049.91C2013.31,1049.61 2073.91,1046.71 2075.68,1046.56C2109.43,1043.78 2116.41,1035.89 2137.38,1030.55C2144.72,1028.68 2151.45,1027.74 2157.24,1027.24C2155.38,1023.75 2152.86,1018.97 2149.29,1012.07C2149.24,1011.96 2144.66,1003.37 2134.28,981.794C2128.08,968.907 2113.71,937.515 2102.72,910.757C2076.53,846.937 2068.87,817.388 2068.72,816.391C2068.7,816.245 2068.56,815.33 2068.74,814.546C2068.94,813.727 2069.52,812.901 2069.56,812.878C2070.5,812.361 2071.32,811.451 2072.39,811.331C2072.41,811.329 2075.24,812.142 2075.49,812.213C2075.69,812.273 2075.6,812.376 2075.82,814.871ZM2075.95,816.26C2076.01,816.813 2076.08,817.443 2076.16,818.16L2076.57,816.408L2075.95,816.26Z" style="fill:rgb(0,4,45);"/>
    </g>
</svg>
