<?xml version="1.0" encoding="UTF-8" standalone="no"?>
<!DOCTYPE svg PUBLIC "-//W3C//DTD SVG 1.1//EN" "http://www.w3.org/Graphics/SVG/1.1/DTD/svg11.dtd">
<svg width="100%" height="100%" viewBox="0 0 2436 1125" version="1.1" xmlns="http://www.w3.org/2000/svg" xmlns:xlink="http://www.w3.org/1999/xlink" xml:space="preserve" xmlns:serif="http://www.serif.com/" style="fill-rule:evenodd;clip-rule:evenodd;stroke-linejoin:round;stroke-miterlimit:2;">
    <path d="M99.019,90.091C103.659,116.374 106.145,135.403 106.362,156.806C106.51,171.487 105.751,186.231 104.547,214.746C104.474,216.468 103.338,217.521 103.146,217.699C103.133,217.711 100.134,218.839 100.125,218.836C99.144,218.384 97.919,218.266 97.184,217.474C96.449,216.681 96.303,215.486 96.045,214.435C95.942,214.015 97.544,180.772 97.233,161.391C96.768,132.433 92.169,110.817 85.754,78.724C85.544,77.674 85.313,76.628 85.124,75.574C84.578,72.534 86.453,70.773 86.765,70.48C88.995,68.387 91.54,69.055 91.954,69.164C93.228,69.498 94.203,70.366 94.368,70.513C96.448,72.363 118.855,94.102 139.356,109.353C163.949,127.647 180.111,133.941 199.818,135.917C213.568,137.296 224.385,136.656 241.673,141.474C243.407,141.958 244.165,143.31 244.296,143.543C244.304,143.558 244.698,146.857 244.692,146.864C244.006,147.734 243.595,148.927 242.629,149.469C240.641,150.583 240.498,150.185 238.298,149.589C205.028,140.582 187.096,154.876 137.595,121.163C122.896,111.151 108.565,98.789 99.019,90.091Z" style="fill:rgb(0,0,54);"/>
    <path d="M100.593,90.458C100.788,90.416 101.008,90.368 101.261,90.314C104.079,98.871 139.843,149.291 148.423,165.237C183.982,231.326 193.823,405.489 291.801,489.687C309.739,505.103 339.829,525.704 388.225,533.748C428.738,540.483 470.449,536.288 521.983,526.728C542.944,522.839 553.196,520.742 573.296,517.391C573.838,517.3 595.685,514.292 611.207,513.17C635.136,511.44 660.607,511.068 686.398,516.379C695.665,518.288 703.774,520.699 711.956,523.797C713.613,524.425 714.236,525.817 714.344,526.057C714.351,526.072 714.444,529.34 714.438,529.346C713.689,530.138 713.18,531.271 712.186,531.717C710.333,532.547 710.228,532.313 708.329,531.599C680.583,521.166 648.582,520.811 610.221,527.592C604.163,528.663 595.629,530.035 577.689,534.044C575.951,534.433 575.829,534.355 559.513,537.596C558.977,537.702 537.325,541.827 533.788,542.46C500.394,548.429 466.663,553.785 430.833,553.202C308.055,551.204 248.172,477.698 212.893,396.238C175.04,308.836 163.79,207.381 138.308,165.063C124.82,142.663 96.031,101.973 93.24,92.99C92.856,91.755 92.746,90.82 92.943,89.752C93.264,88.008 94.573,87.159 94.795,87.015C94.812,87.004 97.709,86.467 97.962,86.42C98.224,86.372 98.111,86.584 100.593,90.458ZM101.165,91.345C101.185,91.375 101.204,91.405 101.224,91.435L101.239,91.359L101.165,91.345Z" style="fill:rgb(0,0,54);"/>
    <path d="M649.264,664.12C650.602,663.033 650.692,663.011 652.408,663.188C654.669,663.423 654.546,663.846 655.994,665.602C660.678,671.281 672.676,683.925 689.972,687.927C724.491,695.915 754.078,663.803 769.12,644.906C770.776,642.826 778.186,634.237 784.625,618.159C785.372,616.294 788.729,607.912 791.864,594.115C792.478,591.412 795.339,578.824 796.813,559.821C798.719,535.242 797.228,511.493 796.964,507.3C794.503,468.107 786.46,423.642 775.451,388.247C770.965,373.826 767.561,366.159 766.066,364.048C765.045,362.606 764.945,362.54 765.201,360.792C765.204,360.775 766.853,358.008 766.861,358.006C767.904,357.744 768.927,357.071 769.991,357.227C770.296,357.272 771.855,357.5 773.168,359.422C780.825,370.635 799.317,431.627 807.122,488.99C812.507,528.57 811.45,552.497 811.171,559.269C810.861,566.816 810.004,584.111 805.069,603.907C803.678,609.487 801.525,615.545 801.171,616.541C793.812,637.246 785.174,647.917 775.034,659.041C757.425,678.357 742.633,686.727 739.412,688.549C729.892,693.935 699.868,709.639 667.436,687.735C657.386,680.947 650.96,673.007 648.639,670.151C647.552,668.812 647.53,668.722 647.708,667.007C647.885,665.291 647.925,665.208 649.264,664.12Z" style="fill:rgb(0,0,54);"/>
    <path d="M758.067,291.623C764.429,295.195 766.097,304.142 762.337,313.352C758.518,322.704 749.938,327.635 742.365,321.689C734.636,315.621 736.405,304.072 739.238,297.84C742.921,289.74 749.644,283.444 755.574,286.487C758.272,287.872 758.443,289.952 758.474,290.336C758.475,290.344 758.282,290.95 758.067,291.623ZM749.276,298.75C748.614,300.076 747.916,301.78 747.239,303.962C745.448,309.73 746.843,312.506 747.181,313.173L747.184,313.178C748.197,314.857 749.259,315.151 749.747,315.023C752.79,314.223 756.713,306.063 755.199,301.134C754.696,299.496 753.59,298.19 749.601,298.706C749.487,298.721 749.379,298.736 749.276,298.75Z" style="fill:rgb(0,0,54);"/>
    <path d="M886.651,429.442C881.979,440.565 875.495,451.787 869.772,459.133C866.228,463.681 854.516,478.204 842.787,472.564C842.195,472.279 840.046,471.245 836.258,467.572C807.622,439.809 828.985,381.086 875.708,361.692C877.564,360.922 877.666,360.701 879.517,361.48C879.533,361.487 881.801,363.779 881.801,363.788C881.794,364.863 882.19,366.022 881.774,367.013C880.9,369.089 880.526,368.839 878.453,369.724C835.665,387.987 817.191,443.076 845.821,464.009C846.434,464.457 849.076,466.787 855.652,461.117C862.618,455.112 869.129,444.473 874.079,434.531C879.774,423.093 882.627,413.594 883.829,405.754C882.892,397.359 881.93,388.423 880.879,378.993C880.389,374.591 880.296,374.595 880.35,373.649C880.372,373.255 880.513,370.806 883.048,369.511C883.4,369.332 885.584,368.217 887.981,369.751C889.905,370.982 890.187,373.019 890.234,373.356C890.668,376.482 895.623,386.042 893.858,402.884C895.496,415.945 897.559,431.378 899.454,442.051C901.771,455.1 905.279,470.714 912.338,479.691C914.802,482.824 916.862,484.212 918.134,485.303C924.414,490.687 933.098,492.878 940.471,494.247C942.168,494.562 942.241,494.612 943.244,496.02C943.253,496.034 943.989,499.188 943.984,499.195C943.406,500.108 943.124,501.305 942.243,501.93C940.625,503.077 940.488,502.917 938.529,502.613C922.996,500.199 915.797,496.716 911.148,493.85C910.222,493.279 908.445,491.722 908.22,491.525C899.055,483.494 895.119,472.403 892.622,462.936C890.246,453.928 888.384,442.666 886.651,429.442Z" style="fill:rgb(0,0,54);"/>
    <path d="M986.313,467.642C999.711,431.89 1007.59,402.507 1039.41,361.673C1040.51,360.267 1042.03,360.082 1042.29,360.05C1042.31,360.048 1045.48,360.93 1045.49,360.938C1046.02,361.894 1046.96,362.721 1047.09,363.81C1047.23,364.9 1046.63,365.967 1046.22,366.987C1046.03,367.451 1033.19,382.608 1021.18,405.069C1007.27,431.094 1000.88,454.477 990.709,480.015C990.659,480.14 990.225,481.231 990.031,481.548C988.318,484.344 983.905,484.324 982.436,480.92C981.317,478.326 977.374,468.219 976.942,467.111C951.787,402.624 953.838,388.853 947.222,378.627C946.278,377.167 946.581,375.708 946.633,375.455C946.637,375.439 948.444,372.777 948.452,372.775C951.902,372.12 952.611,371.354 954.506,374.314C959.255,381.73 960.094,389.7 965.917,409.552C972.447,431.818 980.806,453.728 986.313,467.642Z" style="fill:rgb(0,0,54);"/>
    <path d="M1131.1,440.545C1121.46,455.903 1110.26,466.318 1101.62,468.168C1093.65,469.875 1090.15,464.286 1089.61,463.584C1043.82,404.802 1089.6,381.807 1098.64,377.499C1113.01,370.656 1129.35,368.297 1134.89,369.735C1136.78,370.224 1137.54,371.583 1137.67,371.826C1137.68,371.839 1137.94,374.143 1138.02,374.855C1139.76,367.184 1141.21,362.099 1141.59,361.347C1141.77,360.965 1142.95,358.588 1146.02,358.386C1146.44,358.359 1149.09,358.185 1150.8,360.743C1150.88,360.866 1151.32,361.524 1151.54,362.437C1151.76,363.341 1152.2,370.471 1151.58,378.944C1150.56,392.653 1147.19,405.933 1142.48,417.882C1142.24,421.207 1142.07,424.51 1141.99,427.749C1141.93,430.375 1140.72,449.545 1145.91,460.726C1149.86,469.243 1156.38,471.412 1166.63,468.148C1169.03,467.387 1171.51,466.244 1171.92,466.053C1173.5,465.327 1173.59,465.323 1175.22,465.916C1175.24,465.922 1177.67,468.142 1177.67,468.151C1177.72,469.25 1178.18,470.414 1177.81,471.448C1177.08,473.451 1176.81,473.34 1174.87,474.22C1168.47,477.121 1150.11,484.861 1138.9,468.063C1133.39,459.806 1131.67,447.852 1131.1,440.545ZM1137.94,375.187C1137.33,376.014 1136.92,377.083 1136.02,377.579C1133.9,378.756 1133.74,377.873 1131.31,377.832C1119.82,377.639 1077.52,387.262 1078.44,418.051C1078.76,428.777 1084.22,442.132 1097.15,458.327C1097.63,458.921 1097.87,459.627 1100.07,459.013C1107.59,456.909 1121.53,441.769 1131.14,419.436C1131.26,417.716 1131.42,415.83 1131.62,413.762C1133.05,399.148 1135.72,385.078 1137.94,375.187Z" style="fill:rgb(0,0,54);"/>
    <path d="M1245.8,400.029C1251.47,408.307 1282.99,433.303 1286.58,448.255C1288.2,454.988 1284.37,458.131 1282.06,459.875C1273.45,466.382 1248.49,475.834 1236.88,474.832C1236.75,474.822 1229.45,474.6 1228.03,468.458C1227.44,465.907 1228.62,464.49 1228.84,464.225C1228.85,464.211 1231.75,462.685 1231.76,462.688C1232.8,463.015 1234.04,462.975 1234.88,463.673C1234.88,463.673 1235.59,465.006 1236.05,465.865C1242.04,467.825 1263.88,459.74 1274.52,452.474C1275.54,451.775 1276.11,451.297 1276.44,450.992C1276.32,450.023 1275.49,447.057 1270.16,440.342C1259.56,426.991 1240.83,410.612 1237.45,404.35C1237.29,404.041 1236.13,402.362 1236.53,398.145C1238.44,378.31 1274,363.933 1290.86,355.639C1292.4,354.884 1292.49,354.875 1294.11,355.417C1294.13,355.422 1296.58,357.549 1296.58,357.558C1296.66,358.639 1297.15,359.774 1296.8,360.803C1296.14,362.8 1295.85,362.685 1293.97,363.623C1283.32,368.916 1248.72,383.812 1245.93,397.998C1245.76,398.846 1245.79,399.775 1245.79,400.012L1245.8,400.029Z" style="fill:rgb(0,0,54);"/>
    <path d="M1432.9,450.983C1433.56,452.608 1433.55,452.702 1432.87,454.318C1432.02,456.305 1431.74,456.167 1429.74,456.963C1400.26,468.674 1338.2,481.014 1328.81,451.916C1324.98,440.069 1329.37,412.451 1349.61,387.892C1366.59,367.304 1386.18,359.349 1393.79,356.521C1395.43,355.91 1396.8,356.542 1397.04,356.651C1397.06,356.658 1399.25,359.031 1399.25,359.04C1399.21,360.118 1399.57,361.293 1399.12,362.273C1398.17,364.323 1397.81,364.066 1395.7,364.874C1351.06,381.955 1333.64,426.126 1336.44,446.809C1336.83,449.724 1338.38,459.806 1361.46,461.091C1380.84,462.17 1407.87,456.359 1427.22,448.575C1428.85,447.922 1428.94,447.929 1430.55,448.612C1432.17,449.295 1432.24,449.359 1432.9,450.983Z" style="fill:rgb(0,0,54);"/>
    <path d="M1482.49,370.562C1479.65,373.124 1469.61,384.447 1468.36,437.132C1467.9,456.483 1468.88,472.563 1468.89,472.955C1468.94,476.667 1465.26,478.324 1462.66,477.008C1460.51,475.919 1460.34,473.762 1460.32,473.42C1460.06,470.125 1458.76,444.066 1458.63,441.513C1456.46,398.017 1455.28,364.945 1455,357.309C1454.99,357.05 1454.94,355.563 1456.14,354.274C1456.15,354.262 1459.08,352.919 1459.09,352.923C1460.1,353.298 1461.33,353.322 1462.12,354.056C1462.91,354.788 1463.27,355.931 1463.46,356.989C1463.47,357.027 1463.91,369.517 1464.74,389.069C1466.88,380.003 1469.85,372.275 1473.92,367.056C1475.28,365.32 1477.21,363.342 1478.63,362.572C1481.79,360.864 1484.06,362.425 1489.11,362.453C1505.63,362.545 1535.43,348.517 1535.8,348.511C1536.92,348.493 1538.12,348.049 1539.17,348.459C1539.18,348.465 1541.61,350.794 1541.61,350.803C1541.63,351.925 1542.07,353.124 1541.66,354.169C1541.25,355.213 1540.19,355.879 1539.33,356.599C1539.33,356.599 1536.56,357.809 1533.55,359.06C1497.6,374.01 1487.3,371.216 1482.49,370.562Z" style="fill:rgb(0,0,54);"/>
    <path d="M1586.51,460.7C1586.92,460.787 1587.22,460.85 1587.22,460.852C1587.82,461.765 1588.81,462.521 1589.01,463.593C1589.41,465.684 1589.1,465.722 1587.9,467.48C1585.29,471.305 1583.38,473.998 1580.28,473.74C1579.27,473.656 1575.42,472.76 1576.13,467.433C1576.83,462.121 1580.03,452.965 1580.12,441.66C1580.26,425.715 1578.95,412.304 1578.82,410.041C1578.14,398.475 1577.24,388.131 1578.99,380.269C1579.75,376.862 1580.66,377.326 1584.1,376.712C1584.11,376.711 1586.75,378.556 1586.76,378.57C1587.95,380.43 1587.5,380.59 1587.15,382.767C1585.84,390.81 1587.98,401.294 1588.68,412.43C1589.16,420.017 1589.62,429.439 1589.21,442.621C1589.01,449.149 1587.68,455.63 1586.51,460.7Z" style="fill:rgb(0,0,54);"/>
    <path d="M1591.65,347.244C1590.14,348.056 1590.05,348.068 1588.41,347.583C1586.3,346.963 1586.48,346.599 1585.39,344.696C1582.38,339.424 1576.84,331.062 1576.06,320.754C1575.92,318.893 1575.88,318.771 1577.12,317.373C1577.13,317.361 1580.08,315.923 1580.09,315.926C1583.45,317.089 1584.39,316.803 1584.66,320.349C1585.31,328.789 1590.69,336.592 1593.36,341.456C1594.2,342.995 1593.77,344.452 1593.69,344.703C1593.62,344.953 1593.19,346.414 1591.65,347.244Z" style="fill:rgb(0,0,54);"/>
    <path d="M1676.03,386.76C1681.36,416.29 1689.37,482.983 1678.89,549.768C1677.75,557.059 1675.82,567.076 1674.31,573.15C1674.19,573.637 1671.69,584.794 1664.37,604.663C1656.43,626.216 1652.41,629.92 1648.51,630.496C1647.37,630.664 1643.62,630.843 1641.47,625.815C1641.13,625.014 1640.89,624.258 1640.85,624.12C1640.3,622.351 1640.23,622.242 1641.12,620.611C1641.12,620.596 1643.65,618.542 1643.66,618.542C1644.74,618.657 1645.94,618.373 1646.9,618.889C1647.53,619.23 1647.91,619.482 1648.16,619.751C1649.08,618.138 1650.33,615.534 1651.87,611.393C1656.89,597.875 1660.98,579.995 1664.37,564.844C1674.94,517.612 1674.62,475.785 1674.36,461.07C1673.68,422.066 1668.42,392.176 1667.12,385.217C1666.72,383.054 1666.24,381.783 1667.68,379.867C1668.5,378.788 1670.59,377.648 1672.81,378.622C1675.2,379.675 1675.51,382.088 1675.7,383.49C1675.96,383.884 1676.17,384.296 1676.23,384.758C1676.33,385.544 1676.23,386.212 1676.03,386.76ZM1668.82,382.722C1668.8,382.703 1668.77,382.685 1668.75,382.666L1668.69,382.738C1668.74,382.732 1668.78,382.727 1668.82,382.722Z" style="fill:rgb(0,0,54);"/>
    <path d="M1669.91,443.072C1671.65,442.83 1671.74,442.859 1673.14,443.918C1674.77,445.153 1674.64,445.35 1674.91,447.376C1677.32,465.218 1676.08,472.205 1681.02,474.731C1686.04,477.295 1701.18,477.321 1714.95,473.893C1732.28,469.577 1743.73,461.354 1747.92,458.818C1750.1,457.5 1760.4,451.363 1767.85,439.725C1768.28,439.057 1773.15,431.85 1775.26,420.847C1775.94,417.31 1777.4,407.187 1774.07,395.354C1764.16,360.117 1723.7,340.472 1685.84,399.092C1684.72,400.819 1684.81,401.105 1682.8,401.557C1682.79,401.561 1679.61,401.013 1679.6,401.006C1678.98,400.126 1677.99,399.413 1677.75,398.364C1677.29,396.341 1677.59,396.292 1678.69,394.534C1719.22,330.187 1767.01,346.991 1784.5,384.291C1788.38,392.56 1789.69,400.963 1789.92,402.462C1790.51,406.272 1792.14,417.94 1787.73,432.192C1785.88,438.18 1782.74,443.574 1782.2,444.508C1779.5,449.143 1772.29,460.705 1755.2,470.285C1747.07,474.844 1728.71,485.403 1703.18,486.827C1702.93,486.841 1689.37,487.629 1680.77,485.007C1667.39,480.926 1668.01,469.886 1667.1,457.116C1666.64,450.718 1666.18,448.013 1666.19,447.984C1666.97,445.015 1666.88,444.978 1667.04,444.765C1668.1,443.366 1668.17,443.314 1669.91,443.072Z" style="fill:rgb(0,0,54);"/>
    <path d="M1912.7,438.218C1914.18,439.076 1914.23,439.153 1914.67,440.804C1915.23,442.925 1914.86,442.975 1913.75,444.862C1892.8,480.385 1858.94,486.956 1849.41,475.883C1841.2,466.333 1838.35,459.331 1839.61,415.023C1839.76,409.921 1840.48,393.234 1841.08,383.896C1842.13,367.556 1842.12,367.559 1843.63,351.251C1843.69,350.641 1843.69,350.642 1845.36,335.386C1845.5,334.066 1846.62,325.54 1848.78,306.977C1849.76,298.587 1850.32,295.299 1853.33,265.759C1853.5,264.063 1853.54,263.985 1854.85,262.898C1854.86,262.887 1857.93,261.932 1857.94,261.937C1858.88,262.438 1860.08,262.627 1860.76,263.447C1862.15,265.13 1861.85,265.326 1861.67,267.505C1860.53,281.217 1859.89,288.376 1858.29,315.369C1857.47,329.148 1857.59,329.151 1856.76,342.931C1856.29,350.593 1856.31,350.591 1855.76,358.249C1855.26,365.219 1855.29,365.217 1854.69,372.182L1852.67,396.204C1847.42,459.157 1850.75,461.985 1856.73,469.647C1859,472.557 1873.67,473.589 1890.11,459.965C1900.78,451.125 1906.77,439.845 1906.9,439.741C1909.28,437.937 1909.24,437.853 1909.49,437.787C1911.14,437.351 1911.23,437.36 1912.7,438.218Z" style="fill:rgb(0,0,54);"/>
    <path d="M1838.27,356.075C1838.31,356.217 1838.33,356.302 1838.33,356.304C1837.83,357.253 1837.65,358.462 1836.82,359.148C1835.12,360.557 1834.92,360.22 1832.72,360.016C1827.68,359.547 1825.44,359.353 1824.01,357.749C1822.22,355.752 1822.18,351.912 1826.39,350.362C1832.81,347.997 1861.14,343.953 1913.6,321.815C1915.27,321.113 1916.72,321.703 1916.96,321.805C1916.98,321.811 1919.36,324.162 1919.36,324.171C1919.37,325.289 1919.79,326.489 1919.37,327.525C1918.95,328.56 1917.91,329.235 1917.02,329.915C1916.83,330.06 1909.41,333.038 1908.75,333.304C1874.9,346.898 1850.77,353.064 1838.27,356.075Z" style="fill:rgb(0,0,54);"/>
    <path d="M1082.99,626.201C1086.52,624.553 1090.97,623.599 1094.56,626.572C1101.64,632.436 1097.54,648.729 1092.05,654.186C1085.64,660.557 1076.59,658.16 1073.88,642.754C1072.76,636.342 1072.69,626.884 1078.78,625.526C1080.35,625.174 1081.77,625.522 1082.99,626.201ZM1081.79,637.326C1082,641.759 1083.43,647.304 1085.17,648.887C1088.59,647.007 1091.11,635.991 1089.17,633.144C1089.07,633.137 1088.91,633.13 1088.7,633.155C1088.73,633.545 1088.65,634 1088.47,634.765C1088.46,634.781 1086.58,637.405 1086.57,637.406C1085.51,637.579 1084.43,638.163 1083.38,637.916C1082.62,637.738 1082.14,637.556 1081.79,637.326Z" style="fill:rgb(0,0,54);"/>
    <path d="M1088.88,745.582C1091.42,771.336 1102.25,849.408 1080.71,922.36C1071.46,953.679 1054.17,991.171 1027.82,1010.36C1022.93,1013.92 1017.81,1016.22 1016.89,1016.63C1003.6,1022.61 989.917,1022 978.649,1014.95C968.788,1008.79 955.379,995.182 947.166,959.462C945.997,954.376 945.126,949.397 944.552,946.064C944.262,944.378 944.287,944.289 945.273,942.892C945.283,942.878 948.022,941.147 948.031,941.149C949.085,941.388 950.31,941.249 951.193,941.872C952.833,943.03 952.692,943.236 953.036,945.214C955.438,959.048 959.032,968.98 959.757,970.984C963.527,981.403 972.934,1002.59 990.076,1007.27C991.667,1007.7 1000.43,1010.55 1013.18,1003.84C1022.37,998.999 1030.06,990.919 1031.33,989.581C1049.09,970.919 1065.4,938.982 1074.61,902.575C1094.18,825.239 1078.97,748.385 1079.95,737.304C1080.5,731.175 1087.22,730.843 1088.85,735.742C1089.22,736.834 1089.42,738.263 1089.7,739.659C1089.95,739.922 1090.17,740.211 1090.3,740.551C1091.27,743.038 1089.66,744.81 1089.41,745.084C1089.24,745.268 1089.07,745.433 1088.88,745.582Z" style="fill:rgb(0,0,54);"/>
    <path d="M1220.7,837.496C1213.29,854.653 1204.11,864.977 1195.56,869.463C1190.2,872.278 1185.81,872.627 1180.18,872.102C1167.33,870.902 1151.66,862.896 1144.66,834.135C1136.94,802.418 1142.55,759.759 1142.97,749.599C1143.05,747.854 1144.13,746.842 1144.32,746.665C1144.33,746.654 1147.34,745.518 1147.35,745.522C1150.56,746.977 1151.55,746.782 1151.41,750.305C1150.96,761.931 1143.79,819.053 1160.05,847.231C1167.54,860.216 1177.65,861.782 1184.65,861.484C1196,861.003 1210.98,841.249 1219.06,803.309C1219.26,802.387 1219.45,801.466 1219.63,800.545C1220.32,778.326 1222.76,755.702 1224.34,739.755C1224.92,733.796 1224.94,732.755 1225.12,732.085C1225.86,729.285 1228.24,728.542 1228.63,728.421C1231.39,727.558 1233.29,729.173 1233.6,729.436C1233.81,729.616 1235,730.626 1235.35,732.428C1235.52,733.268 1235.78,742.97 1235.7,750.698C1235.47,775.705 1232.82,796.409 1228.7,813.206C1228.5,832.455 1230.12,850.124 1235.56,860.215C1241.34,870.937 1249.66,868.795 1265.31,865.361C1268.7,864.617 1270.98,864.17 1270.98,864.171C1272.04,864.385 1273.26,864.217 1274.16,864.82C1274.17,864.829 1275.97,867.526 1275.96,867.535C1275.75,868.594 1275.92,869.812 1275.32,870.709C1274.1,872.516 1273.82,872.267 1271.69,872.699C1256.17,875.837 1240.85,881.774 1230.4,868.279C1225.16,861.512 1222.19,850.53 1220.7,837.496Z" style="fill:rgb(0,0,54);"/>
    <path d="M1322.6,859.455C1322.5,858.672 1322.38,857.728 1322.2,856.417C1321.23,849.108 1318.4,827.836 1317.63,804.929C1316.89,783.07 1318.84,757.387 1318.91,756.172C1319.3,749.634 1319.45,745.241 1318.98,741.41C1318.57,737.994 1319.6,738.155 1322.57,736.422C1322.58,736.417 1325.69,737.245 1325.7,737.255C1327.38,738.531 1327.18,738.761 1327.45,740.85C1329.28,755.168 1323.32,778.532 1329.72,827.17C1331.54,840.96 1334.59,858.529 1335.01,862.768C1335.09,863.523 1335.32,865.128 1335.47,869.904C1335.47,869.973 1335.57,873.769 1335.21,876.095C1335.2,876.162 1334.81,880.548 1330.97,881.661C1327.54,882.655 1325.18,879.963 1324.84,879.573C1322.55,876.957 1319.65,870.22 1317.18,865.301C1316.39,863.73 1316.87,862.297 1316.95,862.049C1316.96,862.033 1319.08,859.583 1319.09,859.582C1320.17,859.506 1321.3,859.019 1322.33,859.361C1322.42,859.393 1322.51,859.424 1322.6,859.455ZM1329.43,876.476C1329.44,876.491 1329.44,876.495 1329.46,876.514C1329.45,876.509 1329.45,876.496 1329.43,876.476Z" style="fill:rgb(0,0,54);"/>
    <path d="M1418.46,876.503C1418.47,876.504 1418.47,876.506 1418.48,876.507C1419.82,877.027 1425.94,875.607 1426.58,875.459C1436.38,873.186 1441.74,871.257 1479.58,861.188C1480.86,860.847 1480.86,860.815 1480.93,860.825C1482,860.967 1483.21,860.717 1484.14,861.257C1484.15,861.266 1486.12,863.831 1486.12,863.84C1485.98,864.909 1486.23,866.112 1485.69,867.046C1485.15,867.98 1484.05,868.47 1483.13,869.024C1483.12,869.027 1482.05,869.305 1477.55,870.542C1429.78,883.655 1421.27,888.117 1414.47,884.964C1413.22,884.382 1410.23,882.872 1407.43,875.719C1400.83,858.818 1405.77,828.431 1399.33,795.978C1397.68,787.65 1395.01,776.258 1386.57,766.257C1369.19,745.669 1337.97,746.146 1328.93,778.669C1328.32,780.841 1328.65,781.186 1326.71,782.35C1326.7,782.359 1323.52,782.84 1323.51,782.835C1322.65,782.196 1321.48,781.833 1320.92,780.913C1319.89,779.205 1320.09,779.074 1320.58,777.141C1331.26,734.883 1376.81,732.75 1399.31,766.105C1405.16,774.781 1407.69,784.278 1408.14,785.957C1414.97,811.52 1413.27,834.529 1413.81,853.552C1414.02,861.015 1414.57,865.226 1415.26,868.473C1416.14,872.582 1417.53,875.355 1418.47,876.493L1418.46,876.503Z" style="fill:rgb(0,0,54);"/>
    <path d="M1493.99,869.958C1492.96,868.6 1492.93,868.516 1493.15,866.829C1493.42,864.781 1493.81,864.919 1495.33,863.518C1504.11,855.41 1504.5,822.654 1504.56,820.295C1505.62,777.568 1497.48,719.073 1494.29,690.211C1493.26,680.898 1493.26,680.901 1492.28,671.582C1490.73,656.928 1490.82,656.922 1489.28,642.269C1485.14,602.646 1485.18,599.671 1485.1,595.788C1485.07,594.082 1485.1,593.996 1486.27,592.758C1486.28,592.746 1489.23,591.437 1489.24,591.44C1490.25,591.828 1491.47,591.868 1492.25,592.611C1493.8,594.083 1493.51,594.312 1493.61,596.446C1494.23,610.584 1499.31,644.004 1502.36,664.484C1502.39,664.728 1504.35,678.762 1504.41,679.21C1505.84,690.038 1506.72,698.234 1506.9,699.891C1506.93,700.139 1511.62,741.267 1513.24,782.297C1515.52,839.829 1509.98,862.748 1500.18,870.542C1498.73,871.702 1498.65,871.812 1496.81,871.572C1496.55,871.539 1495.03,871.342 1493.99,869.958Z" style="fill:rgb(0,0,54);"/>
    <path d="M1594.56,703.195C1595.85,704.347 1595.89,704.432 1595.99,706.159C1596.1,708.13 1595.88,708.156 1594.57,709.64C1567.54,740.385 1565.77,752.054 1543.25,767.957C1539.64,770.511 1536.24,772.411 1520.23,780.636C1520.05,780.728 1518.02,781.771 1518,781.773C1516.93,781.872 1515.82,782.379 1514.79,782.064C1514.77,782.059 1512.29,780.018 1512.29,780.009C1512.18,778.934 1511.67,777.817 1511.98,776.784C1512.54,774.981 1512.74,775.029 1514.39,774.11C1525.93,767.678 1528.3,765.533 1537.87,758.883C1558.76,744.364 1560.68,734.403 1588.49,703.542C1589.65,702.258 1589.73,702.216 1591.46,702.118C1593.24,702.016 1594.36,703.02 1594.56,703.195Z" style="fill:rgb(0,0,54);"/>
    <path d="M1629.96,885.36C1629.4,886.99 1629.33,887.054 1627.78,887.806C1625.99,888.675 1625.87,888.486 1623.99,887.823C1599.47,879.197 1591.89,858.366 1578,836.055C1576.38,833.449 1569.64,822.226 1557.75,809.404C1547.07,797.887 1537.42,791.261 1528.1,785.827C1526.63,784.975 1526.56,784.918 1526.11,783.287C1526.1,783.27 1526.49,780.072 1526.49,780.066C1527.34,779.404 1528,778.375 1529.03,778.085C1531.1,777.507 1531.15,777.852 1533.03,778.892C1557.88,792.685 1569.34,806.286 1571.21,808.406C1582.85,821.598 1591.26,839.114 1596.93,849.446C1605.48,865.025 1612.75,874.659 1627.33,879.905C1627.58,879.994 1629,880.506 1629.77,882.089C1630.52,883.639 1630.53,883.731 1629.96,885.36Z" style="fill:rgb(0,0,54);"/>
    <path d="M1712.27,876.32C1712.01,878.067 1711.95,878.144 1710.53,879.191C1708.8,880.464 1708.63,880.26 1706.52,879.872C1670.21,873.197 1672.75,795.003 1673.68,747.076C1673.77,742.665 1673.8,739.682 1673.81,739.039C1673.83,737.337 1673.87,737.256 1675.08,736.065C1675.09,736.053 1678.08,734.85 1678.09,734.854C1679.08,735.275 1680.3,735.358 1681.05,736.126C1682.57,737.679 1682.28,737.902 1682.25,740.076C1681.93,772.058 1678.38,840.364 1696.88,863.974C1702.42,871.058 1708.33,871.172 1708.6,871.323C1711.29,872.833 1711.3,872.852 1711.46,873.067C1712.51,874.487 1712.53,874.577 1712.27,876.32Z" style="fill:rgb(0,0,54);"/>
    <path d="M1670.44,679.208C1670.49,679.118 1670.54,679.031 1670.6,678.947C1672.3,676.528 1675.97,677.035 1676.46,677.102C1680.08,677.601 1683.82,680.71 1682.51,688.229C1681.48,694.101 1677.92,701.541 1676.36,703.065C1672.82,706.526 1664.87,703.35 1661.46,699.431C1660.76,698.626 1653.55,690.403 1667.29,681.147C1668.5,680.332 1669.69,679.632 1670.44,679.208ZM1674.13,686.845C1668.65,690.033 1667.14,692.512 1667.49,693.336C1667.83,694.121 1669.32,695.226 1670.97,695.775C1672.37,692.988 1673.69,689.374 1674.13,686.845Z" style="fill:rgb(0,0,54);"/>
    <path d="M1767.93,794.657C1763.93,804.074 1762.78,814.811 1765.78,826.92C1775.36,865.485 1806.38,879.663 1876.17,857.014C1900.97,848.964 1923.37,838.753 1941.39,831.867C1943.1,831.214 1944.54,831.861 1944.79,831.972C1944.8,831.979 1947.12,834.439 1947.12,834.448C1947.08,835.575 1947.47,836.8 1947.01,837.828C1946.54,838.857 1945.44,839.465 1944.55,840.156C1944.27,840.374 1944.16,840.139 1930.05,846.026C1884.85,864.873 1804.28,900.683 1768.6,857.045C1758.62,844.845 1754.01,828.133 1753.45,816.314C1753.07,808.186 1754.3,800.651 1756.82,793.704C1756.37,793.517 1756,793.296 1755.66,793.036C1754.23,791.96 1754.06,790.402 1754.03,790.138C1754.03,790.118 1754.86,787.279 1754.93,787.03C1755,786.776 1755.14,786.968 1759.64,786.501C1759.7,786.298 1759.77,786.066 1759.85,785.791C1760,785.815 1760.16,785.838 1760.33,785.86C1784.54,740.579 1865.22,723.908 1891.12,734.752C1894,735.959 1896.32,737.363 1899.88,741.413C1909.72,752.625 1908.32,764.931 1891.17,774.074C1861.86,789.699 1793.91,794.729 1767.93,794.657ZM1772.53,786.128C1801.99,785.523 1869.69,779.17 1891.28,763.254C1897.5,758.668 1896.74,755.108 1896.64,754.459C1896.42,753.197 1895.85,750.21 1890.5,745.246C1884.77,739.925 1860.35,738.894 1831.41,747.822C1809.28,754.651 1785.01,767.235 1772.53,786.128Z" style="fill:rgb(0,0,54);"/>
</svg>
