<?xml version="1.0" encoding="UTF-8" standalone="no"?>
<!DOCTYPE svg PUBLIC "-//W3C//DTD SVG 1.1//EN" "http://www.w3.org/Graphics/SVG/1.1/DTD/svg11.dtd">
<svg width="100%" height="100%" viewBox="0 0 2436 1125" version="1.1" xmlns="http://www.w3.org/2000/svg" xmlns:xlink="http://www.w3.org/1999/xlink" xml:space="preserve" xmlns:serif="http://www.serif.com/" style="fill-rule:evenodd;clip-rule:evenodd;stroke-linejoin:round;stroke-miterlimit:2;">
    <path d="M165.328,568.103C165.301,568.677 165.273,569.252 165.244,569.827C165.113,572.424 163.097,573.459 162.775,573.625C161.113,574.478 158.954,574.187 157.571,572.923C157.384,572.753 156.332,571.791 156.103,570.126C155.987,569.278 156.191,564.285 155.996,550.095C155.988,549.515 155.997,546.972 155.991,544.343C155.971,535.289 156.645,532.296 156.974,514.838C157.544,484.597 154.356,447.841 135.835,350.016C132.03,329.918 128.056,309.762 128.058,309.752C128.271,308.697 128.103,307.483 128.701,306.589C128.711,306.575 131.385,304.785 131.394,304.787C132.447,304.998 133.658,304.83 134.551,305.427C135.446,306.025 135.859,307.149 136.354,308.104C136.46,308.308 143.075,341.696 143.654,344.619C165.04,452.576 170.035,484.949 169.072,525.083C168.824,535.404 168.598,538.325 168.51,539.473C168.187,543.65 168.172,543.644 167.725,547.812C167.248,552.266 167.203,552.257 166.699,556.711C166.596,557.616 166.299,560.243 165.529,568.041L165.328,568.103Z" style="fill:rgb(0,0,54);"/>
    <path d="M144.812,346.151L151.521,351.295C151.153,351.585 150.861,351.964 150.492,352.253C150.192,352.489 148.71,353.23 147.11,352.816C144.993,352.27 143.609,350.092 144.012,347.944C144.23,346.785 147.953,338.161 153.455,329.223C174.181,295.557 201.141,285.935 229.222,312.39C238.543,321.172 244.323,330.897 245.383,332.681C250.972,342.086 253.724,349.797 255.507,355.354C258.01,363.157 261.064,375.102 262.459,393.366C264.842,424.543 261.675,454.441 267.658,463.476C268.783,465.174 270.334,466.31 274.425,465.211C276.162,464.744 276.263,464.675 277.836,465.552C277.851,465.56 279.87,468.107 279.869,468.115C279.742,469.194 280.013,470.402 279.484,471.351C278.524,473.073 278.343,473.014 276.434,473.516C260.436,477.724 257.182,462.006 256.203,457.02C253.047,440.949 254.446,415.072 249.771,387.354C249.736,387.149 248.039,375.239 243.752,361.83C243.344,360.552 241.26,354.035 237.601,346.225C227.654,324.993 213.83,314.898 213.602,314.722C206.379,309.156 190.678,299.82 170.893,320.797C163.028,329.136 156.269,340.578 152.131,350.187L148.193,348.676L148.472,348.168L144.812,346.151Z" style="fill:rgb(0,0,54);"/>
    <path d="M256.306,344.77C257.007,345.305 257.791,345.783 258.144,346.566C258.151,346.581 258.253,349.803 258.247,349.81C255.727,352.486 255.504,353.566 252.173,352.004C250.584,351.258 246.359,348.555 248.211,340.603C251.427,326.797 273.038,299.793 300.926,290.324C308.258,287.834 325.403,283.316 344.949,292.195C351.922,295.363 361.278,302.18 367.365,320.275C371.055,331.242 372.322,346.277 372.515,348.57C374.397,370.903 372.117,402.811 371.638,410.269C368.672,456.475 363.593,508.091 378.861,522.701C383.09,526.747 390.273,529.123 404.444,523.228C406.062,522.555 406.154,522.56 407.775,523.221C407.791,523.228 410.153,525.561 410.153,525.57C410.158,526.679 410.581,527.87 410.162,528.897C409.387,530.795 409.164,530.721 407.272,531.5C394.849,536.614 371.784,542.656 362.649,511.301C353.623,480.318 360.674,424.21 359.981,374.445C359.52,341.399 355.213,328.237 353.231,322.597C348.089,307.959 340.597,304.531 335.31,302.451C329.289,300.083 311.013,293.801 286.162,309.215C266.934,321.142 255.761,339.348 256.306,344.77Z" style="fill:rgb(0,0,54);"/>
    <path d="M475.572,305.268C483.845,298.976 494.339,293.137 505.6,292.206C537.12,289.602 551.839,326.397 557.748,343.966C562.64,358.514 566.803,376.988 568.138,387.936C573.645,433.099 557.417,486.6 524.115,508.033C500.339,523.336 475.774,516.361 459.008,505.47C447.578,498.046 440.402,487.704 439.129,485.869C433.934,478.382 423.211,460.309 422.219,428.054C420.766,380.849 440.501,331.337 460.424,313.393C461.619,312.316 467.627,306.621 475.572,305.268ZM460.079,327.243C440.776,353.476 427.949,409.162 439.194,450.982C446.962,479.874 463.531,490.344 467.319,492.86C483.235,503.434 496.154,502.212 497.216,502.158C525.542,500.728 546.41,468.719 554.264,434.434C561.296,403.738 556.208,380.744 555.184,375.361C540.178,296.486 511.84,298.999 500.103,302.146C495.908,303.271 491.845,305.128 488.067,307.331C488.449,307.536 488.833,307.756 489.217,307.992C492.227,309.841 491.451,310.573 490.858,314.057C490.857,314.066 488.205,315.942 488.189,315.945C486.411,316.35 486.339,316.231 484.778,315.293C484.234,314.967 484.22,314.976 483.673,314.699C483.664,314.695 483.655,314.691 483.645,314.686C483.122,314.446 481.498,313.579 478.939,313.623C470.819,320.064 465.44,326.564 465.359,326.604C464.382,327.082 463.512,327.963 462.427,328.034C462.415,328.035 460.993,327.554 460.079,327.243Z" style="fill:rgb(0,0,54);"/>
    <path d="M599.822,295.354C599.664,295.336 599.508,295.303 599.353,295.252C596.756,294.391 596.471,291.961 596.428,291.589C596.057,288.423 599.563,284.871 604.087,287.923C606.018,289.226 613.962,295.521 623.823,321.705C631.979,343.361 637.418,367.216 640.573,381.813C644.066,397.975 646.107,410.115 647.437,424.101C647.665,426.498 647.944,432.858 647.874,436.203C647.714,443.881 647.383,447.16 646.857,451.809C644.785,470.123 641.765,476.744 642.573,483.21C642.854,485.461 643.415,485.631 642.189,487.541C642.18,487.555 639.502,489.417 639.494,489.415C635.984,488.778 635.038,489.233 634.325,485.74C632.619,477.38 635.023,471.192 635.096,456.535C635.102,455.234 635.223,452.929 634.42,441.726C634.124,437.601 634.03,437.613 633.719,433.488C633.346,428.548 633.225,428.404 633.013,425.28C632.445,416.901 630.204,392.192 625.369,365.829C623.716,356.817 617.555,323.172 605.551,302.968C605.163,302.314 602.33,297.545 599.822,295.354ZM604.428,289.462C604.455,289.45 604.482,289.437 604.509,289.424L604.469,289.34C604.455,289.381 604.441,289.421 604.428,289.462Z" style="fill:rgb(0,0,54);"/>
    <path d="M624.139,316.097C624.005,317.394 623.483,318.026 621.352,318.835C620.758,319.06 617.474,320.598 615.117,318.431C613.749,317.173 612.466,314.081 615.774,311.214C617.932,309.345 623.478,305.816 629.99,301.593C630.08,301.535 630.067,301.519 633.438,299.513C633.636,299.395 634.133,299.126 636.295,298.002C636.544,297.872 643.273,294.797 649.748,292.314C705.354,270.993 747.961,272.56 752.781,272.646C754.542,272.678 754.629,272.712 755.859,273.975C755.87,273.987 757.104,277.081 757.101,277.089C756.661,278.111 756.571,279.375 755.774,280.151C754.207,281.676 753.989,281.391 751.799,281.389C740.483,281.38 705.988,281.908 656.557,302.326C648.482,305.661 643.445,307.996 642.318,308.518C637.591,310.71 630.045,312.88 624.139,316.097Z" style="fill:rgb(0,0,54);"/>
    <path d="M789.189,306.859C788.842,306.743 788.492,306.579 788.169,306.348C788.156,306.338 786.46,303.627 786.462,303.618C786.707,302.572 786.578,301.354 787.205,300.481C788.9,298.119 791.635,298.742 792.033,298.833C796.371,299.821 799.162,305.005 802.719,326.934C804.287,336.6 805.942,349.284 807.818,364.788C808.111,367.207 810.923,391.983 812.151,405.076C813.184,416.084 813.185,416.08 814.023,427.103C814.083,427.881 814.226,429.761 814.498,436.847C814.499,436.862 814.531,439.621 814.584,443.568C814.649,448.443 814.523,450.337 814.587,460.305C815.263,460.693 815.951,461.072 816.337,461.721C817.508,463.689 817.064,463.844 816.531,466.073C814.452,474.756 814.5,474.772 814.265,475.31C813.347,477.415 810.854,478.489 808.688,477.709C806.024,476.751 805.775,474.139 805.738,473.746C805.706,473.411 805.752,473.408 805.391,469.562C805.348,469.103 804.392,459.559 803.934,455.449C803.251,449.332 803.166,449.344 802.633,444.273C802.131,439.504 802.072,439.513 801.683,434.737C801.354,430.709 801.321,430.714 801.175,427.927L799.859,402.136C799.549,396.203 798.101,359.976 794.695,333.314C792.176,313.593 789.918,308.194 789.189,306.859ZM790.611,307.117C790.754,307.164 790.981,307.165 791.321,307.114C791.433,307.097 791.119,307.144 790.611,307.117Z" style="fill:rgb(0,0,54);"/>
    <path d="M990.098,461.954C991.192,463.368 991.212,463.462 990.985,465.236C990.709,467.396 990.412,467.347 988.681,468.667C983.79,472.395 971.901,481.16 963.297,473.452C952.937,464.172 954.853,435.391 951.134,397.213C948.115,366.232 940.863,325.634 915.036,295.574C909.817,289.499 895.507,273.091 875.509,272.761C872.092,272.705 855.261,272.116 834.185,292.831C818.789,307.964 808.483,327.597 807.018,336.033C806.718,337.759 805.52,338.626 805.311,338.778C805.297,338.788 802.16,339.539 802.153,339.534C801.235,338.968 800.035,338.706 799.402,337.833C798.206,336.181 798.385,336.028 798.757,334.021C801.377,319.877 821.2,285.006 848.435,269.584C864.926,260.247 893.541,252.682 923.661,286.754C932.406,296.645 938.481,307.737 939.553,309.695C951.507,331.521 955.993,355.802 956.495,358.282C965.834,404.402 960.895,450.642 967.912,464.552C969.338,467.378 970.755,468.08 974.005,467.012C978.467,465.547 983.811,461.169 983.87,461.151C986.83,460.229 986.875,460.235 987.144,460.269C988.918,460.496 989.004,460.54 990.098,461.954Z" style="fill:rgb(0,0,54);"/>
    <path d="M1018.8,259.822C1016.56,258.23 1016.42,258.265 1016.47,258.048C1016.74,257.006 1016.63,255.785 1017.27,254.923C1018.83,252.829 1021.08,253.208 1021.43,253.268C1023.59,253.632 1025.18,255.211 1028.82,262.855C1035.22,276.342 1040.97,294.616 1042.13,298.289C1043.53,302.754 1047.82,317.449 1050.46,329.892C1053.53,344.362 1055.25,356.128 1056.18,369.417C1056.2,369.745 1056.77,379.521 1056.55,389.365C1055.74,425.825 1049.13,457.097 1049.31,462.808L1048.76,462.874C1047.01,467.484 1047.17,467.666 1046.91,467.673C1045.83,467.702 1044.67,468.139 1043.66,467.75C1043.28,467.604 1041.09,466.763 1040.81,463.524C1040.3,457.612 1045.98,430.249 1045.58,395.99C1045.33,374.762 1043.04,359.546 1042.31,353.696C1041.76,349.325 1039.23,330.268 1035.71,313.883C1029.07,282.939 1020.62,264.529 1017.96,260.593C1017.73,260.769 1017.69,260.798 1017.94,260.575C1017.94,260.569 1017.93,260.562 1017.93,260.556L1018.21,260.348C1018.23,260.325 1018.26,260.3 1018.29,260.274C1018.35,260.221 1018.55,260.053 1018.8,259.822ZM1049.05,462.119L1049.11,462.094L1049.08,462.036C1049.07,462.064 1049.06,462.091 1049.05,462.119ZM1021.06,261.468L1021.08,261.646L1021.27,261.627C1021.2,261.573 1021.13,261.52 1021.06,261.468Z" style="fill:rgb(0,0,54);"/>
    <path d="M1006.08,228.481C1004.72,229.51 1004.63,229.529 1002.94,229.297C1000.74,228.995 1000.86,228.601 999.506,226.837C993.593,219.151 990.555,216.209 994.372,206.557C994.954,205.086 995.691,203.454 995.769,203.28C996.489,201.665 997.92,201.125 998.166,201.032C998.182,201.026 1001.45,201.129 1001.46,201.136C1002.2,201.931 1003.3,202.506 1003.69,203.526C1004.47,205.607 1004.08,205.69 1003.18,207.723C1000.59,213.554 1000.96,214.298 1002.14,216.16C1003.27,217.949 1006.87,222.456 1006.9,222.553C1007.65,225.437 1007.74,225.426 1007.71,225.682C1007.47,227.427 1006.28,228.325 1006.08,228.481Z" style="fill:rgb(0,0,54);"/>
    <path d="M1166.58,453.237C1167.02,453.493 1167.42,453.787 1167.69,454.205C1168.29,455.112 1168.24,456.314 1168.3,457.394C1168.33,457.925 1168.07,458.432 1167.97,458.953C1165.8,469.873 1165.85,469.883 1165.65,470.386C1164.79,472.573 1162.25,473.726 1160.03,472.932C1157.66,472.085 1157.23,469.96 1157.16,469.617C1156.96,468.648 1156.44,454.694 1155.83,445.392C1155.55,441.226 1155.6,441.226 1155.31,436.619C1155.25,435.646 1155.23,434.418 1155.03,430.145C1154.82,425.665 1154.93,398.147 1149.16,362.897C1149.08,362.351 1145.91,340.783 1135.86,303.134C1121.36,248.838 1113.5,243.408 1110.26,240.92C1108.49,239.564 1108.09,239.703 1107.76,237.503C1107.76,237.486 1108.53,234.361 1108.54,234.356C1111.55,232.555 1111.94,231.618 1114.76,233.701C1122.6,239.491 1130.05,248.59 1146.04,305.197C1153.31,330.914 1159.8,355.681 1164.07,386.554C1166.3,402.653 1167.01,417.165 1167.14,419.835C1167.53,427.693 1167.53,429.948 1167.52,430.828C1167.49,441.149 1167.07,443.89 1166.58,453.237Z" style="fill:rgb(0,0,54);"/>
    <path d="M1323.66,465.176C1324.14,466.868 1324.12,466.961 1323.26,468.492C1322.18,470.403 1321.9,470.221 1319.78,470.788C1307.12,474.176 1289.65,475.95 1283.64,453.998C1277.26,430.68 1283.91,388.841 1274.67,339.814C1266.44,296.11 1249.37,269.211 1242.53,258.78C1211.81,211.964 1159.7,247.267 1145.2,261.779C1142.66,264.313 1141.92,265.56 1141.92,265.565C1141.04,266.182 1140.32,267.177 1139.27,267.413C1139.25,267.417 1136.08,266.872 1136.08,266.864C1135.46,265.985 1134.46,265.272 1134.23,264.222C1133.78,262.232 1133.99,262.155 1135.14,260.475C1143.45,248.392 1195.15,206.847 1235.47,235.651C1244.75,242.28 1250.95,250.288 1258.52,262.543C1282.17,300.834 1288.85,339.944 1290.16,378.664C1291.64,422.322 1286.18,456.883 1300.37,462.862C1307.22,465.752 1318.04,462.11 1318.29,462.142C1321.34,462.52 1321.37,462.423 1321.6,462.553C1323.13,463.415 1323.19,463.486 1323.66,465.176Z" style="fill:rgb(0,0,54);"/>
    <path d="M1490.9,398.394C1492.17,399.556 1492.21,399.641 1492.28,401.36C1492.38,403.561 1492.01,403.532 1490.51,405.149C1449.71,449.126 1382.31,461.434 1359.22,413.453C1354.26,403.157 1343.42,374.763 1360.91,313.403C1381.08,242.651 1410.18,241.465 1426.46,239.605C1430.04,239.196 1430.72,238.859 1430.8,238.867C1431.87,238.969 1433.07,238.738 1434,239.268C1434.02,239.276 1436,241.818 1436,241.827C1435.87,242.895 1436.13,244.093 1435.6,245.03C1434.56,246.863 1434.33,246.735 1432.28,247.23C1420.51,250.069 1397.72,244.237 1378.09,289.874C1370.29,308.012 1361.07,340.186 1359.94,367.471C1356.55,449.209 1423.81,448.161 1469.16,413.108C1478.89,405.591 1484.75,398.706 1484.87,398.648C1487.6,397.382 1487.57,397.29 1487.83,397.279C1489.55,397.204 1489.64,397.232 1490.9,398.394Z" style="fill:rgb(0,0,54);"/>
    <path d="M1431.72,238.58C1432.53,233.409 1432.31,233.25 1432.58,233.185C1436.2,232.314 1437.08,231.465 1438.85,234.743C1439.06,235.121 1470.79,293.654 1490.78,365.791C1498.79,394.691 1503.45,420.549 1505.34,446.731C1506.04,456.52 1505.98,466.662 1505.97,468.396C1505.71,507.932 1497.04,534.171 1491.13,548.603C1487.35,557.856 1456.42,603.409 1417.5,602.37C1388.39,601.593 1369.56,575.153 1361.02,561.913C1360.03,560.375 1360.37,558.837 1360.42,558.571C1360.43,558.555 1362.35,555.781 1362.36,555.779C1363.47,555.582 1364.59,554.95 1365.69,555.19C1367.71,555.632 1367.67,555.875 1368.8,557.614C1386.27,584.605 1402.4,589.725 1406.73,591.011C1412.32,592.675 1431.47,597.926 1457.1,574.498C1470.57,562.187 1479.17,547.91 1480.51,544.537C1486.6,529.231 1489.49,512.589 1489.99,509.747C1494.27,485.092 1493.92,459.763 1491.89,437.114C1487.34,386.234 1472.21,339.758 1470.26,333.597C1464.03,313.916 1457.93,297.675 1451.86,283.002C1440.83,256.361 1431.69,239.283 1431.41,238.747L1431.72,238.58ZM1431.7,238.726L1431.49,238.857L1431.64,239.095C1431.66,238.969 1431.68,238.846 1431.7,238.726Z" style="fill:rgb(0,0,54);"/>
    <path d="M735.289,1032.45C736.041,1031.63 737.129,1030.08 740.906,1024.62C748.334,1013.88 751.482,1003.26 752.071,1001.28C752.32,1000.44 753.488,996.501 754.568,990.633C754.723,989.793 755.325,986.526 755.989,980.057C756.072,979.251 756.359,976.45 756.652,969.945C757.008,962.012 756.595,960.17 756.417,944.281C756.309,934.674 755.849,904.547 754.05,874.436C749.726,802.043 739.443,742.657 724.534,700.339C720.192,688.015 718.78,686.564 719.411,684.154C719.79,682.703 720.756,681.988 720.933,681.857C721.03,681.785 721.714,681.279 722.239,681.125C725.459,680.184 727.277,682.752 728.153,683.855C728.241,683.966 729.242,685.226 729.244,685.236C729.537,686.277 730.245,687.287 730.12,688.361C730.119,688.368 729.88,688.801 729.588,689.328C735.152,703.575 750.277,744.366 761.568,829.905C761.698,830.891 767.237,872.224 769.914,921.41C771.017,941.672 771.028,947.373 771.47,956.95C772.082,970.232 771.382,975.917 770.875,979.881C770.757,980.808 770.079,987.469 766.928,997.438C765.234,1002.8 762.584,1008.39 762.146,1009.31C755.983,1022.32 749.823,1028.96 745.521,1034.35C742.7,1037.88 738.704,1043.35 733.192,1041.62C729.871,1040.58 727.922,1037.3 726.524,1034.69C725.683,1033.11 726.137,1031.63 726.215,1031.38C726.22,1031.36 728.327,1028.81 728.336,1028.81C729.435,1028.71 730.579,1028.18 731.634,1028.51C734.104,1029.27 733.603,1029.95 735.045,1032.1C735.133,1032.23 735.214,1032.35 735.289,1032.45Z" style="fill:rgb(0,0,54);"/>
    <path d="M745.242,721.903C745.094,725.208 745.232,725.319 745.007,725.397C743.99,725.748 743.026,726.507 741.952,726.442C738.999,726.263 738.197,723.703 738.078,723.324C737.925,722.837 736.732,720.125 741.738,712.581C750.06,700.038 773.55,678.393 813.524,692.06C818.166,693.647 832.526,699.374 843.807,708.477C858.443,720.288 866.125,734.823 870.524,746.094C872.462,751.06 875.881,762.159 876.928,773.356C877.119,775.397 878.169,786.625 876.566,798.974C873.657,821.376 864.686,836.93 864.285,837.679C859.011,847.511 845.173,870.223 814.5,884.048C806.381,887.708 782.497,897.51 771.538,875.709C767.947,868.563 767.089,859.952 766.366,856.769C765.974,855.041 766.778,853.748 766.917,853.524C766.926,853.51 769.593,851.596 769.602,851.598C770.683,851.778 771.915,851.564 772.847,852.143C774.544,853.199 774.471,853.383 774.886,855.339C776.351,862.234 777.824,878.34 790.417,879.943C802.617,881.497 821.059,869.486 829.553,862.301C835.815,857.005 850.951,843.001 858.623,816.395C859.241,814.251 864.107,797.976 862.446,777.678C861.194,762.381 857.732,753.18 856.764,750.403C854.501,743.908 847.358,725.884 830.45,713.655C830.153,713.44 823.691,708.753 815.408,704.754C804.482,699.478 785.338,692.616 766.21,702.255C753.992,708.413 747.455,718.646 746.372,721.871C746.36,721.906 746.361,721.947 746.338,721.976C746.342,722.013 746.303,722.047 746.307,722.084C746.003,722.035 745.637,721.964 745.242,721.903ZM745.365,719.603L745.465,719.52L745.376,719.414C745.373,719.477 745.369,719.54 745.365,719.603Z" style="fill:rgb(0,0,54);"/>
    <path d="M916.306,808.904C916.121,808.756 915.915,808.574 915.673,808.35C915.66,808.339 914.291,805.38 914.294,805.371C914.67,804.351 914.691,803.112 915.429,802.312C915.577,802.152 915.712,802.011 915.838,801.886C914.31,760.224 936.361,739.366 944.036,732.635C945.825,731.067 955.02,723.003 969.064,716.584C991.789,706.198 1003.1,716.154 1004.85,729.567C1008.14,754.861 979.813,801.643 928.208,808.666C928.62,812.269 929.206,815.923 929.959,819.62C930.401,821.787 932.595,832.565 938.274,845.986C947.115,866.884 955.377,870.097 966.83,869.001C979.385,867.798 997.677,860.089 1024.96,849.879C1026.78,849.198 1026.76,849.127 1026.94,849.133C1030.01,849.239 1030.02,849.143 1030.27,849.253C1031.87,849.979 1031.93,850.044 1032.55,851.688C1033.17,853.332 1033.16,853.426 1032.43,855.024C1031.97,856.035 1030.9,856.652 1030.01,857.307C1030,857.311 1028.37,857.904 1023,860.005C988.813,873.384 968.398,883.681 951.615,877.585C939.061,873.026 930.808,859.987 923.138,838.92C917.996,824.798 916.637,812.376 916.306,808.904ZM927.562,800.069C976.812,792.828 1000.38,746.09 994.659,728.294C993.488,724.65 990.497,720.153 979.625,723.436C973.163,725.387 959.001,732.664 948.47,743.294C933.029,758.88 926.81,778.392 927.562,800.069Z" style="fill:rgb(0,0,54);"/>
    <path d="M1071.25,706.085C1067.55,703.263 1067.33,703.36 1067.4,703.102C1067.68,702.063 1067.59,700.84 1068.25,699.988C1070.34,697.276 1073.74,698.614 1074.18,698.792C1078.25,700.392 1083.53,706.799 1093.48,726.262C1094.6,728.443 1099.94,739.374 1103.39,747.998C1110.96,766.933 1113.17,778.11 1113.06,794.029C1112.9,816.255 1106.29,842.549 1105.18,847.188C1103.59,853.854 1102.46,858.192 1101.93,860.948C1102.53,861.985 1102.51,862.996 1102.51,863.205C1102.46,865.885 1100.15,867.056 1099.81,867.231C1096.96,868.679 1092.75,867.124 1093.07,862.028C1093.51,855.009 1103.03,825.5 1102.28,795.065C1102.27,794.834 1102.24,786.867 1100.68,778.049C1099.02,768.659 1092.99,749.821 1087.4,736.256C1080.36,719.135 1074.13,709.024 1070.99,706.653C1071.09,706.438 1071.17,706.251 1071.25,706.085ZM1095.29,859.979C1095.27,859.982 1095.26,859.994 1095.23,860.015C1095.19,860.06 1095.21,860.04 1095.29,859.979ZM1072.07,706.717L1072.08,706.775L1072.14,706.768C1072.12,706.751 1072.09,706.734 1072.07,706.717Z" style="fill:rgb(0,0,54);"/>
    <path d="M1110.71,736.857C1123.53,731.379 1142.36,723.655 1158.62,719.706C1198.62,709.989 1227.63,716.051 1233.45,717.248C1235.28,717.625 1235.36,717.687 1236.38,719.255C1236.39,719.269 1237.04,722.766 1237.04,722.774C1236.37,723.753 1236.02,725.06 1235.02,725.708C1233.19,726.898 1233.04,726.68 1230.91,726.223C1229.35,725.886 1193.23,717.056 1147.43,731.952C1127.01,738.596 1103.73,749.271 1101.97,749.793C1098.31,750.874 1095.42,747.237 1096.77,744.071C1097.27,742.888 1098.24,742.252 1098.4,742.141C1099.06,741.708 1102.73,739.893 1108.03,737.255C1109.36,736.592 1109.6,736.508 1110.71,736.857Z" style="fill:rgb(0,0,54);"/>
    <path d="M1296,769.874C1304.72,775.692 1354.63,799.576 1363.6,823.186C1364.18,824.733 1367.15,832.359 1362.47,840.147C1359.55,845.004 1337.13,865.832 1312.08,874.983C1305.45,877.404 1301.59,878.024 1300.65,878.174C1298.55,878.512 1289.79,879.989 1278.99,876.718C1268.53,873.55 1262,866.71 1260.05,864.712C1258.82,863.444 1258.85,861.912 1258.85,861.648C1258.85,861.631 1260.16,858.624 1260.17,858.621C1263.43,857.334 1263.97,856.408 1266.42,858.916C1276.12,868.827 1288.37,866.937 1291.87,866.434C1292.35,866.366 1294.3,866.126 1301.11,864.477C1323.58,859.034 1347.31,839.752 1352.45,833.882L1352.45,833.884C1353.09,832.903 1356.43,828.132 1345.81,816.548C1329.32,798.574 1294.16,780.546 1290.01,777.133C1289.85,777.008 1285.19,772.893 1283.56,766.2C1277.08,739.525 1326.17,711.021 1339.49,704.921C1344.12,702.8 1347.2,701.799 1349.52,703.785C1351.19,705.209 1351.09,707.213 1351.07,707.252C1350.66,708.248 1350.55,709.462 1349.78,710.21C1349.76,710.224 1347.02,711.308 1346.78,711.402C1346.68,711.438 1346.64,711.43 1346.46,711.246C1337.15,714.203 1296.99,738.052 1292.53,757.762C1291.07,764.215 1294.2,767.922 1296,769.874ZM1342.76,707.258C1342.71,707.205 1342.66,707.151 1342.6,707.097L1342.61,707.262L1342.76,707.258Z" style="fill:rgb(0,0,54);"/>
    <path d="M1473.21,727.207C1492.55,726.698 1512.86,736.724 1523.95,754.89C1552.85,802.25 1537.22,852.754 1515.81,877.068C1505.89,888.338 1497.36,891.678 1491.47,893.938C1486.16,895.976 1449.03,910.923 1427.61,877.254C1424.7,872.669 1417.24,860.013 1415.59,835.106C1415.19,829.134 1415.01,816.118 1417.28,801.488C1423.37,762.139 1442.49,724.269 1468.73,717.917C1469.29,717.781 1472.66,716.762 1474.75,719.138C1475.63,720.137 1476.71,722.407 1474.87,725.133C1474.39,725.852 1473.82,726.499 1473.21,727.207ZM1447.79,745.301C1444.89,749.709 1442.07,755.001 1439.46,761.311C1429.47,785.561 1425.7,818.176 1430.75,844.096C1432.5,853.091 1434.89,858.862 1436.52,862.405C1442.23,874.849 1449.41,878.839 1451.82,880.197C1451.82,880.197 1451.82,880.197 1451.82,880.198C1455.55,882.203 1466.8,888.44 1491.27,878.374C1510.88,870.311 1535.38,831.761 1526.45,788.518C1525.93,786.019 1523.13,772.417 1514.83,758.804C1501.07,736.229 1468.87,728.662 1449.78,744.272C1448.83,745.047 1448.52,745.285 1447.79,745.301Z" style="fill:rgb(0,0,54);"/>
    <path d="M1593.82,878.804C1594.2,877.92 1594.81,876.006 1595.33,872.028C1595.73,869.024 1595.63,868.67 1595.96,863.57C1596.09,861.659 1596.03,861.656 1596.24,859.752C1596.44,857.992 1596.39,857.989 1596.7,856.242C1596.94,854.923 1597.6,851.272 1599.4,839.707C1601.78,824.413 1606.72,790.383 1596.27,756.837C1590.85,739.432 1583.54,729.134 1580.59,724.071C1579.72,722.569 1580.1,721.112 1580.17,720.862C1580.17,720.845 1582.11,718.285 1582.12,718.284C1583.18,718.141 1584.27,717.589 1585.31,717.862C1587.43,718.42 1587.26,718.797 1588.41,720.667C1594,729.708 1614.09,758.102 1614.3,814.358C1614.35,827.447 1613.45,836.486 1612.39,846.449C1612.04,849.685 1610.72,859.136 1610.6,859.701C1610,862.562 1609.59,863.847 1609.48,864.2C1607.98,868.897 1607.93,868.88 1606.14,873.476C1602.56,882.677 1599.91,887.365 1595.4,887.671C1595.04,887.695 1593.15,887.824 1591.1,886.39C1589.57,885.322 1589.45,885.273 1589.16,883.432C1589.16,883.414 1589.92,880.253 1589.93,880.248C1590.86,879.681 1591.64,878.717 1592.72,878.548C1592.74,878.544 1593.24,878.66 1593.82,878.804Z" style="fill:rgb(0,0,54);"/>
    <path d="M1610.12,751.648C1609.48,753.565 1609.8,753.87 1608.1,754.999C1608.09,755.008 1604.94,755.635 1604.93,755.63C1604.04,755.031 1602.86,754.722 1602.26,753.827C1602.09,753.571 1601.21,752.245 1601.77,750.011C1605.32,736.05 1636.5,718.772 1661.63,719.206C1678.44,719.497 1693.12,727.596 1698.19,748.094C1706.76,782.705 1696.61,829.732 1704,854.954C1705.09,858.67 1705.12,858.924 1706.74,862.308C1708.45,865.88 1710.2,867.686 1711.26,868.751L1711.26,868.752C1713.03,870.501 1718.34,875.977 1733.77,876.661C1739.2,876.902 1745.98,876.329 1751.79,875.244C1753.53,874.92 1753.62,874.944 1755.08,875.943C1755.09,875.952 1756.92,878.755 1756.91,878.763C1756.68,879.855 1756.85,881.117 1756.21,882.038C1755.07,883.71 1754.88,883.603 1752.88,883.972C1744.88,885.451 1731.95,887.923 1720.15,885.915C1704.77,883.296 1698.14,874.712 1694.89,869.528C1694.06,868.212 1691.45,863.513 1689.98,857.55C1682.57,827.577 1695.11,785.184 1687.98,750.421C1686.65,743.913 1682.08,727.793 1658.46,728.381C1637.58,728.9 1613.87,742.547 1610.13,751.626L1610.12,751.648Z" style="fill:rgb(0,0,54);"/>
    <path d="M1621.07,586.016C1621.26,586.57 1621.58,587.834 1621.18,589.03C1621.18,589.046 1619.05,591.508 1619.04,591.509C1617.95,591.585 1616.81,592.076 1615.78,591.73C1611.89,590.431 1612.48,585.119 1612.55,584.489C1614.24,569.536 1646.41,529.784 1685.75,495.395C1743.46,444.939 1786.71,430.796 1796.85,427.496C1819.16,420.24 1833.74,419.742 1844.75,419.055C1885.42,416.517 1920.52,416.672 1947.78,415.541C1981.14,414.156 2004.05,411.214 2024.55,403.397C2043.17,396.298 2064.09,383.009 2082.81,351.483C2105.59,313.113 2117.24,261.408 2121.18,247.374C2146.16,158.617 2190.75,151.447 2235.42,134.581C2236.9,134.022 2239.43,133.014 2239.78,132.876C2241.43,132.222 2241.52,132.228 2243.14,132.924C2243.16,132.931 2245.5,135.326 2245.5,135.335C2245.49,136.454 2245.89,137.663 2245.45,138.691C2245.01,139.719 2243.93,140.346 2243.06,141.042C2243.06,141.042 2238.69,142.791 2233.04,144.917C2191.44,160.555 2153.56,170.053 2133.23,249.465C2130.66,259.506 2126.29,281.649 2117.39,308.748C2107.33,339.343 2092.2,373.652 2066.68,396.45C2044,416.709 2018.99,423.507 1999.53,426.83C1973.21,431.324 1945.58,431.314 1904.31,431.41C1892.34,431.438 1865.95,431.247 1835.92,432.716C1772.05,435.839 1698.94,490.6 1654.39,538.618C1630.79,564.057 1620.91,581.402 1621.07,586.01C1621.07,586.011 1621.07,586.011 1621.07,586.011C1621.06,585.946 1621.03,585.86 1620.97,585.747C1620.94,585.679 1620.99,585.785 1621.07,586.011C1621.07,586.013 1621.07,586.014 1621.07,586.016Z" style="fill:rgb(0,0,54);"/>
    <path d="M2087.95,130.904C2088.14,129.126 2088.19,129.043 2089.59,127.923C2090.47,127.216 2091.72,127.161 2092.84,126.969C2093.35,126.879 2135.25,132.392 2172.35,131.507C2212.68,130.546 2220.13,122.923 2244.34,128.233C2246,128.597 2246.07,128.653 2246.99,130.084C2247,130.098 2247.57,133.265 2247.56,133.273C2246.95,134.154 2246.62,135.332 2245.72,135.912C2243.81,137.137 2243.64,136.709 2241.42,136.252C2210.53,129.901 2207.7,148.125 2093.25,135.947C2093.14,135.936 2091.87,135.801 2091.87,135.8C2089.14,134.297 2089.08,134.379 2088.91,134.168C2087.79,132.772 2087.76,132.681 2087.95,130.904Z" style="fill:rgb(0,0,54);"/>
    <path d="M2233.31,141.766C2236.25,136.307 2236.2,136.218 2236.77,135.514C2238.24,133.696 2241,133.367 2242.86,134.79C2243.6,135.353 2245.43,137.345 2244.15,140.259C2243.02,142.828 2242.97,142.801 2241.3,146.828C2238.76,152.958 2238.83,152.982 2237.22,157.101C2233.93,165.528 2233.71,165.431 2229.9,173.642C2214,207.949 2209.19,225.388 2205.79,290.494C2205.59,294.244 2205.62,294.247 2205.59,294.3C2205.13,295.294 2205.01,296.54 2204.2,297.279C2204.19,297.29 2201.08,298.408 2201.07,298.405C2200.08,297.938 2198.84,297.809 2198.1,296.999C2196.65,295.416 2196.91,295.217 2197,293.076C2199.59,230.191 2201.72,209.461 2216.39,174.052C2217.8,170.633 2221.96,161.501 2222.32,160.771C2223.7,157.97 2224.71,156.202 2224.93,155.813C2226.68,152.743 2226.68,152.746 2228.49,149.715C2231.9,144.01 2233.01,141.934 2233.06,141.907C2233.14,141.86 2233.23,141.813 2233.31,141.766Z" style="fill:rgb(0,0,54);"/>
</svg>
