<?xml version="1.0" encoding="UTF-8" standalone="no"?>
<!DOCTYPE svg PUBLIC "-//W3C//DTD SVG 1.1//EN" "http://www.w3.org/Graphics/SVG/1.1/DTD/svg11.dtd">
<svg width="100%" height="100%" viewBox="0 0 2436 1125" version="1.1" xmlns="http://www.w3.org/2000/svg" xmlns:xlink="http://www.w3.org/1999/xlink" xml:space="preserve" xmlns:serif="http://www.serif.com/" style="fill-rule:evenodd;clip-rule:evenodd;stroke-linejoin:round;stroke-miterlimit:2;">
    <path d="M130.623,126.461C130.685,126.48 130.748,126.5 130.81,126.519C128.78,136.379 120.689,208.418 120.72,271.349C120.725,280.331 120.426,329.96 128.681,348.227C133.514,358.92 141.841,373.915 152.646,382.497C159.282,387.768 176.242,399.246 203.079,377.848C222.495,362.368 237.01,337.29 239.261,329.07C239.727,327.369 241.039,326.61 241.266,326.478C241.28,326.47 244.519,326.036 244.527,326.042C245.393,326.707 246.577,327.095 247.124,328.041C248.143,329.801 247.974,329.933 247.396,331.887C242.551,348.271 204.124,410.76 161.779,398.668C140.588,392.616 126.977,370.262 119.087,354.008C107.533,330.204 108.754,273.632 112.841,216.59C115.325,181.923 121.029,128.674 122.816,123.771C123.843,120.952 126.736,120.281 128.728,121.234C128.994,121.361 130.564,122.112 131.017,124.121C131.02,124.134 130.784,125.52 130.623,126.461ZM125.254,128.481C125.058,128.524 124.855,128.57 124.644,128.618L125.086,128.83L125.254,128.481Z" style="fill:rgb(0,0,54);"/>
    <path d="M922.949,544.419C898.146,565.425 849.769,605.587 809.71,633.883C779.647,655.119 766.811,660.724 760.377,662.946C758.722,663.517 757.371,662.853 757.138,662.739C757.122,662.731 754.994,660.314 754.994,660.305C755.064,659.234 754.737,658.055 755.21,657.092C756.163,655.15 756.485,655.38 758.515,654.633C787.307,644.036 857.927,587.381 916.6,537.188C930.943,524.919 934.501,521.639 935.224,521.203C937.33,519.933 939.32,520.777 939.646,520.915C942.083,521.948 943.344,524.825 942.091,527.527C939.691,532.703 930.435,549.424 923.724,566.75C913.466,593.233 905.773,628.214 903.907,688.479C903.274,708.908 908.119,754.472 917.532,765.264C918.668,766.566 919.413,766.759 919.573,766.8C920.437,767.456 921.611,767.838 922.163,768.773C922.171,768.787 922.632,771.989 922.627,771.996C921.975,772.861 921.6,774.038 920.667,774.589C917.378,776.533 913.203,772.907 912.706,772.475C910.611,770.656 902.754,763.752 897.761,727.598C895.716,712.786 894.821,697.48 895.057,688.235C896.091,647.82 899.778,622.51 902.524,607.76C907.689,580.025 914.939,561.423 922.949,544.419Z" style="fill:rgb(0,0,54);"/>
    <path d="M-4.181,1113.99C-4.636,1112.3 -4.619,1112.21 -3.746,1110.69C-2.664,1108.81 -2.388,1109 -0.293,1108.43C8.709,1105.97 16.004,1103.36 29.204,1097.19C35.616,1094.19 38.84,1092.43 48.423,1087.21C55.737,1083.22 58.276,1081.5 61.347,1079.82C173.59,1018.51 268.792,889.775 340.994,846.06C461.654,773.005 598.057,860.91 740.004,806.717C826.157,773.826 887.491,592.19 920.353,546.8C924.176,541.52 927.903,537.624 931.687,535.893C933.36,535.128 933.461,535.055 935.173,535.731C935.188,535.737 937.502,537.975 937.502,537.984C937.518,539.055 937.937,540.201 937.543,541.197C936.801,543.075 936.453,542.839 934.697,543.842C925.938,548.85 910.658,579.932 898.424,605.021C862.391,678.919 811.391,788.981 743.296,815.278C595.6,872.315 455.515,780.303 338.202,861.882C268.689,910.221 178.02,1032.07 67.463,1092.85C66.967,1093.12 56.303,1098.41 48.461,1101.55C32.421,1107.95 23.364,1110.55 22.327,1110.87C20.776,1111.35 12.343,1113.96 2.852,1116.6C2.257,1116.76 1.148,1117.06 1.147,1117.06C-1.89,1116.66 -1.915,1116.76 -2.145,1116.62C-3.714,1115.72 -4.112,1114.25 -4.181,1113.99Z" style="fill:rgb(0,0,54);"/>
    <path d="M206.171,170.455C206.514,172.181 206.492,172.272 205.516,173.736C204.223,175.675 203.889,175.341 201.613,175.846C177.265,181.245 95.65,216.771 65.855,212.97C61.484,212.412 59.144,211.158 57.985,210.459C57.751,210.318 56.354,209.475 55.956,207.71C55.953,207.693 56.499,204.52 56.507,204.515C59.3,202.548 59.565,201.631 62.528,203.326C70.938,208.135 100.59,199.666 103.18,198.957C139.102,189.114 183.487,170.673 201.011,167.023C202.774,166.656 204.08,167.526 204.304,167.675C204.527,167.824 205.82,168.686 206.171,170.455Z" style="fill:rgb(0,0,54);"/>
    <path d="M272.891,261.639C269.855,261.86 267.418,261.562 266.063,259.337C265.139,257.82 264.694,254.655 268.404,252.527C269.864,251.689 272.058,250.793 274.658,249.859C277.301,237.283 282.511,224.51 291.427,212.197C314.481,180.362 355.743,162.181 391.337,156.639C396.176,155.885 425.387,151.619 435.594,161.176C439.517,164.848 459.154,183.772 427.466,207.669C393.206,233.507 314.812,254.221 283.783,260.024C282.198,271.954 282.751,285.268 286.066,300.094C286.654,302.725 289.65,316.127 296.684,332.08C311.931,366.66 340.002,383.106 362.247,384.898C368.493,385.401 393.445,387.131 423.095,358.977C431.639,350.864 436.325,344.239 436.576,344.131C437.588,343.699 438.525,342.871 439.626,342.868C439.89,342.867 441.789,342.862 442.689,344.121C442.811,344.292 442.693,344.323 442.704,349.88L442.891,350.039C440.722,352.774 404.734,401.14 355.839,393.274C333.168,389.626 303.202,372.099 286.874,334.293C279.928,318.211 270.18,291.061 272.891,261.639ZM285.469,250.888C311.906,245.387 365.916,230.232 401.65,211.085C408.912,207.194 437.095,191.694 433.328,178.042C432.329,174.424 429.386,171.437 427.517,169.747C425.296,167.741 413.061,165.008 389.672,169.107C354.326,175.301 298.027,198.145 285.469,250.888ZM442.704,350.124C442.704,350.163 442.704,350.202 442.704,350.241L442.763,350.18L442.704,350.124Z" style="fill:rgb(0,0,54);"/>
    <path d="M505.008,358.922C512.282,364.174 517.67,365.271 529.308,367.125C583.238,375.712 603.16,352.056 625.606,328.822C626.547,327.848 626.543,327.85 627.988,326.345C629.197,325.085 629.285,325.052 631.032,325.016C631.049,325.016 634.132,326.218 634.136,326.227C634.579,327.238 635.435,328.16 635.458,329.264C635.502,331.433 635.165,331.408 633.666,332.973C618.118,349.201 602.395,370.348 571.888,378.371C564.672,380.269 546.722,384.255 517.375,379.515C499.799,376.677 490.592,367.06 487.046,363.014C478.018,352.716 474.877,341.279 473.773,337.058C471.712,329.181 468.68,313.455 472.6,289.425C477.401,260 494.18,218.375 527.39,189.561C556.752,164.087 584.792,161.303 596.856,160.8C598.567,160.728 598.653,160.761 599.914,161.92C599.926,161.931 601.291,164.865 601.288,164.873C600.917,165.887 600.898,167.116 600.168,167.911C598.803,169.397 598.61,169.211 596.594,169.318C549.987,171.787 516.375,207.186 498.993,246.948C482.27,285.199 485.822,315.765 485.904,316.82C486.211,320.775 487.153,332.921 493.186,344.745C497.709,353.61 503.174,357.56 504.989,358.909L505.008,358.922Z" style="fill:rgb(0,0,54);"/>
    <path d="M661.313,362.519C661.833,363.005 662.949,364.19 665.231,365.032C665.99,365.312 666.515,365.345 666.57,365.383C667.48,366.006 668.693,366.333 669.299,367.255C669.308,367.269 669.928,370.509 669.923,370.516C669.303,371.428 668.978,372.641 668.057,373.246C666.283,374.411 666.13,374.189 664.064,373.71C661.549,373.127 657.539,372.413 655.862,371.898C654.231,371.397 650.717,370.193 649.483,369.509C647.272,368.284 645.346,366.961 645.279,366.916C645.188,366.854 641.221,363.314 636.773,356.424C612.336,318.577 610.682,235.614 605.924,178.127C604.61,162.248 603.523,154.628 602.401,149.446C602.043,147.79 602.055,147.702 602.963,146.269C602.972,146.255 605.6,144.401 605.609,144.403C606.667,144.587 607.875,144.388 608.782,144.962C610.438,146.011 610.341,146.202 610.763,148.118C615.886,171.356 616.821,231.593 627.59,286.083C636.712,332.239 648.565,348.892 655.409,355.398C656.146,356.098 655.978,356.23 657.308,357.892C657.833,358.549 657.868,358.519 658.343,359.212C659.72,361.219 661.126,362.343 661.316,362.512L661.313,362.519Z" style="fill:rgb(0,0,54);"/>
    <path d="M695.785,383.674C695.165,383.51 694.913,383.122 694.852,382.149C694.835,381.877 694.649,378.922 694.651,378.749C694.656,378.265 700.743,341.026 703.913,302.176C709.686,231.413 704.435,188.163 699.12,162.124C698.671,159.923 698.267,159.756 699.489,157.871C699.498,157.857 702.15,156.031 702.159,156.032C703.215,156.228 704.425,156.042 705.326,156.626C706.228,157.211 706.639,158.338 707.162,159.276C707.27,159.47 708.345,165.024 708.442,165.525C721.682,233.897 714.81,327.513 709.34,370.718C708.665,376.052 708.02,380.705 708.019,380.71C707.94,380.985 706.927,383.693 706.831,383.952C706.443,384.99 706.363,384.955 705.984,385.993C705.876,386.291 705.843,386.614 705.733,386.911C705.584,387.314 704.658,389.822 701.632,390.375C701.222,390.45 698.673,390.916 696.716,388.665C695.112,386.82 695.451,384.893 695.51,384.556C695.548,384.339 695.613,384.231 695.785,383.674Z" style="fill:rgb(0,0,54);"/>
    <path d="M842.426,248.431C843.494,249.803 843.129,250.184 842.988,252.278C842.548,258.788 842.606,258.798 842.449,259.427C841.903,261.626 839.638,263.064 837.412,262.625C835.728,262.293 834.322,260.883 833.993,259.197C833.791,258.158 833.864,249.575 831.624,236.32C830.527,229.831 830.49,229.841 829.297,223.37C822.65,187.315 809.063,180.213 805.901,178.578C805.393,178.315 798.6,174.917 788.62,173.328C754.642,167.915 722.857,189.022 722.5,189.076C721.438,189.238 720.357,189.814 719.314,189.559C719.297,189.555 716.7,187.651 716.698,187.642C716.536,186.58 715.962,185.499 716.218,184.456C716.714,182.428 717.008,182.522 718.793,181.439C738.226,169.637 774.343,155.262 808.154,169.057C829.351,177.706 837.033,206.609 840.204,223.111C841.402,229.346 841.974,239.146 842.055,240.547C842.232,243.573 842.348,246.182 842.426,248.431Z" style="fill:rgb(0,0,54);"/>
    <path d="M961.371,397.936C962.025,398.248 962.66,398.581 963.066,399.155C963.726,400.091 963.746,401.363 963.831,402.506C963.884,403.208 963.465,403.883 963.473,404.586C963.491,406.178 963.796,407.755 963.91,409.344C963.964,410.104 964.012,410.868 963.974,411.63C963.932,412.483 963.419,413.479 963.343,413.628C961.732,416.761 958.681,417.015 958.187,417.056C955.251,417.3 953.413,415.55 953.101,415.252C952.977,415.134 953.031,415.084 951.621,413.709C950.226,412.348 949.069,410.979 948.912,410.795C948.438,410.242 948.501,410.204 948.228,409.533C937.18,382.413 955.469,325.892 956.376,274.584C957.099,233.687 946.453,205.358 913.598,195.639C870.274,182.823 846.996,192.746 837.8,201.81C836.488,203.103 836.116,203.417 834.498,203.671C833.832,203.775 831.853,203.553 830.682,201.914C829.149,199.77 830.289,197.596 830.462,197.267C831.308,195.653 831.336,195.35 832.82,194.859C839.232,188.938 862.288,171.733 916.135,186.844C972.552,202.675 970.751,266.072 965.885,317.116C962.834,349.123 957.877,381.035 961.371,397.936Z" style="fill:rgb(0,0,54);"/>
    <path d="M1270.33,325.613C1271.77,326.599 1271.82,326.68 1272.15,328.401C1272.56,330.573 1272.21,330.604 1270.96,332.423C1267.84,336.957 1249.34,364.961 1213.11,374.583C1172.58,385.346 1130.02,366.094 1127.19,321.534C1126.84,316.137 1127.02,303.822 1131.67,289.794C1137.87,271.139 1148,256.592 1155.43,247.029C1160.19,240.906 1166.15,234.637 1167.13,233.605C1194.35,204.99 1228.34,185.322 1253.21,183.244C1259.85,182.689 1264.31,183.501 1266.3,183.911C1269.71,184.61 1269.22,185.559 1269.85,188.976C1269.85,188.985 1268.03,191.634 1268.01,191.643C1266.2,192.818 1266.04,192.431 1263.92,192.063C1245.21,188.827 1215.87,202.236 1188.65,228.202C1187.41,229.388 1172.67,242.998 1159.8,263.275C1147.88,282.066 1144.37,296.461 1143.99,297.767C1142.66,302.447 1136.72,323.84 1146.24,341.602C1161.56,370.169 1204.96,375.023 1238.63,352.439C1255.44,341.159 1263.99,326.948 1264.28,326.757C1266.84,325.079 1266.8,324.991 1267.06,324.941C1268.78,324.613 1268.88,324.628 1270.33,325.613Z" style="fill:rgb(0,0,54);"/>
    <path d="M1177.11,454.752C1178.44,453.674 1178.53,453.652 1180.23,453.829C1182.28,454.041 1182.23,454.324 1183.54,455.909C1201.75,478.016 1225.4,486.85 1232.09,485.035C1232.47,484.931 1238.62,482.129 1245.21,477.288C1321.8,420.981 1260.68,244 1265.02,175.368C1265.25,171.847 1266.2,172.129 1269.54,170.995C1269.55,170.992 1272.43,172.417 1272.44,172.429C1273.83,174.012 1273.56,174.206 1273.44,176.307C1269.24,247.652 1337.5,440.244 1238.61,491.352C1236.02,492.688 1232.9,494.778 1224.72,493.189C1213.45,491 1193.34,481.341 1176.49,460.749C1175.38,459.388 1175.54,457.879 1175.56,457.619C1175.59,457.36 1175.75,455.856 1177.11,454.752Z" style="fill:rgb(0,0,54);"/>
    <path d="M1328.67,48.972C1328.39,47.59 1328.07,45.951 1328.03,45.71C1326.47,37.751 1326.67,35.7 1326.19,25.444C1326.19,25.287 1326.12,23.842 1326.16,23.479C1326.45,21.214 1328.57,19.523 1330.84,19.744C1332.6,19.915 1334.43,21.317 1334.7,23.577C1335.53,30.547 1338.26,59.8 1346.47,120.571C1354.58,180.52 1359.93,215.352 1355.91,256.983C1354.81,268.307 1353.08,280.784 1349.21,299.346C1349.04,300.15 1349.05,300.151 1348.05,303.797C1347.33,306.47 1345.29,312.16 1345.03,312.881C1342.9,318.853 1342.97,318.874 1340.82,324.84C1339.02,329.822 1338.98,330.512 1338.39,331.343C1338.17,331.651 1336.83,333.565 1334.13,333.333C1333.76,333.301 1331.45,333.104 1330.31,330.678C1329.76,329.527 1329.86,328.514 1329.88,328.324C1330.08,326.157 1330.36,323.997 1330.57,321.831C1330.64,321.121 1330.68,320.409 1330.73,319.697C1330.83,318.284 1330.88,317.95 1331.59,317.278C1332.57,310.866 1332.74,308.788 1332.97,307.105C1333.7,301.742 1333.82,301.112 1333.91,300.594C1334.4,297.84 1334.36,297.835 1334.97,295.104C1345.01,250.894 1345.88,222.731 1343.23,186.647C1340.91,155.041 1334.92,108.191 1328.67,48.972Z" style="fill:rgb(0,0,54);"/>
    <path d="M1543.07,173.845C1543.37,173.883 1543.71,173.93 1544.11,173.989C1543.98,182.309 1551.65,233.029 1541.85,275.558C1539.12,287.406 1533.6,305.724 1520.34,320.996C1512.67,329.83 1503.64,334.918 1502,335.845C1496.03,339.204 1485.72,343.833 1469.49,345.033C1464.96,345.367 1454.31,345.316 1450.19,344.303C1439.87,341.762 1427.94,330.313 1421.71,286.506C1416.89,252.537 1417.05,202.457 1422.14,174.4C1422.45,172.713 1422.5,172.636 1423.91,171.657C1423.92,171.648 1427.09,170.954 1427.09,170.959C1428,171.543 1429.2,171.829 1429.82,172.717C1431.1,174.559 1430.71,174.739 1430.34,176.951C1426.04,202.848 1426.17,248.731 1433.52,286.902C1439.77,319.374 1448.78,330.364 1454.06,330.629C1475.62,331.712 1487.62,326.226 1492.82,323.681C1496.15,322.049 1508.56,315.879 1518.74,298.962C1529.73,280.71 1539.2,248.748 1536.83,196.974C1536.12,181.272 1535.02,174.402 1535.83,171.881C1536.14,170.914 1536.67,170.328 1536.68,170.32C1537.82,168.896 1539.45,168.796 1539.72,168.78C1539.73,168.779 1542.82,169.84 1542.82,169.844C1542.93,170.1 1542.87,170.15 1543.07,173.845ZM1543.18,175.702C1543.18,175.766 1543.18,175.831 1543.19,175.896L1543.28,175.787L1543.18,175.702Z" style="fill:rgb(0,0,54);"/>
    <g transform="matrix(1,0,0,1,9.78263,-3.66431)">
        <path d="M1566.14,335.915C1567.33,337.181 1567.35,337.275 1567.27,339.007C1567.19,340.942 1567.03,340.98 1565.59,342.271C1558.76,348.386 1549.92,348.952 1543.03,336.873C1532.13,317.754 1528.34,271.681 1527.95,259.319C1527.9,257.62 1527.93,257.537 1529.1,256.296C1529.11,256.284 1532.04,254.956 1532.05,254.959C1533.06,255.338 1534.28,255.369 1535.06,256.104C1536.61,257.551 1536.35,257.773 1536.43,259.89C1537.15,278.315 1542.47,324.476 1552.82,335.974C1554.98,338.384 1556.51,338.421 1558.86,336.68C1560.87,335.186 1560.65,334.431 1563.16,334.534C1564.88,334.606 1564.96,334.652 1566.14,335.915Z" style="fill:rgb(0,0,54);"/>
    </g>
    <path d="M1620.84,235.508C1618.39,233.307 1619.25,229.688 1621.85,228.445C1632.9,165.879 1695.72,139.513 1727.55,168.471C1734.45,174.756 1746.67,199.177 1723.77,217.597C1717.77,222.421 1708.86,227.007 1697.19,230.08C1691.86,231.483 1682.96,233.556 1667.02,235.021C1654.67,236.155 1642.14,236.468 1633.51,236.546C1632.8,237.298 1631.8,237.816 1630.56,237.894C1629.11,251.688 1630.59,264.568 1632.63,274.357C1634.02,281.027 1639.45,304.293 1671.57,317.29C1676.05,319.105 1680.45,320.544 1688.15,322.3C1723.49,330.36 1766.1,292.949 1779.12,284.256C1780.6,283.272 1782.09,283.574 1782.35,283.626C1782.37,283.629 1785.08,285.45 1785.08,285.459C1785.28,286.528 1785.91,287.599 1785.69,288.666C1785.25,290.885 1784.83,290.712 1782.97,292.006C1768.36,302.185 1724.48,340.353 1685.2,330.826C1681.03,329.813 1632.66,321.076 1623.16,275.827C1620.1,261.222 1619.5,247.741 1620.84,235.508ZM1632.13,227.864C1647.68,227.472 1673.37,225.967 1696.08,218.431C1713.27,212.725 1727.66,204.036 1725.14,188.452C1724.29,183.166 1721.38,178.314 1719.8,176.85C1699.9,158.377 1661.72,169.135 1642.28,201.666C1637.18,210.204 1633.98,219.11 1632.13,227.864Z" style="fill:rgb(0,0,54);"/>
</svg>
