<svg clip-rule="evenodd" fill-rule="evenodd" stroke-linejoin="round" stroke-miterlimit="2" viewBox="0 0 2436 1125" xmlns="http://www.w3.org/2000/svg"><path d="m0 0h2436v1125h-2436z" fill="none"/><path d="m1242.97 570.951c-2.7 3.496-7.73 4.146-11.22 1.449-3.5-2.696-4.15-7.724-1.45-11.22 236.37-306.499 488.58-329.704 624.73-268.744 60.53 27.104 98.48 71.055 104.36 114.771 6.73 50.137-5.63 100.693-26.3 151.014-20.2 49.181-48.32 98.174-73.47 146.38-48.58 93.114-87.04 183.082-28.23 265.735 2.56 3.597 1.72 8.596-1.88 11.156s-8.6 1.718-11.16-1.88c-62.44-87.749-24.5-183.557 27.08-282.412 24.93-47.778 52.84-96.314 72.86-145.059 19.55-47.605 31.61-95.371 25.24-142.804-5.29-39.35-40.55-77.901-95.04-102.298-132.23-59.208-375.94-33.778-605.52 263.912z"/><path d="m197.99 446.955c-.704 3.454-3.649 6.143-7.327 6.379-4.364.279-8.144-2.996-8.487-7.355-12.411-157.478-1.538-157.382-11.545-314.791-.28-4.406 3.07-8.211 7.477-8.491 4.406-.28 8.211 3.07 8.491 7.476 6.999 110.095 3.772 143.081 5.459 206.925 1.385-3.814 2.869-7.234 4.427-10.296 12.147-23.869 28.995-28.534 42.653-27.299 11.982 1.083 21.766 7.258 24.931 10.281 21.784 20.808 20.577 58.634 4.538 89.489-14.672 28.227-41.194 49.815-70.617 47.682zm-.393-16.094c23.934 2.755 44.898-16.044 56.814-38.968 12.628-24.294 15.759-54.155-1.394-70.539-3.882-3.708-24.13-14.06-38.374 6.169-11.055 15.701-18.59 46.416-17.046 103.338z"/><path d="m325.285 387.209c.191.93.407 1.864.647 2.802 2.617 10.193 5.76 17.388 9.485 22.12 2.689 3.415 5.567 5.294 8.721 5.72 7.99 1.077 16.367-4.992 24.166-11.821 12.716-11.134 23.346-25.643 27.035-29.471 3.064-3.179 8.133-3.273 11.312-.209s3.272 8.133.208 11.312c-4.641 4.816-19.915 25.615-36.7 37.236-14.049 9.727-29.11 12.979-41.644 2.918-6.965-5.592-13.513-16.037-18.08-33.827-8.067-31.422 5.904-60.126 26.159-80.876 20.146-20.638 46.405-32.979 61.693-33.141 8.075-.085 13.89 2.893 17.069 7.715 1.987 3.013 3.117 6.951 2.653 11.987-.473 5.132-2.788 11.943-7.888 20.431-22.303 37.124-67.675 64.579-74.634 68.761-3.398 2.042-7.71 1.262-10.202-1.657zm-1.102-8.722c.655-1.339 1.691-2.511 3.062-3.335 6.429-3.863 48.558-28.992 69.161-63.287 2.679-4.459 4.413-8.207 5.238-11.344.27-1.025.434-1.954.463-2.794.017-.484.213-.909-.047-1.158-.774-.741-2.094-.614-3.604-.598-3.262.035-7.162.915-11.439 2.413-14.554 5.095-32.781 17.276-45.954 33.799-10.418 13.067-17.713 28.943-16.88 46.304z"/><path d="m506.859 262.321c3.626-2.52 8.616-1.621 11.135 2.005s1.62 8.616-2.006 11.135c-34.333 23.852-34.978 29.132-36.766 41.185-1.195 8.058 3.693 13.282 9.799 17.754 8.466 6.199 19.419 10.912 27.641 16.247 9.1 5.905 15.036 12.917 15.659 21.33.415 5.612-1.411 12.284-7.487 20.09-6.42 8.247-25.804 23.068-42.115 26.503-8.31 1.75-15.917.684-21.673-3.68-3.894-2.952-7.123-7.489-8.884-14.302-1.105-4.274 1.469-8.642 5.744-9.747s8.643 1.469 9.747 5.744c.726 2.807 1.767 4.786 3.459 5.829 1.728 1.065 3.88 1.118 6.176.852 4.721-.547 9.899-2.696 14.841-5.391 8.713-4.752 16.704-11.301 20.079-15.636 2.707-3.478 4.202-6.241 4.169-8.791-.031-2.376-1.697-4.117-3.702-5.883-3.478-3.063-8.237-5.725-13.264-8.473-8.535-4.663-17.757-9.479-24.525-15.565-8.348-7.507-13.335-16.791-11.491-29.228.947-6.382 1.659-11.422 4.885-17.247 4.374-7.9 13.926-17.604 38.579-34.731z" transform="translate(-21.4849 3.25229)"/><path d="m567.138 383.36c.538.934 2.535 4.056 5.177 4.092 2.5.034 5.219-1.74 8.685-5.374 5.202-5.456 10.956-14.567 17.351-28.883 1.801-4.031 6.536-5.842 10.567-4.041 4.032 1.801 5.843 6.536 4.042 10.567-8.381 18.763-16.152 29.683-22.76 35.735-6.475 5.929-12.385 7.855-17.285 7.989-5.641.155-10.346-2.05-13.908-5.069-5.235-4.437-7.584-10.726-7.771-12.906-.838-9.749 10.217-65.063 7.053-103.24-.61-7.362-1.752-14.026-3.769-19.417-1.514-4.047-3.383-7.331-6.301-9.064-3.796-2.255-5.047-7.167-2.792-10.963s7.168-5.047 10.964-2.792c4.701 2.792 8.521 7.228 11.368 13.111 3.496 7.223 5.57 16.868 6.476 27.804 3.089 37.286-7.397 90.927-7.097 102.451z"/><path d="m533.327 307.805c-4.186 1.407-8.725-.849-10.132-5.035-1.406-4.185.85-8.725 5.035-10.131 17.948-6.032 18.351-3.835 77.17-26.062 4.13-1.561 8.75.525 10.311 4.655 1.561 4.131-.525 8.751-4.655 10.312-59.248 22.389-59.65 20.185-77.729 26.261z"/><path d="m689.762 353.569c-3.863 2.138-8.735.737-10.873-3.126-2.138-3.864-.737-8.736 3.127-10.874 47.706-26.398 66.111-44.639 71.076-57.279 2.593-6.601-.247-10.269-2.248-10.931-17.299-5.721-42.067 1.965-61.244 15.996-18.678 13.667-32.527 33.759-26.964 55.369 1.902 7.386 12.829 35.794 37.976 44.946 17.162 6.246 40.471 2.931 71.877-20.332 3.548-2.628 8.562-1.881 11.19 1.667s1.882 8.562-1.666 11.19c-37.731 27.948-66.255 30.014-86.873 22.51-31.518-11.471-45.615-46.735-47.998-55.992-7.178-27.88 8.913-54.639 33.01-72.271 23.598-17.265 54.429-25.313 75.716-18.274 3.915 1.295 10.479 5.575 13.163 13.55 1.581 4.699 1.943 10.812-1.047 18.422-5.547 14.121-24.927 35.938-78.222 65.429z"/><path d="m900.076 340.508c-10.433-2.641-28.057-6.211-42.753-12.036-13.298-5.27-24.089-12.748-28.024-21.892-3.082-7.162-2.882-15.607 3.55-25.422 7.221-11.018 23.774-24.798 54.807-41.346 3.896-2.077 8.745-.601 10.823 3.295 2.077 3.896.601 8.746-3.295 10.824-23.196 12.368-37.612 22.683-45.491 31.542-5.395 6.066-7.468 10.667-5.697 14.782 2.589 6.017 10.473 9.875 19.222 13.343 16.277 6.451 36.279 9.968 45.346 12.63l3.74 1.77 1.707 1.452 1.411 1.786 1.596 3.986.211 3.723c-.332 4.345-3.323 10.787-8.702 17.521-10.493 13.134-29.864 28.482-44.903 32.454-6.685 1.766-12.736 1.435-17.546-.928-5.145-2.526-9.363-7.343-11.14-15.765-.912-4.321 1.855-8.568 6.175-9.48s8.568 1.856 9.48 6.176c.46 2.181 1.038 3.785 2.299 4.575 1.275.799 2.918.665 4.714.371 4.372-.717 9.306-3.066 14.274-6.141 5.913-3.658 11.8-8.393 16.82-13.262 4.517-4.382 8.335-8.854 10.715-12.743.227-.372.451-.792.661-1.215z" transform="translate(-17.8524)"/><path d="m973.876 370.747c.323-.22.816-.573 1.144-.893 1.005-.985 1.996-2.293 3.018-3.903 1.737-2.739 3.47-6.244 5.221-10.548 1.665-4.089 6.336-6.058 10.426-4.394 4.089 1.665 6.058 6.336 4.394 10.426-4.142 10.176-8.491 16.786-12.522 20.473-4.228 3.865-8.537 5.222-12.564 5.004-5.692-.308-11.879-4.257-16.787-13.046-12.135-21.727-20.265-79.4-16.579-148.337.235-4.409 4.006-7.797 8.415-7.562 4.409.236 7.798 4.007 7.562 8.416-3.468 64.863 3.153 119.239 14.571 139.682 1.104 1.977 3.035 4.008 3.701 4.682z"/><path d="m913.509 300.215c-4.372.618-8.423-2.429-9.042-6.801-.619-4.371 2.428-8.423 6.8-9.041 51.437-7.279 50.075-10.62 100.863-22.434 4.3-1 8.61 1.679 9.61 5.98 1 4.3-1.68 8.604-5.98 9.604-51.485 11.975-50.114 15.314-102.251 22.692z"/><path d="m270.653 906.546c.664 1.166 1.043 2.514 1.043 3.949v10.925c0 4.303-3.404 7.835-7.704 7.994-4.3.16-7.956-3.111-8.274-7.402-9.141-123.201-.809-122.896-9.069-243.957-.301-4.405 3.031-8.225 7.436-8.526 4.405-.3 8.226 3.032 8.526 7.437 7.925 116.145.569 120.537 8.042 229.58z"/><path d="m259.817 678.374c-3.775 2.291-8.699 1.086-10.99-2.688s-1.087-8.699 2.688-10.99c12.121-7.357 25.667-18.897 39.131-25.837 10.746-5.54 21.537-8.205 31.702-5.676 8.611 2.143 17.081 7.939 24.61 19.841 6.46 10.209 12.432 25.356 17.44 47.105 5.206 22.607 7.032 43.156-14.56 59.199-9.724 7.224-60.088 27.155-83.889 26.813-4.415-.063-7.947-3.699-7.884-8.113.063-4.415 3.699-7.948 8.114-7.885 21.026.301 65.527-17.277 74.117-23.659 15.444-11.474 12.234-26.595 8.511-42.765-4.473-19.422-9.602-33.024-15.37-42.141-4.699-7.427-9.579-11.531-14.953-12.868-8.589-2.137-17.576 2.294-26.642 7.851-11.08 6.79-22.035 15.749-32.025 21.813z"/><path d="m414.887 699.594c.53-3.019 1.136-5.924 1.829-8.711 4.97-19.998 14.303-34.319 30.334-42.268 16.102-7.983 39.772-9.407 74.517-1.786 4.313.945 7.047 5.215 6.101 9.528-.946 4.312-5.215 7.046-9.528 6.1-29.826-6.541-50.16-6.36-63.983.493-15.241 7.557-21.391 23.376-24.386 44.902-3.385 24.331-2.34 55.563-2.036 91.708.001.015.001.03.001.045.037 4.409-3.501 8.017-7.91 8.067-4.409.049-8.027-3.478-8.089-7.887 0-.015 0-.03-.001-.045-.055-3.922-.611-43.22-2.101-69.062-.098-1.69-.223-3.415-.363-5.105-3.369-1.28-5.56-4.739-5.093-8.472.657-5.245 1.322-8.623 1.89-10.458l.909-2.272 1.541-2.191 1.825-1.464 1.952-.851 2.032-.324z"/><path d="m571.725 684.444c4.189 1.395 6.457 5.929 5.063 10.118-1.395 4.189-5.929 6.458-10.118 5.063-4.091-1.362-6.82 1.952-9.247 6.297-4.127 7.388-6.519 18.334-7.14 30.099-.803 15.197 1.402 31.809 7.55 44.331 3.536 7.204 8.343 13.035 14.988 15.721 7.278 2.942 16.419 1.909 27.776-3.846 4.742-2.403 8.881-8.304 12.566-15.702 6.432-12.915 10.777-30.471 11.055-46.936.254-15.066-2.597-29.347-11.691-37.197-5.591-4.827-13.56-6.725-24.252-5.02-4.361.695-8.465-2.28-9.16-6.64-.696-4.361 2.28-8.465 6.64-9.16 16.506-2.633 28.597 1.257 37.228 8.709 12.241 10.567 17.575 29.297 17.233 49.578-.319 18.878-5.356 38.992-12.731 53.799-5.521 11.086-12.551 19.241-19.657 22.842-16.702 8.463-30.299 8.734-41.003 4.407-10.137-4.097-17.96-12.515-23.355-23.504-7.248-14.765-10.111-34.307-9.165-52.226.936-17.727 5.734-33.791 12.887-42.641 6.552-8.107 14.931-11.288 24.533-8.092z" transform="translate(-8.19917 -3.19755)"/><path d="m664.635 695.748c-1.595-4.117.453-8.755 4.57-10.35 4.118-1.595 8.755.453 10.35 4.57 7.085 18.29 52.199 99.114 8.393 183.527-5.725 11.031-11.296 17.762-16.315 21.436-4.631 3.391-9.114 4.606-13.303 4.444-8.769-.339-17.319-7.87-23.721-19.679-9.795-18.068-16.008-45.866-18.196-52.327-1.416-4.182.83-8.727 5.013-10.143 4.182-1.416 8.727.83 10.142 5.012 2.081 6.145 7.792 32.65 17.107 49.833 1.958 3.611 4.042 6.775 6.365 9.021 1.256 1.215 2.458 2.239 3.908 2.295 1.533.06 2.977-.987 4.712-2.597 3.209-2.98 6.51-7.774 10.086-14.665 40.684-78.395-2.531-153.391-9.111-170.377z"/><path d="m654.188 588.271c-3.387-2.832-3.838-7.881-1.005-11.269 2.832-3.387 7.881-3.838 11.268-1.005l8.132 6.799c3.388 2.832 3.838 7.881 1.006 11.269-2.832 3.387-7.881 3.838-11.269 1.006z"/><path d="m767.984 756.465c.394 6.669 1.398 12.957 3.131 18.556 2.388 7.713 6.101 14.056 12.01 17.547 4.816 2.846 10.981 3.63 18.637 2.205 9.174-1.708 20.122-6.469 33.188-14.823 3.72-2.378 8.671-1.289 11.049 2.431 2.379 3.72 1.29 8.671-2.43 11.049-32.125 20.541-54.394 21.297-68.583 12.914-9.107-5.381-15.476-14.704-19.155-26.592-4.863-15.711-5.045-36.145-1.898-56.146 4.07-25.88 13.727-50.929 24.875-64.112 6.144-7.265 13-11.216 19.606-11.693 21.767-1.572 34.721 4.895 41.189 14.144 6.67 9.537 7.039 22.991 1.323 37.112-9.861 24.359-37.98 51.046-72.942 57.408zm.148-16.353c27.761-6.216 50.026-27.452 57.963-47.059 3.378-8.343 4.337-16.303.396-21.939-4.145-5.927-12.974-8.362-26.925-7.354-1.718.124-3.334 1.129-4.993 2.496-2.549 2.1-4.976 5.092-7.305 8.697-8.008 12.395-14.448 31.546-17.53 51.139-.735 4.675-1.282 9.377-1.606 14.02z"/><path d="m917.743 683.602c2.326-3.753 7.261-4.912 11.014-2.587 3.753 2.326 4.913 7.261 2.587 11.014-3.253 5.251-19.013 30.646-27.139 61.421-5.214 19.746-7.365 41.789-.333 61.916 1.188 3.401 2.713 5.702 4.911 6.804 2.258 1.13 4.948.984 7.834.38 5.613-1.174 11.733-4.289 17.74-8.067 16.51-10.386 31.928-26.02 34.147-28.265 3.104-3.14 8.173-3.169 11.313-.065 3.14 3.105 3.169 8.174.065 11.314-2.91 2.943-26.695 26.835-48.278 36.739-10.594 4.862-20.848 6.245-28.805 2.819-5.867-2.527-10.937-7.521-14.032-16.382-8.094-23.17-6.034-48.547-.032-71.278 8.698-32.942 25.526-60.142 29.008-65.763z"/><path d="m1025.03 610.331c.35-4.401 4.22-7.684 8.62-7.327s7.68 4.22 7.32 8.621c-.6 7.437-8.64 105.054 1.63 153.974 1.47 7.002 3.28 12.917 5.67 17.181 1.26 2.245 2.32 4.139 4.17 4.405 1.13.163 2.31-.401 3.71-1.226 2.71-1.598 5.65-4.288 8.94-8.08 4.75-5.471 10.03-13.063 15.93-23.063 2.24-3.802 7.15-5.068 10.95-2.824 3.8 2.243 5.07 7.152 2.83 10.955-9.98 16.904-18.55 27.565-25.68 33.387-6.41 5.226-12.21 7.056-17.14 6.856-5.65-.23-10.69-2.96-14.85-8.307-4.32-5.565-7.8-14.601-10.19-25.997-10.57-50.376-2.53-150.897-1.91-158.555z"/><path d="m1002.58 692.505c-4.416.204-8.162-3.211-8.366-7.621-.205-4.411 3.211-8.157 7.626-8.362 46.63-2.158 46.06-.671 92.29-8.841 4.35-.769 8.51 2.137 9.28 6.485.76 4.348-2.14 8.502-6.49 9.27-47.26 8.352-46.67 6.863-94.34 9.069z"/><path d="m963.162 665.691c.705-.16 1.444-.225 2.201-.183l3.304.746 2.113 1.414 1.409 1.737.88 2.091.239 2.635-.489 2.211-.86 1.664-2.332 2.269-2.358 1.014-1.646.24c-2.513.159-30.621 1.566-41.517 30.623-1.55 4.134-6.166 6.232-10.3 4.681-4.134-1.55-6.232-6.165-4.681-10.299 12.932-34.485 46.626-40.032 54.037-40.843z" transform="translate(-.382865 -6.25162)"/><path d="m1755.1 931.408c-3.41-2.807-3.9-7.853-1.09-11.261 2.81-3.409 7.85-3.898 11.26-1.092 44.06 36.267 45.62 39.743 87.16 67.361 16.71-83.087 26.11-96.726 48.4-110.8 3.74-2.357 8.68-1.239 11.04 2.495s1.24 8.678-2.5 11.035c-11.91 7.518-18.91 15.189-26.11 37.225-5.3 16.233-10.59 39.595-17.44 74.819-.51 2.62-2.29 4.81-4.75 5.85-2.45 1.03-5.27.77-7.5-.69-52.19-34.323-50.48-35.44-98.47-74.942z"/></svg>