<?xml version="1.0" encoding="UTF-8" standalone="no"?>
<!DOCTYPE svg PUBLIC "-//W3C//DTD SVG 1.1//EN" "http://www.w3.org/Graphics/SVG/1.1/DTD/svg11.dtd">
<svg width="100%" height="100%" viewBox="0 0 800 600" version="1.1" xmlns="http://www.w3.org/2000/svg" xmlns:xlink="http://www.w3.org/1999/xlink" xml:space="preserve" xmlns:serif="http://www.serif.com/" style="fill-rule:evenodd;clip-rule:evenodd;stroke-linejoin:round;stroke-miterlimit:2;">
    <rect id="left" x="0" y="0" width="800" height="600" style="fill:none;"/>
    <g id="left1" serif:id="left">
        <path d="M62.113,187.275C67.784,184.5 70.525,179.343 71.718,173.157C73.204,165.451 72.226,156.113 72.239,148.29C72.252,130.155 68.209,96.168 74.077,71.47C76.857,59.769 81.84,50.171 90.815,45.701C95.88,43.212 100.374,42.642 104.309,43.112C111.083,43.921 116.151,47.829 119.716,50.063C120.659,50.654 121.484,51.219 122.265,51.457C123.287,51.769 124.085,51.822 124.763,51.626C125.478,51.626 126.058,51.046 126.058,50.331C126.058,49.616 125.478,49.036 124.763,49.036C124.427,48.939 124.286,48.498 123.853,48.196C123.284,47.798 122.56,47.391 121.772,46.87C117.92,44.322 112.152,40.374 104.704,39.591C100.202,39.117 95.068,39.794 89.323,42.716C79.551,47.622 73.936,57.961 70.934,70.727C65.068,95.678 69.11,129.98 69.124,148.29C69.137,155.937 70.114,165.052 68.739,172.598C67.779,177.871 65.666,182.373 60.883,184.815C60.204,185.155 59.929,185.981 60.268,186.66C60.607,187.339 61.434,187.614 62.113,187.275Z"/>
        <path d="M55.068,142.077C55.809,143.3 57.38,144.173 59.583,144.553C62.08,144.983 65.522,144.73 69.15,144.123C73.08,143.465 77.32,142.546 80.661,141.199C84.473,139.662 87.114,137.77 87.82,136.858C88.269,136.409 88.269,135.681 87.82,135.233C87.372,134.784 86.644,134.784 86.196,135.233C85.482,135.771 83.159,136.072 80.208,136.886C75.852,138.087 70.189,139.934 65.362,140.576C62.982,140.893 60.856,140.99 59.279,140.717C58.613,140.602 58.028,140.585 57.724,140.218C57.211,139.484 56.199,139.306 55.466,139.819C54.733,140.332 54.554,141.344 55.068,142.077Z"/>
        <path d="M105.405,136.976C104.143,138.926 103.531,141.852 103.48,145.023C103.398,150.053 104.614,155.664 105.89,158.237L106.79,160.958C107.016,161.834 107.888,162.381 108.775,162.201C109.662,162.02 110.252,161.177 110.117,160.282L110.081,160.112L110.083,160.112L110.078,160.099C109.97,159.589 109.662,158.077 109.409,156.287C109.126,154.282 108.928,151.926 108.924,150.331L108.249,138.603C108.348,138.465 108.457,138.339 108.573,138.223C110.282,136.518 113.453,135.297 117.047,134.4C119.882,133.693 122.998,133.353 125.918,132.942C128.07,132.64 130.09,132.25 131.906,132.091C132.539,132.091 133.054,131.577 133.054,130.943C133.054,130.31 132.539,129.795 131.906,129.795C130.008,129.629 127.856,129.456 125.588,129.585C122.481,129.76 119.228,130.44 116.24,131.202C113.014,132.026 110.111,133.137 108.014,134.511L107.691,128.902C107.691,128.187 107.111,127.607 106.396,127.607C105.681,127.607 105.1,128.187 105.1,128.902L105.405,136.976Z"/>
        <path d="M164.822,130.647C157.116,129.067 149.261,134.546 145.625,141.396C141.719,148.756 142.547,157.509 152.838,161.004C165.168,165.182 175.014,155.509 178.912,144.944C181.892,136.866 181.171,128.422 176.412,125.416C173.573,123.623 169.144,123.532 163.016,126.837C162.439,127.125 162.205,127.828 162.494,128.404C162.782,128.981 163.484,129.215 164.061,128.927C169.068,126.614 172.509,126.502 174.694,128.019C176.274,129.116 177.031,131.074 177.283,133.409C177.613,136.461 177.01,140.136 175.674,143.742C172.34,152.742 164.374,161.481 153.831,158.025C145.775,155.39 145.203,148.511 148.189,142.74C151.214,136.892 157.741,132.002 164.296,133.281C165.022,133.426 165.731,132.954 165.876,132.227C166.021,131.5 165.549,130.792 164.822,130.647Z"/>
        <path d="M189.096,156.874C188.987,157.048 188.925,157.254 188.925,157.474C188.925,158.546 189.862,158.655 190.024,158.663C190.166,158.669 190.888,158.673 191.186,157.829C191.228,157.708 191.332,157.372 191.448,156.877C191.89,154.986 192.715,150.445 193.318,148.693C194.148,146.194 194.651,143.729 194.954,141.2C195.375,137.685 195.407,134.047 195.403,130.015C195.677,129.959 195.931,129.802 196.103,129.555C196.464,129.04 196.338,128.33 195.824,127.97L195.386,125.771C195.348,125.102 194.785,124.586 194.116,124.605C193.446,124.624 192.914,125.172 192.914,125.841L192.899,129.923C192.894,133.882 192.863,137.451 192.443,140.896C192.155,143.256 191.682,145.557 190.902,147.887C190.312,149.716 189.453,154.423 189.114,156.408C189.085,156.582 189.08,156.737 189.096,156.874Z"/>
        <path d="M197.018,134.83C198.758,133.106 199.782,132.108 200.673,131.392C201.849,130.446 202.792,130.011 204.899,128.97C214.19,124.335 218.578,123.611 220.558,125.669C222.719,127.917 221.612,132.914 220.801,137.898C219.846,143.767 219.204,149.611 221.828,152.245C224.172,154.619 226.095,155.26 227.803,155.185C229.12,155.128 230.343,154.617 231.588,153.998C232.903,153.344 234.25,152.533 235.988,152.488C236.615,152.488 237.125,151.979 237.125,151.351C237.125,150.724 236.615,150.214 235.988,150.214C232.621,150.151 230.386,152.487 227.692,152.585C226.513,152.628 225.255,152.076 223.616,150.458C221.388,148.237 222.454,143.261 223.251,138.294C224.19,132.439 224.875,126.595 222.333,123.96C220.011,121.552 214.68,121.347 203.811,126.794C202.036,127.692 201.026,128.198 200.067,128.863C198.875,129.69 197.761,130.761 195.366,133.178C194.91,133.634 194.91,134.375 195.366,134.83C195.821,135.286 196.562,135.286 197.018,134.83Z"/>
        <path d="M262.4,89.937C260.621,100.496 258.732,110.995 257.503,121.71C256.696,128.75 256.172,135.883 256.156,143.188C256.15,148.535 258.076,155.031 261.653,157.132C264.124,158.584 267.479,158.318 271.482,154.193C271.924,153.751 271.924,153.033 271.482,152.591C271.04,152.149 270.322,152.149 269.88,152.591C266.942,155.443 264.706,156.001 262.96,154.943C259.999,153.147 258.681,147.651 258.677,143.188C258.66,135.977 259.142,128.934 259.91,121.981C261.091,111.303 262.942,100.84 264.677,90.317C264.781,89.688 264.356,89.093 263.728,88.989C263.1,88.884 262.505,89.309 262.4,89.937Z"/>
        <path d="M249.854,120.976C253.263,122.156 256.267,122.634 259.087,122.64C265.997,122.654 271.688,119.954 279.865,119.843C280.497,119.843 281.01,119.33 281.01,118.698C281.01,118.066 280.497,117.554 279.865,117.554C271.718,117.443 265.981,119.812 259.096,119.784C256.539,119.773 253.807,119.46 250.692,118.461C249.998,118.23 249.247,118.605 249.016,119.3C248.784,119.994 249.16,120.745 249.854,120.976Z"/>
        <path d="M296.824,136.262C294.905,136.555 293.236,136.774 291.966,136.937C291.332,137.016 290.881,137.595 290.96,138.23C291.04,138.864 291.619,139.315 292.254,139.236C293.387,139.097 294.831,138.917 296.485,138.682C295.705,146.334 297.778,153.627 303.753,156.636C308.128,158.832 312.96,158.696 317.804,157.375C324.379,155.582 330.962,151.612 336.417,149.363C337.009,149.126 337.297,148.453 337.06,147.861C336.824,147.269 336.15,146.98 335.558,147.217C330.147,149.316 323.579,153.025 317.096,154.732C312.902,155.835 308.74,156.114 304.956,154.23C299.701,151.621 298.278,145.041 299.117,138.288C304.797,137.391 311.984,135.924 317.65,133.547C321.982,131.731 325.422,129.339 326.895,126.397C328.92,122.338 327.068,119.433 323.646,117.673C319.745,115.668 313.632,115.326 310.087,116.508C303.918,118.549 298.83,126.646 297.028,135.196C296.954,135.551 296.885,135.907 296.824,136.262ZM299.518,135.829C303.797,135.102 308.823,134.047 313.336,132.534C318.515,130.798 323.052,128.535 324.672,125.286C325.945,122.746 324.658,120.973 322.515,119.869C319.165,118.142 313.913,117.833 310.867,118.848C305.376,120.691 301.107,128.09 299.539,135.719L299.518,135.829Z"/>
        <path d="M357.625,116.448C361.127,119.957 361.921,130.643 360.96,140.834C360.335,147.463 358.9,153.893 356.814,158.102C355.537,160.678 354.131,162.451 352.314,162.463C351.688,162.463 351.18,162.971 351.18,163.596C351.18,164.222 351.688,164.73 352.314,164.73C354.47,164.748 356.487,163.283 358.13,160.622C360.172,157.313 361.707,152.089 362.632,146.312C364.604,134.007 363.639,119.209 359.248,114.826C358.8,114.378 358.073,114.378 357.625,114.826C357.177,115.274 357.177,116.001 357.625,116.448Z"/>
        <path d="M365.314,127.768C367.756,125.737 372.196,122.819 375.166,120.584C376.211,119.798 377.082,119.088 377.648,118.523C379.484,116.691 381.779,117.278 383.949,118.617C387.684,120.923 391.106,125.533 392.04,127.407C394.799,132.958 391.729,150.008 395.933,156.951C398.119,160.562 401.998,162.072 408.948,158.496C409.512,158.214 409.741,157.527 409.459,156.963C409.177,156.398 408.49,156.169 407.925,156.451C402.662,159.008 399.759,158.343 398.147,155.625C394.039,148.697 396.985,131.812 394.221,126.316C393.178,124.237 389.368,119.12 385.211,116.567C382.019,114.606 378.65,114.136 375.959,116.833L363.804,125.955C363.304,126.372 363.236,127.117 363.653,127.617C364.069,128.117 364.814,128.185 365.314,127.768Z"/>
        <path d="M452.21,135.289C451.697,136.623 451.172,137.926 450.637,139.193C446.972,147.866 442.937,154.874 438.378,157.153C435.62,158.537 433.216,157.055 431.415,154.683C428.579,150.948 427.079,144.953 428.188,141.609C429.946,136.265 432.826,132.397 436.745,130.133C440.593,127.909 445.414,127.228 451.082,128.13C451.782,128.247 452.446,127.773 452.562,127.073C452.679,126.373 452.205,125.71 451.505,125.593C445.144,124.485 439.714,125.247 435.357,127.701C430.853,130.238 427.475,134.598 425.42,140.686C424.073,144.704 425.647,151.973 429.045,156.477C431.761,160.077 435.536,161.92 439.719,159.835C443.695,157.847 447.476,152.69 450.873,145.873C450.258,154.435 451.165,161.315 454.406,164.565C455.854,166.005 458.059,166.529 460.576,166.342C464.967,166.016 470.356,163.599 473.083,162.639C473.681,162.439 474.004,161.792 473.805,161.194C473.606,160.597 472.959,160.273 472.361,160.472C470.084,161.185 465.879,162.846 462.071,163.447C459.764,163.811 457.599,163.891 456.344,162.628C452.751,159.044 452.794,150.494 454.147,140.307C454.269,139.387 454.404,138.454 454.552,137.513C461.451,120.038 466.501,97.323 469.018,88.486L475.121,64.961L477.122,54.647C477.231,54.03 476.903,53.418 476.328,53.167C475.754,52.916 475.082,53.09 474.702,53.589C474.702,53.589 473.178,55.705 471.947,57.918C471.298,59.086 470.724,60.278 470.483,61.251C469.104,66.753 467.435,72.125 466.003,77.619C465.389,79.976 464.818,82.354 464.332,84.775C462.407,94.343 455.364,116.588 452.21,135.289ZM472.619,63.038C471.309,68.14 469.778,73.145 468.454,78.255C467.855,80.567 467.299,82.9 466.827,85.274L466.722,85.782L472.365,64.272L472.619,63.038Z"/>
        <path d="M225.944,267.709C225.581,268.999 225.207,270.263 224.823,271.495C222.024,280.489 218.92,287.778 214.909,289.806C207.731,293.44 203.05,293.234 200.439,290.549C197.371,287.393 197.322,281.308 199.263,275.506C202.531,265.736 211.79,256.57 224.17,262.742C224.825,263.07 225.622,262.804 225.95,262.149C226.277,261.494 226.011,260.696 225.356,260.369C211.203,253.272 200.457,263.466 196.673,274.634C194.336,281.532 194.783,288.726 198.406,292.511C201.596,295.843 207.366,296.875 216.25,292.489C220.06,290.605 223.54,284.679 226.41,276.799C226.645,278.555 226.974,280.113 227.408,281.422C228.898,285.824 232.642,290.812 237.261,293.115C240.54,294.75 244.215,295.076 247.718,293.18C248.276,292.9 248.503,292.22 248.224,291.662C247.945,291.103 247.265,290.876 246.706,291.156C243.893,292.449 241.1,291.914 238.601,290.549C234.728,288.434 231.521,284.239 230.282,280.464C229.338,277.65 228.935,273.625 228.911,268.943C233.881,251.323 236.807,228.859 238.34,221.005C239.236,216.394 239.423,210.768 240.366,205.804C240.778,203.638 241.329,201.603 242.184,199.858C242.507,199.203 242.647,198.258 242.639,197.285C242.626,195.659 242.257,193.961 242.257,193.961C242.14,193.409 241.652,193.015 241.088,193.015C240.524,193.016 240.038,193.412 239.922,193.964L238.936,197.913C237.152,203.182 236.325,208.863 234.904,214.343C234.558,215.673 234.176,216.991 233.735,218.287C231.297,225.493 228.035,241.267 226.626,255.722C226.218,259.904 225.973,263.976 225.944,267.709ZM235.469,221.529C233.607,228.161 231.49,239.093 230.18,250.043C232.617,238.318 234.371,227.197 235.469,221.529Z"/>
        <path d="M262.106,281.056C265.718,280.067 269.427,279.032 272.512,277.154C274.769,275.78 276.705,273.964 278.062,271.368C280.113,267.264 281.397,260.609 279.842,256.988C278.575,254.036 275.669,252.399 270.066,255.223C265.183,257.644 260.622,267.531 259.499,276.632C258.65,283.514 259.875,289.842 263.706,292.427C267.118,294.722 271.769,295.405 276.626,294.909C283.251,294.233 290.207,291.461 294.656,289.097C295.214,288.818 295.441,288.138 295.162,287.58C294.883,287.022 294.203,286.796 293.645,287.075C289.329,289.101 282.617,291.231 276.336,291.743C272.236,292.076 268.303,291.777 265.412,289.868C263.053,288.314 262.127,284.991 262.106,281.056ZM262.213,278.425C265.344,277.562 268.533,276.664 271.165,274.99C272.989,273.83 274.513,272.272 275.546,270.11C277.266,266.672 278.552,261.13 277.259,258.092C276.503,256.314 274.678,256.007 271.297,257.684C267.619,259.536 264.453,266.346 262.985,273.29C262.621,275.01 262.352,276.746 262.213,278.425Z"/>
        <path d="M316.791,292.458C316.549,292.444 316.248,292.442 315.996,292.32C314.609,291.651 312.963,290.256 311.634,288.336C309.997,285.922 308.833,283.36 307.893,280.723C305.579,274.229 304.546,267.314 301.353,261.015C301.055,260.419 300.329,260.178 299.733,260.476C299.137,260.774 298.895,261.499 299.193,262.095C302.271,268.336 303.205,275.163 305.4,281.593C306.378,284.456 307.594,287.242 309.321,289.877C311.479,293.247 314.518,295.3 316.457,295.687C317.852,295.965 318.897,295.506 319.509,294.687C320.134,293.852 320.385,292.106 319.076,289.399C318.835,288.915 319.125,287.439 319.46,285.368C320.268,280.386 322.27,272.663 324.664,266.153C326.233,261.885 327.979,258.176 329.682,256.154C330.534,255.143 331.264,254.463 332.124,255.215C332.567,255.658 333.286,255.658 333.729,255.215C334.172,254.772 334.172,254.053 333.729,253.61C332.249,251.881 330.482,251.909 328.656,253.16C326.862,254.388 324.995,257.318 323.293,261.029C320.13,267.925 317.468,277.711 316.363,283.989C315.745,287.503 315.774,290.079 316.165,290.855C316.472,291.463 316.674,291.981 316.784,292.415L316.791,292.458Z"/>
        <path d="M348.238,273.511C345.423,274.161 343.1,274.515 342.11,274.524C341.383,274.524 340.793,275.114 340.793,275.841C340.793,276.568 341.383,277.158 342.11,277.158C342.888,277.166 344.437,276.993 346.401,276.649C343.35,282.559 343.73,287.735 346.24,291.595C349.145,296.064 355.084,298.881 362.518,298.924C364.942,298.93 366.994,298.802 369.01,298.447C371.016,298.093 372.982,297.518 375.259,296.718C377.111,296.059 378.828,295.299 380.468,294.458C384.27,292.507 387.665,290.171 391.596,288.078C392.154,287.799 392.381,287.118 392.102,286.559C391.823,286.001 391.142,285.774 390.583,286.053C386.568,287.933 383.063,290.06 379.193,291.828C377.633,292.541 376.014,293.196 374.267,293.74C372.142,294.41 370.307,294.851 368.453,295.152C366.605,295.452 364.735,295.61 362.518,295.615C356.345,295.651 351.285,293.58 348.844,289.888C346.51,286.356 346.736,281.458 350.41,275.835C355.133,274.738 360.66,272.98 364.074,270.65C368.149,267.867 369.591,264.393 365.675,260.439C363.865,258.631 361.624,258.615 359.297,259.719C355.716,261.417 351.876,266.151 350.286,267.532C349.746,268.002 349.374,268.541 349.116,269.132C348.547,270.433 348.871,272.121 348.238,273.511ZM351.458,272.685C354.301,271.892 357.302,270.856 359.789,269.62C363.542,267.756 366.372,265.566 363.443,262.671C362.319,261.545 360.873,262.3 359.415,263.272C356.472,265.236 353.605,268.745 352.301,269.865C352.013,270.111 351.882,270.427 351.794,270.762C351.632,271.373 351.553,272.027 351.458,272.685Z"/>
        <path d="M403.276,204.97C400.228,211.965 398.049,221.56 396.566,231.723C394.44,246.281 393.724,262 393.685,272.78C393.713,279.813 391.739,287.035 393.035,291.864C394.102,295.84 397.039,298.569 404.355,298.412C404.985,298.412 405.497,297.9 405.497,297.27C405.497,296.639 404.985,296.128 404.355,296.128C398.809,296.008 396.505,294.2 395.773,291.166C394.642,286.481 396.631,279.56 396.657,272.78C396.618,262.103 397.247,246.534 399.214,232.097C400.567,222.161 402.541,212.76 405.434,205.895C405.689,205.3 405.413,204.609 404.817,204.354C404.222,204.098 403.531,204.375 403.276,204.97Z"/>
        <path d="M437.596,270.584C425.544,264.513 418.762,269.209 416.252,276.104C413.294,284.231 416.671,295.706 424.408,297.669C435.035,300.383 444.767,295.147 448.848,288.123C450.924,284.549 451.627,280.487 450.266,276.736C448.763,272.596 444.734,268.79 437.366,266.603C436.773,266.405 436.131,266.726 435.933,267.32C435.735,267.913 436.056,268.555 436.65,268.753C442.742,271.011 445.97,274.287 447.142,277.821C448.104,280.718 447.638,283.784 446.079,286.534C442.637,292.605 434.272,297.068 425.118,294.829C418.778,293.268 416.479,283.705 418.855,277.042C420.872,271.387 426.529,268.026 436.42,272.935C437.069,273.259 437.859,272.996 438.183,272.347C438.508,271.698 438.244,270.908 437.596,270.584Z"/>
        <path d="M472.754,284.064C471.913,283.825 471.152,283.562 470.557,283.273C470.446,283.219 470.328,283.154 470.217,283.089C470.008,278.94 469.605,274.765 468.891,270.527C468.774,269.826 468.11,269.351 467.408,269.468C466.707,269.585 466.232,270.249 466.349,270.951C466.997,274.878 467.37,278.748 467.568,282.593C467.523,282.715 467.498,282.847 467.498,282.984C467.489,283.173 467.529,283.374 467.616,283.583C467.692,285.282 467.735,286.978 467.753,288.671C467.85,297.574 467.285,306.433 467.267,315.637L466.202,336.045L466.138,340.127C466.138,340.921 466.765,341.574 467.558,341.607C468.352,341.64 469.03,341.042 469.097,340.25L470.195,331.202C470.533,329.123 470.782,327.059 470.983,324.997C471.443,320.262 471.65,315.542 472.169,310.7C472.978,303.172 473.659,295.247 474.96,287.564C477.448,288.192 479.896,288.566 480.885,288.584C484.668,288.564 489.202,288.305 492.746,286.666C495.404,285.438 497.538,283.473 498.552,280.369C499.658,277.004 497.901,265.814 495.072,258.831C493.91,255.966 492.521,253.806 491.177,252.956C489.826,252.102 488.445,252.135 487.096,253.48C481.257,259.294 477.567,266.638 475.088,274.694C474.154,277.731 473.393,280.87 472.754,284.064ZM470.332,285.978C470.361,286.866 470.381,287.752 470.394,288.637C470.453,292.663 470.377,296.681 470.277,300.727C470.814,296.074 471.419,291.375 472.242,286.764C471.93,286.659 471.627,286.548 471.337,286.433C470.981,286.292 470.645,286.14 470.332,285.978ZM475.472,284.734C477.752,285.23 479.987,285.56 480.885,285.547C484.273,285.565 488.347,285.444 491.537,284.013C493.494,283.134 495.102,281.741 495.872,279.476C496.77,276.823 495.564,268.808 493.594,262.564C492.626,259.495 491.485,256.845 490.23,255.561C489.809,255.13 489.386,254.919 488.961,255.345C483.457,260.872 480.011,267.853 477.708,275.492C476.805,278.487 476.077,281.582 475.472,284.734Z"/>
        <path d="M514.913,276.556C514.084,276.581 513.283,276.595 512.518,276.602C511.812,276.602 511.238,277.175 511.238,277.882C511.238,278.588 511.812,279.162 512.518,279.162C513.324,279.169 514.17,279.17 515.045,279.158C515.648,284.909 518.307,290.167 523.033,292.565C527.891,295.026 532.673,295.219 537.325,294.052C543.773,292.435 549.907,288.199 555.881,285.016C556.44,284.737 556.666,284.057 556.387,283.498C556.108,282.94 555.428,282.713 554.869,282.992C548.951,285.763 542.807,289.399 536.553,290.831C532.599,291.737 528.581,291.767 524.452,289.729C520.65,287.856 518.583,283.676 518.027,279.076C521.792,278.912 525.879,278.476 529.658,277.451C533.739,276.343 537.453,274.536 540.12,271.76C544.666,266.97 544.336,263.331 542.163,260.96C539.245,257.777 531.857,256.764 526.457,258.127C519.703,259.8 515.707,266.83 515.018,274.291C514.948,275.044 514.913,275.801 514.913,276.556ZM517.871,276.421C521.447,276.198 525.316,275.715 528.89,274.694C532.427,273.684 535.678,272.153 537.977,269.718C540.916,266.643 541.396,264.466 540.002,262.934C537.633,260.329 531.558,259.811 527.151,260.902C521.543,262.317 518.474,268.344 517.951,274.55C517.898,275.171 517.871,275.796 517.871,276.421Z"/>
        <path d="M568.617,264.814C569.029,262.11 569.46,259.389 569.844,256.625C569.939,255.961 569.477,255.345 568.812,255.25C568.148,255.155 567.532,255.617 567.437,256.281C566.645,261.673 565.683,266.905 565.022,272.167C564.573,275.739 564.262,279.324 564.242,282.984C564.224,284.319 564.388,292.798 564.731,296.143C564.83,297.114 565.024,297.769 565.153,298.005C565.441,298.53 565.864,298.702 566.17,298.788C566.656,298.923 567.183,298.85 567.694,298.364C569.328,296.761 569.77,293.572 569.494,289.576C569.127,284.262 567.695,277.348 568.86,271.675C569.529,268.414 571.09,265.588 574.41,263.911C577.754,262.25 580.758,262.175 583.686,262.856C588.104,263.883 592.314,266.624 597.231,268.311C600.341,269.378 603.704,269.997 607.416,269.829C608.04,269.829 608.546,269.322 608.546,268.698C608.546,268.074 608.04,267.568 607.416,267.568C604.039,267.415 601.103,266.434 598.317,265.347C593.348,263.41 588.904,260.915 584.365,259.891C580.793,259.085 577.137,259.196 573.075,261.24C571.191,262.173 569.733,263.388 568.617,264.814Z"/>
        <path d="M334.216,340.178C333.827,340.363 333.294,340.553 332.585,340.744C332.372,340.14 331.708,339.823 331.104,340.037C330.5,340.251 330.184,340.915 330.397,341.519C329.727,341.816 329.194,342.004 328.775,342.104L328.704,342.272C328.525,342.671 328.966,343.105 329.106,343.517C330.539,347.713 332.148,351.767 333.764,355.742C352.38,401.535 379.043,434.327 413.115,457.986C436.083,473.936 462.396,485.885 492.027,494.515C509.725,499.67 528.618,503.544 548.598,506.691C559.551,508.489 570.539,509.763 581.557,510.739C592.548,511.713 603.568,512.391 614.615,512.923C617.229,513.028 626.442,514.577 632.138,514.538C634.655,514.521 636.592,514.095 637.452,513.41C637.59,513.307 638.611,512.28 637.716,510.951C637.586,510.757 637.294,510.363 636.891,509.827C634.844,507.107 629.652,500.506 629.014,499.721C626.94,497.084 624.914,494.437 622.664,491.95C613.796,482.145 603.741,473.47 594.539,463.981C593.287,462.694 591.226,462.665 589.94,463.916C588.653,465.168 588.624,467.229 589.875,468.515C599.105,477.98 608.52,487.279 618.083,496.409C620.464,498.681 622.958,500.793 625.344,503.063C625.974,503.68 630.604,508.353 633.257,511.122C632.352,511.122 631.252,511.034 630.059,510.951C624.456,510.558 617.107,509.174 614.818,509.028C601.634,508.292 588.487,507.386 575.395,505.927C566.692,504.957 558.015,503.734 549.363,502.2C529.692,498.593 511.174,494.097 493.744,488.764C464.886,479.933 439.083,468.535 416.636,452.92C383.505,429.872 357.634,397.951 339.446,353.426C337.856,349.533 336.376,345.523 334.843,341.457C334.692,341.057 334.758,340.455 334.375,340.262L334.216,340.178Z"/>
        <path d="M635.989,513.504C634.788,512.968 634.616,512.393 633.305,512.291C631.605,512.159 630.01,513.158 628.371,513.621C613.619,517.79 598.822,521.622 583.757,524.296C579.89,524.983 576.006,525.574 572.122,526.202C569.532,526.621 566.957,527.095 564.358,527.491C562.85,527.653 561.757,529.009 561.92,530.517C562.083,532.025 563.439,533.118 564.947,532.955C567.917,532.765 570.878,532.584 573.83,532.257C585.65,530.95 597.313,528.658 608.843,525.852C617.47,523.753 626.148,521.66 634.469,518.488C634.749,518.381 635.063,518.326 635.286,518.125C636.229,517.275 636.057,516.8 636.687,515.697C637.293,515.505 637.628,514.857 637.435,514.252C637.242,513.646 636.595,513.311 635.989,513.504Z"/>
    </g>
</svg>
