<svg xmlns="http://www.w3.org/2000/svg" width="60" height="84" viewBox="0 0 60 84"><path d="M38.869,0l9.694,5.575L10.387,27.528.693,21.954Z" fill="#172b4d"/><path d="M48.954,6.745,11.018,28.551V39.583L48.952,17.778Z" fill="#172b4d"/><path d="M33.7,28.276,11.1,41.267V52.3L33.7,39.308Z" fill="#172b4d"/><path d="M25.035,45.717l-13.99,8.042V64.792L25.033,56.75Z" fill="#172b4d"/><path d="M0,23.017l9.751,5.6,0,11.035L0,34.053Z" fill="#172b4d"/><path d="M.1,35.657l9.633,5.537,0,11.035L.093,46.693Z" fill="#172b4d"/><path d="M.092,48.221,9.728,53.76l0,11.763L.088,59.984Z" fill="#172b4d"/><path d="M21.565,84,11.87,78.425l37.743-21.7L59.307,62.3Z" fill="#172b4d"/><path d="M11.1,77.471,48.981,55.7V44.666L11.1,66.439Z" fill="#172b4d"/><path d="M26.3,55.973,48.9,42.982V31.949L26.3,44.941Z" fill="#172b4d"/><path d="M34.964,38.532,48.955,30.49V19.457L34.965,27.5Z" fill="#172b4d"/><path d="M60,61.306l-9.751-5.6,0-11.035L60,50.271Z" fill="#172b4d"/><path d="M59.9,48.595l-9.633-5.537,0-11.035,9.633,5.537Z" fill="#172b4d"/><path d="M59.908,36.031l-9.636-5.539,0-11.552,9.636,5.538Z" fill="#172b4d"/></svg>